<mxfile host="app.diagrams.net" agent="Mozilla/5.0 (X11; Linux x86_64) AppleWebKit/537.36 (KHTML, like Gecko) Chrome/133.0.0.0 Safari/537.36" version="26.2.2">
  <diagram id="C5RBs43oDa-KdzZeNtuy" name="Page-1">
    <mxGraphModel dx="1356" dy="798" grid="1" gridSize="10" guides="1" tooltips="1" connect="1" arrows="1" fold="1" page="1" pageScale="1" pageWidth="827" pageHeight="1169" math="0" shadow="0">
      <root>
        <mxCell id="WIyWlLk6GJQsqaUBKTNV-0" />
        <mxCell id="WIyWlLk6GJQsqaUBKTNV-1" parent="WIyWlLk6GJQsqaUBKTNV-0" />
        <mxCell id="_q0CH9g4hF8M-if-OQWF-2" style="edgeStyle=orthogonalEdgeStyle;rounded=0;orthogonalLoop=1;jettySize=auto;html=1;strokeWidth=4;" parent="WIyWlLk6GJQsqaUBKTNV-1" target="dwYkS2kokBEXNsswKfOl-5" edge="1">
          <mxGeometry relative="1" as="geometry">
            <mxPoint x="240" y="80" as="sourcePoint" />
          </mxGeometry>
        </mxCell>
        <mxCell id="dwYkS2kokBEXNsswKfOl-23" style="edgeStyle=orthogonalEdgeStyle;rounded=0;orthogonalLoop=1;jettySize=auto;html=1;entryX=1;entryY=0.25;entryDx=0;entryDy=0;strokeWidth=4;exitX=0;exitY=0.5;exitDx=0;exitDy=0;" parent="WIyWlLk6GJQsqaUBKTNV-1" source="ZwWxLaKsashz942m1pMT-8" target="gDYA3ZEtiFdCUqIHOIhs-44" edge="1">
          <mxGeometry relative="1" as="geometry">
            <mxPoint x="840" y="80" as="sourcePoint" />
            <Array as="points">
              <mxPoint x="640" y="80" />
              <mxPoint x="640" y="220" />
            </Array>
          </mxGeometry>
        </mxCell>
        <mxCell id="gDYA3ZEtiFdCUqIHOIhs-28" value="" style="shape=image;verticalLabelPosition=bottom;labelBackgroundColor=default;verticalAlign=top;aspect=fixed;imageAspect=0;image=data:image/png,iVBORw0KGgoAAAANSUhEUgAAAgAAAAIACAYAAAD0eNT6AAAABHNCSVQICAgIfAhkiAAAAAlwSFlzAAAOxAAADsQBlSsOGwAAABl0RVh0U29mdHdhcmUAd3d3Lmlua3NjYXBlLm9yZ5vuPBoAACAASURBVHic7d1nfFVVvsbx56T3QkjoHRJ6BxELSFewI2LDrled0RlnHEevjjN31KvjjGMfx4ING47YkQ5Kkd6kJaEEkBASCJLez30RnMsgJdnl7HPO/n0/H14oWWv/CeTsZ6+19loeAVInSedJGiQp/eh/x0lKkuRxsC4Axh2WVCbpiKTso7+2SloiKcvBuuAn+HB3rzaSrpd0nepv+gDcI1fSPEkfSpojqcbZcuAEAoD7pEt6QNI1ksIdrgWA8/IlvSPpGUk/OFwLfIgA4B4xkh6WdK+kCIdrAeB/qlQfBB6TtMvhWuADoU4XAJ/oLmmupEvF3zmAEwuV1F/SbaofHVwupgaCGiMAwe9aSa9KinK6EAABZbvqpwpXOl0I7MHTYHD7taSXxVw/gMZrIukG1b9JsNzZUmAHRgCC1y8lPed0EQCCwnRJUyRVOl0IrEMACE5XSPpAUojThQAIGvMlXSapyOlCYA0CQPBJl7RaUrzThQAIOqsljVH9JkMIcDwhBpcwSe+Lmz8AewxU/RtFyU4XAvMIAMHll6p/jQcA7DJA0gJJKU4XAnOYAggeKZJ2SkpwuhAArrBG0mgxHRCwGAEIHneLmz8A32EkIMAxAhAcoiTtU/17uwDgS4wEBKgwpwuAJS6WBTf/kJAQjRk9RuePO199+vRRatNURUSc/NiAsLAwxSew3hDwN9XV1SosLNSibxbprl/cZfflBqh+YSAhIMAQAILDNWY76Nq1q5564il17drVinoAOCg8PFzNmjVT2zZtfXVJQkAAYg1A4AuXNNxMB2cNPUvT35/OzR+AGT+FAF4RDBAEgMA3QCbe++/QoYOef/Z5RUdHW1gSAJciBAQQAkDg62um8R8e+oPi45nHB2AZ3g4IEASAwJdhtGG3bt109llnW1kLAEj1DyazxUiAXyMABL42RhuOHjnayjoA4FhMB/g5AkDgMzx+n56ebmUdAHA8pgP8GAEg8MUabZjShJ9JALZjOsBPEQACn+HdHENC+esH4BOMBPgh7gAAgJ9JTEhUaGiolV0yEuBnCAAAgJ9Jz0jX03992uoQwEiAHyEAAABO6ILzL7AjBPSVNE+EAMcRAAAAJ0UICF4EAADAKRECghMBAABwWoSA4EMAAAA0CCEguBAAAAANRggIHgQAAECjEAKCAwEAANBohIDARwAAABhCCAhsBAAAgGGEgMBFAAAAmEIICEwEAACAaYSAwEMAAABYghAQWAgAAADLEAICBwEAAGApQkBgIAAAACxHCPB/BAAAgC0IAf6NAAAAsA0hwH8RAAAAtiIE+CcCAADAdoQA/0MAAAD4BCHAvxAAAAA+QwjwHwQAAIBPEQL8AwEAAOBzhADnEQAAAI4gBDiLAAAAcAwhwDkEAACAowgBziAAAAAcRwjwPQIAAMAv2BgC5ooQ8DMEAACA37ApBPQTIeBnCAAAAL9CCPANAgAAwO8QAuxHAAAA+CVCgL0IAAAAv0UIsA8BAADg1wgB9iAAAAD8HiHAegQAAEBAIARYiwAAAAgYhADrEAAAAAHlgvMv0N+e+hshwCQCAAAg4Iy/YDwhwCQCAAAgIBECzCEAAAACFiHAOAIAACCgEQKMIQAAAAIeIaDxCAAAgKBACGgcAgAAIGgQAhqOAAAACCqEgIYhAAAAgg4h4PQIAACAoEQIODUCAAAgaBECTo4AAAAIaoSAEyMAAACCHiHg5wgAAABXIAT8JwIAAMA1CAH/jwAAAHAVQkA9AgAAwHUIAQQAAIBLuT0EEAAAAK7l5hBAAAAAuJpbQwABAADgem4MAQQAAADkvhBAAAAA4Cg3hQACAAAAx3BLCCAAAABwHDeEAAIAAAAnEOwhgAAAAMBJBHMIIAAAAHAKwRoCCAAAAJxGMIYAAgAABCmPx2O4rbfOa2ElwWH8BeP15P8+aUcImC0p2cpOG4IAAABBKioqynDbwz8etrCS4HHxRRfbMRIwQNJ8+XgkgAAAAEEqLi7OcNvc3FxVV1dbWE3wCJaRAAIAAASptLQ0w23Ly8u1YuUKC6sJLhdfdLEdIWCA6tcE+CQEEAAAIEglJCSYCgFvv/O2hdUEHxtDwGxJ8VZ2eiIEAAAIYt26djPcduGihVr0zSLriglCNoWAQZJmSIqwstPjEQAAIIgNHTrUVPvf3PcbZW/Ptqia4GRTCBgl6S1Jxl/lOA0CAAAEsXPOOcdU+6KiIk2+erIWLFxgUUXByaYQMFnSPVZ2eCwCAAAEsYEDBqptm7am+igqKtLtd9yum265SQsWLlBFRYVF1QUXm0LAk5IGWtnhT8Ls6BQA4B9CQkJ0xRVX6G9P/810X4uXLNbiJYsVERGh1NRUJSf5fO+agBAVFaXS0lKruouQNE1SH0mVVnUq2Ti3AJ9ZKsnQJN+H73+o/v36G75wWFiY4hNsX6gKwKT8/Hz1H9ifJ/fA9t+SHreyQ6YAACDIpaWl6eqrrna6DJjz35LMzeUchwAAAC5w32/vU1JSktNlwLgYSQ9Y2SEBAABcIDU1VQ8+8KDTZcCcGyS1sKozAgAAuMSNN9yoUaNGOV0GjIuSdLdVnREAAMAlPB6PXnzhRbVp3cbpUmDcFEmWvGdIAAAAF0lpkqIZH89Q06ZNnS4FxrSUNNyKjggAAOAyHTp00AfvfaCUJj49fh7WmWxFJwQAAHChvn376ssvvjS9SyAcMdKKTggAAOBSXbp00aKFi3ThhAudLgWN00FSO7OdEAAAwMUSEhI09fWpevqvTys5ma19A8hZZjsgAACAy3k8Hk2ZMkXLly3X7bfdrujoaKdLwul1M9sBAQAAIElKSUnRY48+pnVr1un39/9eHTt2dLoknFwXsx1wGFDg4zAgALbZuHGjFi9ZrCVLlyhzW6Z+2PeD6urqnC4L0mpJg8x0wHHAAICT6t27t3r37q277rxLklRZWan8gnyVlJSoqrLK4eoCW1Z2lu648w6jzU0f7EAAAAA0WGRkJDsJWiS5ialFl6aHX1kDAACAA5okNzHTPM7s9QkAAAA4IDw83Exz0+cBEAAAAHAhAgAAAC5EAAAAwIUIAAAAuBABAAAAFyIAAADgQgQAAABciAAAAIALEQAAAHAhAgAAAC5EAAAAwIUIAAAAuBABAAAAFyIAAADgQgQAAABciAAAAIALEQAAAHAhAgAAAC5EAAAAwIUIAAAAuBABAAAAFwpzugDAFw4VHtK6teuUlZ2l3bt368cjP6qstExlZWVOlwa4VmRUpGKiY5SUlKTWrVurc+fO6tOnj9q0buN0aa5AAEDQ2r59uz6c/qHmzJmjLVu3yOv1Ol0SgAZo166dRo4YqUmTJmnggIFOlxO0CAAIOvMXzNezzz2rZcuWOV0KAAN2796tqW9M1dQ3piojI0P33H2PLrv0MoWFccuyEmsAEDQ2bd6k8RPG68rJV3LzB4JEZmam7rzrTg09e6gWLFzgdDlBhQCAgFdTU6NHH3tUo0aP0oqVK5wuB4ANdu7cqUlXTtJt/3WbiouLnS4nKBAAENAOHDigiy+5WM88+4xqamqcLgeAzWbMmKERo0Zo0+ZNTpcS8AgACFi79+zWhIsm8NQPuMyuXbs0fsJ4LVy00OlSAhoBAAFp165dOv+C87Vr1y6nSwHggNLSUl1z7TX6dvG3TpcSsAgACDj5+fmaOGmi8vPznS4FgIOqqqo05fop2rBhg9OlBCQCAAJKXV2dbr/jdu3evdvpUgD4gZKSEk25YYoKDxc6XUrAIQAgoPzlqb9o8eLFTpcBwI/s27dPd99zt9NlBBwCAALGtsxteva5Z50uA4AfmjVrlj7/4nOnywgoBAAEjPt/f7+qq6udLgOAn3ro4YdUXl7udBkBgwCAgLBkyRItXbrU6TIA+LHc3Fy9/c7bTpcRMAgACAgM/QNoiBdefIGRwgbiZAX4vT1792jRN4ss6SsqNkI9hnVWpwFtlNwsXlHxkZb065TvPt6glZ8b2xHtzMv6aPDFPS2uCI2RsyFXnz1tbDOb9r1b6uLfnGdxRb5VXV6tH/OLtWdznjYuyFZRQYnpPvfv36/58+dr3LhxFlQY3AgA8HsfffSR6aN8Q8NCNPqWMzX2tqGKDvCb/rGyVxh/HTK1XbK6De1gYTVorNqqWsNt45rEBNXfX21NnRa/v0afP/ONyooqTPU1/aPpBIAGIADA782dO9dU+5iEKN3+wkRlnNnemoIAWC40LETDrxukbmd30gu3fqCC3cbf61+4aKFqamo4Pvg0WAMAv1ZSUqING43v8hUS6tFNT1/CzR8IEM06NNGv3rpa8U1iDPdRXFys9RvWW1hVcCIAwK9t3LjR1IKekTecoZ7DOltYEQC7pbRK0sQHRpvqY82aNRZVE7wIAPBr2dnZhtuGR4Vp3B1nWVgNAF8ZfFFPNe+YYrj99u3bLawmOBEA4NdyducYbtttaAfFJkZbVwwAn/GEeDTg/O6G2+fk5FhXTJAiAMCvFRUXGW7bsV9rCysB4Gsd+xv/GT5SdMTCSoITAQB+rbS01HDbxLR4CysB4GtJJn6GS0rM7ykQ7AgA8Gu1Ncbfkw6P5BUgIJCFRxn/Ga6pqbGwkuBEAAAAwIUIAAAAuBABAAAAFyIAAADgQgQAAABciAAAAIALEQAAAHAhAgAAAC5EAAAAwIUIAAAAuBABAAAAFyIAAADgQgQAAABciAAAAIALEQAAAHAhAgAAAC5EAAAAwIUIAAAAuBABAAAAFyIAAADgQgQAAABciAAAAIALEQAAAHChMKcLAOyyZPo6ZS7PcboMW+VszDXcduP8LB3eX2RhNWisw/uPGG67LzNf7z4808Jq/E95cYXTJQQ1AgCC1rZlu7Rt2S6ny/BbORtzTQUIOOvw/iIt/mCt02UggDEFAACACxEAAABwIQIAAAAuRAAAAMCFCAAAALgQAQAAABciAAAA4EIEAAAAXIgAAACACxEAAABwIQIAAAAuRAAAAMCFCAAAALgQpwEiaPW5tL+ad2vhdBm22v5NpnYs3W6obZ9R6eo5rLPFFaExcrMLtPDtVYbatkxP1XnXDbK4Iv9SXFimz/++yOkyghYBAEGr3aD26jamh9Nl2Kr4QJHhANCuV0udM7m/xRWhMTYt2m44ADRpmRj0f3/5OYUEABsxBQAAgAsRAAAAcCECAAAALkQAAADAhQgAAAC4EAEAAAAXIgAAAOBCBAAAAFyIAAAAgAsRAAAAcCECAAAALkQAAADAhQgAAAC4EAEAAAAXIgAAAOBCBAAAAFyIAAAAgAsRAAAAcCECAAAALkQAAADAhQgAAAC4EAEAAAAXIgAAAOBCBAAAAFyIAAAAgAsRAAAAcCECAAAALkQAAADAhQgAAAC4EAEAAAAXIgAAAOBCYU4XANhl6+zNys/Mc7oMW+1dt8dw2y2Ld6qytMrCatBYB/ceNtw2b8chffLUAgur8T9lRRVOlxDUCAAIWtnfZCr7G6er8F/bV+/R9tXGAwScdXDvYc1+ZZnTZSCAMQUAAIALEQAAAHAhAgAAAC5EAAAAwIUIAAAAuBABAAAAFyIAAADgQgQAAABciAAAAIALEQAAAHAhAgAAAC5EAAAAwIUIAAAAuBCnASJodR/XU6ldmjldhq1ylu/Q7lU5htp2GNJRbQd1sLYgNErh7kP6/vP1hto265CioRP7WFyRfyk5XKa5ry13uoygRQBA0Op8brq6jenhdBm2qi6rMhwAWvdrqyHXD7W2IDTKjqXbDQeA1HbJGntbcP/95ecUEgBsxBQAAAAuRAAAAMCFCAAAALgQAQAAABciAAAA4EIEAAAAXIgAAACACxEAAl+J0YZxcXFW1mGL2NhYw20j4yItrMQ/hcdEGG4bGRv83x8AJ0cACHy7jTQKCQlRi+YtrK7Fcq1btzbcNrFFkoWV+KfEFonG27YM/u8PgJMjAAS+WUYa9e/XX/Hx8VbXYrmRI0YaapfQIlEpHZpaXI3/aT+4g0JCG/9jHBoRqrYD21tfEICAQQAIfF9Iym5soxtvuNGGUqzXr18/nXXWWY1uN/iaITZU43+ik2LUY3zvRrfrc0l/RZiYPgAQ+AgAga9a0h2SahraYNTIURo9arR9FVns8cceV0xMTIO/vmWvVup7+QAbK/Ivw+46T/FpDR/NSWyZpLNvH2ZjRQACAQEgOMyXdJOkqtN94dChQ/XXv/xVHo/H/qos0qN7D735xpsNmrJo1rWFLvvrJIWGh/qgMv8QmxKnic9c1aAQkNAiUROfmazoxGgfVAbAnxEAgsc7koZK+uZEv5mUlKT7f3e/pr461dTKeqeMOG+E5s2Zp7Fjx54wvETEROjMm87WNa9dr9gU/3+7wWpp6c10/Tu3qPdFfU+4JiAkLER9L+uvG965RU07pjpQIQB/w3HAwWWNpOGSOkka1q9vv3PHXzD++s6dO2vwoMEKDw93tjqTOnXqpHffeVe5ublasnSJMndn6fuaLUpunax2gzsoPCqw/3xmxabE6fw/XKjh94xSzoqdOrL/iDye+iH/9oM7KiohyukSAfgRAkBw2iFpx/T3p/8gj653uhirtWzZUpOumKRD1YWauv8dp8vxO9GJ0eo2pofTZQDwc0wBAADgQgQAAABciAAAAIALEQAAAHAhAgAAAC5EAAAAwIUIAAAAuBABAAAAFyIAAADgQgQAAABciAAAAIALEQAAAHAhAgAAAC5EAAAAwIUIAAAAuFCY0wUcJ05ShqR2kmIlRTtbTmC79fZbu48cNdK2/kNDQhUVFWVb/6dTUluq9UfWOnZ9BIbIuEhFREeoSbsUJbZKUkhocDz3FOYe0eIPgvvff3FhmdMlBDWnA0C0pAmSRksaLqmLo9UEmUXfLtKibxc5XQbgN0LCQtSie0u1Hdhenc9JV8terZwuybDcrAK9+/BMp8tAAHMqAHSR9BtJkyUlOlQDAJepq6nTvo0/aN/GH/Td1CVq0i5FfS7tr76X9VdETITT5QE+5euxsNaS3pW0VdLt4uYPwEGFuw9p4TNz9fKFz2nF28tUV1PndEmAz/gqAHgk/Vr1N/6rJYX66LoAcFrlR8q16Ln5euPqV7Rv4w9OlwP4hC8CQFNJX0l6WvWL/ADALx3cWaD3bn1Ly99aJnmdrgawl90BoIOkZZLOt/k6AGCJuto6ffP8fH3x8CdMCSCo2RkAuqn+5s/KfgABZ8usTfr43g9VW13rdCmALewKAK0lfS2puU39A4Dtdi7brs8e+FjeOuYDEHzsCADRkmaqfjMfAAho2YsytfjlRU6XAVjOjgDwnKReNvQLAI5Y/uZS7fpuh9NlAJayOgCMkXSLxX0CgKO8dV7N/NPnqiypdLoUwDJWBoAoSS9a2B8A+I2SgyVa9tq3TpcBWMbKAHCLpM4W9gcAfmX1BytVlHfE6TIAS1gVAMIl3WdRXwDgl+pq6rRy2nKnywAsYdVhQBdKamtRX0pqnaymHVMVmxInj+fkXxceIkU5fZ4hAL9VU1WrIwUl2rX+B5UXWzN///3n6zXsFyMUHhVuSX9GJbdIUM9hwT3oWl5codVfbXG6jKBl1e1ziukePFL3MT015MazlNo5rUFNEiKklGjezwVwajXVtdr8zQ59/swi7cvMN9VXVVmVshdlqvu4nhZVZ0yrjDRd8+cLHK3Bbvk5hQQAG1kxBRAjk1v9RsZF6opnr9KFj13a4Js/ADRUWHio+oxK139/dqtG3XSG6f4yF2y1oCrAWVaMAJwlyfBB2mERYZr0wjVq2bOVBaUAwMmFhHo08YHRCo8K19cvLTHcz57Vu+Wt88oTcoo5SsDPWTECcLaZxiN+PZqbPwCfuuieYcoY0t5w+4qich3cVWBdQYADrAgA3Yw2bNIuRX0u629BCQDQcJ4Qjy7//ShTfRzaddCiagBnWBEA0o027Dm+t0JC7T6RGAB+rm2P5mrTrZnh9of3FFpYDeB7Vtx9U4w2bD+kowWXBwBjup1l/DOo7McyCysBfM+KABBvtGFi80QLLg8AxjRpZfwzqKq0ysJKAN+zIgBEGm0YEWe4KQCYFpMQZbhtTVWNhZUAvscEPAAALkQAAADAhQgAAAC4EAEAAAAXIgAAAOBCBAAAAFyIAAAAgAsRAAAAcCECAAAALkQAAADAhQgAAAC4EAEAAAAXIgAAAOBCBAAAAFyIAAAAgAsRAAAAcCECAAAALkQAAADAhQgAAAC4EAEAAAAXIgAAAOBCYU4XgBOrLK/WgZ2HdGjfj6ooqVJlWf2v8qIKhUeHKyw8VFGxEYprEqvk5vFq0jJRiWnx8nicrtx3yosrVbDnsAp2F6roYKmqKqpVWVql2po6xSRGKSouUrEJUWraNllp7ZooJjHK6ZJPq6aqVjvW7tWezXkqL6pQYrN4dejdUm17tnC6tEbx1nn1w7YDys0qkDxScosEte/VUhHR4U6XBuAoAoAfqCqv1o61e5W5fLd2b8xV3q5DOry/qNH9RMVGqFXXZmrdtZk69W+trme2V0JqnA0VO+PArkJlrchR9so9ylq5Wz8eKG5U+4SmserQt5U69mutjCHt1a5nC3lC/CMxeb3SondWadbLS3WkoORnv9+qa5omPThGGWe2931xjVBX69W3763WnNeXq3Dfkf/4vcjocJ15eR9NuPtcxSXHOFQhgJ8QABxSVFCilV9s1oZ5mdq1YZ9qqmpN91lRWqUda/Zqx5q9+ubd1fJ4pJbpaeo9Ml2DxvdQy/RUCyr3reLCMq36YpO+m7FRe7fkmeqr6GCpNszL0oZ5WZLqA0HP4V00+MIeyhjS3rEwUFNdq1d++bE2zs866dfs25avZ66fpkt/N1JjbjnTh9U1XEVJpf5xx0fKXJ5zwt+vLK/WommrtW5Opu565Uq17dHctwUGmSP5JVrz9Vany7DVicIwrEMA8KGa6lqtn71Nyz/7XlsW71RdbZ2t1/N6pX2Z+dqXma+vX1qilumpOuuKfhp6eR9Fx0faem2zDucV6avnF+u7GRtUW2PP96noYKmW/Wu9lv1rvZJbJOicyf017JoBik2MtuV6J/PuQ1+d8ub/E69XmvHkfCU3T9CgCT18UFnDeeu8evmuf5305n+sI/nFev6m9/TAjJvVpFWi/cUFqb1b8vTq3R87XQYCGAHAB6rKq7Vk+jrNfW25Duc1fmjfKrlZBfrosTn64plFGnJZH4299Uwlt0hwrJ4TqSip1MyXlmjhO6tUXVHjs+se3l+kz/++SLP/uUznTO6nkTeeoeTm9n9vslbs1nczNjaqzft//Fq9zuuiqNgIm6pqvCXT12nbsl0N/vriwjK9/6dZuuuVK22sCsCpEABsVFNVq/lvrtC8qStUfKjU6XL+raK0SoveWaUlH67VsKsHaNwdZyu+ifNzsjkbc/X6rz9RwZ7DjtVQWValeVNXaNE7q3Xm5X100a+H2/q9Wfj2qka3KTtSoaUfrdfIGwbbUFHjeb3S3NeXN7rdpkXZOrDrkJp1SLGhKgCnw2uANtmyZKf+Z/w/9clTC/zq5n+s+oCyUg+PfFEL3l6lulqvY7XMee07PXXlm47e/I9VU12rxR+s1SOjXzr6vbF+GsLrrf93YsSKz763uBrjcjbsU35OYaPbeb3S9wu321ARgIYgAFisqKBEr979sZ678T1DH4pOqCip1PQ/z9aTV0zVD9sO+PTaXq/00WNzNOPJ+bbN9ZtRVlSh6X+erccufs30IsTjFR8sUWVZlaG2ezbt14Fd/vHva+0s4wvRDuw6ZGElABqDAGChrUt36tGLXg3Ylbm7v9+vv0x689+r5O3m9UrvP/K15r+50ifXM2NfZr6enPiGZr28VN46a0ZKPKHmfvxWf7XZkjrM8HqlNSYCgFXfSwCNRwCwQF2tV5//fZGeu+l9FR30z+H+hqoqr9Zrv5qhPZv2236tL5/9Rt++v8b261ilprpWn/5tof5xx3RLXtuMS44x9cbBqi82ma7BrJwN+372vn9jpLROsrAaAI1BADCpsqxKz9/8vma+tCRonmaqK2v03iNfy2vjH+f7hdma+Y8l9l3ARhsXZOu1X88w3Y/HI3U5o63h9nk7D2nvVt9O2RzPzPC/JHUa0NqiSgA0FgHAhOLCMv39umnautTYQi5/lrMxVzvX/WBL34W5R/TGfZ8FdGBaPyfTkoV4Ay8w9z6/k6MAZof/45vEqPOANhZWBKAxCAAGFe47or9Ofks5G3OdLsU2Ww2uUD+dj5+Yp7IjFbb07UtzXv3OdB+9R3RRZIzx9/lXfbnZ1pGaU8nZaG74v/+4bgoxuQ4CgHH89BlwpKBET183LehXMB8y8eF+MjvW7DU9bOwv9mXm6+Bec68tRkSHq/eILobbH95fZNtIzemsNbnYtf/53SyqBIARBIBGqiip1Au3fGD6gz8QhIRavzf+jKcWOPbEaof9O8yHwEEX9jTVftWXvn8bwOuV1s7aZrh9fJMYdRlkfP0DAPPYCbARqitr9OJtH1r+PvjJREaHq1nHFKV1SFFccowio8MVnRCl6opqVVfU6MjBEh3OLVJudoFKDpdZfv2mFq/Qzs0q0I41ey3tMyTUo9ZdmymtfRMlN09QWGSYwiJCVfZjuX7ML9GezXk6uKfQttBRZ8HeBT3O7aTYpGiV/lhuqP2arzZr0n+P9ulw+u7vc3Vo34+G2/cby/A/4DQCQCN88KdZyl61x7b+wyJC1f2cTuo2tIMyzmyvFp1T5WngQ/jhvCJlr9yjLUt2auOCLEvm2HsO72y6j2Mt/dd6S/oJCQ1R7xFdNOTS3uo6tMNp98QvL67Unk37tWFeptZ8vdXSE8aatDR/XkBoWIj6jemqJdPXGWpfXFimzOU56nZWR9O1NNSar7eYaj+A4X/AcQSABlr5+SYt/ciaG9jxWnVN07lXDdDA8d0Nvxee3DxBgy/qqcEX9VRNda02f7NDi6at1rZlOw09/XYb2kFtB0oy4QAAIABJREFUult3XKu3zquVFqya7zq0gyb/Yayad2ra4DbR8ZHKOLO9Ms5sr4kPjlHWihzNf3OlNi3KNjUyEJsUrZbpacY7OMagCT0MBwBJWvXFZp8GgHWzMw23jUuOUZfBDP+bFdc0Tq37Bvf3saqsSjuXsV20XQgADXBg1yG9+/BMy/tt37ulLrjrHPU6r0uDn/QbIiw8VH1GpavPqHTt25avz55Z1KDjZn8SkxClyX8cZ11Bqn9nvbjQ3DTFyBvP0MTfj5InxPg3KyTUo65DO6jr0A7KzSrQVy98a3jnxrMn9VNomDXD2OlntFNSs3j9eKDYUPu1s7fpqj+dr/BI+3+kczbmmloD029sV4b/LdAso7kufuJyp8uw1eE9hXrlMgKAXfgpPI26Wq9ev/dTw3u2n0hsUrSue3yC7v/XTeo9wtqb//FadU3TnS9P0r3vXqfmHU9/6lp8kxjd+c8rLT+hbdeGfabaD5rQQxMfGG3q5n+8lumpuvW5y/Wb96aoZXpqo9qmtErS+XeebVktnhCP+o8zPixeUVKpzd/usKyeUzG7+p/hf8A/EABO49v3Vlu6LW6v4Z31pzl36Kwr+tp64z9e+uB2euiL2zTxgdGKT4n92e+HhoXozMv66MHPblHngdZvzrJrvfEAEJsYrcl/HGfb96vLoLZ68JNbNPrmIQ0KGImpcfrFa5NPu/agsQZNMLcpkK/OBlg3x/jq/7jkGKWf0c7CagAYxRTAKRQVlOjzZ76xpK+QUI8u+e0Ijb75TJ/e+I8VFhGqUTedoRHXD9bOdT+oYE+hqsqr1aRlojoPbKvo+Ejbrn04r8hw2yGX9Ta1Z35DhEWE6vLfj1KfUema9tBM5e04+LOv8XikPqMzNPkP45TULN7yGjr0baXUdk1UsNvYKX8bF2SrsqzK1MZCp7P7+/2mjmxm+B/wHwSAU/j4L/NVVmR+NX14ZJhufvpS9R2TYUFV5oWEetR5YBtbnvRPpvSwsVfcpPoFib7SeWBbPfL1fylreY6yVu5W0cFSeTwepbVvot4juiitfRNbrz/g/G6a9fJSQ22ryqu1YX6WBpvcV+BUzK7+Z/MfwH8QAE4ib8dBrfzc/D7rEdHhuuuVK5UxpL35ogJY6RHjASC5hflX7RrD49G/3xrwtUETehgOAFL92wB2BoB1s80N/2cw/A/4DcbiTmLWP5eZPqwmNCxEtz13uetv/pLMrZYPop0DT6dVRlqjFyQea8viHYY3FDqdPZvMDf/3HZPB8D/gR/hpPIGDP/xoydP/NX++wPLNdAJVjIk5/Jzvg/fApRMZNN74YsDamjpTT+mnYvR1yZ+w+h/wLwSAE5j/xgrV1Zrb4nXoxL4aOrGvRRUFvtjEKMNtV3xqfgOhQDLowh6mForadTbAWhPBIjYpmpEwwM8QAI5TU11r+um/eaemmvyHsRZVFBwas3Pf8bJW7nZVCGjaJlnterU03D5r5W7DGwqdzJ7NeYbfTpCkfmNY/Q/4G34ij/P9wmxTc6gej3TVH8cpIjrcwqoCX4c+rUy1f/uBL/TdjA2m12UECjN7AnjrvJYfubyW1f9A0CEAHMfsk+bgi3sx1HkC7fsYf6KV6ue237r/Cz086iXNfW25JYcd+bOBE3qYOo551RfWTgOsMXH0L8P/gH8iAByjorRKmxYZ33c6NCxEF/1qmIUVBY/k5glq39tcCJCkg3sP6+Mn5+l3Q/+uN+77TD9sO2BBdf4nMTVOnQcaP+hl14Z9pobsj7V3i7nh/76jMyw7MwGAdfipPEb2qj2qqa413H7wRb2U0irJwoqCy5BLe1vWV01VrVZ8+r0evfBVPX3NO1o7a6tqa8wt3PQ3prcGnmnNNACr/4HgRAA4RtbyHFPtR910hjWFBKlBE3rYsjYia+VuvfLLj/XAOc9qxl/m68Aua558nTbg/O4KCw813H6FBccvSzK1niAmMUrpDP8DfokAcIxt3+UYbtu2Zwu1yrDmbPhgFZsUrZE32heSig6Was6r3+mRMS/p8Utf1+IP1qqyvNq269ktJjFK3c4yvg1y3o6Dys0qMFXD3i15ys8xt/rfTIgBYB8CwFEVJZWm5pOHXNLLwmqC19jbhp7wNEKr7dm0X+8+PFO/P+sZvfvwTO3dkmf7Ne0wyOS2vqtMnhDI8D8QvAgAR+XtPGTqFbNe7PjXIFGxEbr8/pE+u155caUWf7BWj138mp64fKoWf7BWFaVVPru+WX1GZyjSxLTJqi82y2vizUkzuwoy/A/4NwLAUQd2HjLcNrlFglLb2XtKXDAZcmlvSxcENlTOxly9+/BM3X/m3/X2A18qZ6P/bzEcGR1uajvpg3sPa7fBrZT3bj2gA7uM/1z0Hc3wP+DPCABHmfmg62LidS23uuqP49SqqzNrJirLq7XsX+v1xOVT9fglr2nJh+tUXVnjSC0NMWiCyWmAL4ztbGl28x+G/wH/RgA4Kt/Ee87NOxvf5tatImMi9Ku3rjV18p0V9mzO07SHvtKDw57X7FeWqbrC/4JAz+GdFZNg/CyF1V9tUV1t4+cBTA3/J0Q5cpwygIYjABxVetj49r/NO6ZYWIl7xDeJ0a/eutYv3p4oPlSqT55aoD+MfklrZpp78rVaWESo+ozKMNz+SEGJslftblSbH7YdUJ6JabG+ozMY/gf8HAHgqIoy4wvDklskWFiJuyQ0jdX9H93oyJqAEzmcV6RX75mhv0+ZpoN7Dztdzr8NutDcpkCNPSHQ7Op/9v4H/B8B4KiKkkrDbaNiIy2sxH0iosN1w18u0pQnLlRccozT5UiSMr/L0aMXveY3pxB2PbODEpoaf31y7aytjdrlcp2ZzX8SotR1qPH9CwD4BgHgKDOvhkXFRlhYiXsNvbyPHl1wlyY9NMYv3qqoKKnUG/d9pmkPfeX4NsMhoR71H2f8qbrsSIW2LtnZoK/dty3f1PB/n1EM/8MaNdXG1+SEhYVZWElwIgAc5fEYP3nNa+ZFa/yHqLhIjbh+sP5nzh2669XJ6n52R5n4q7HEkg/X6YWb31d5sfFRIisMHO+baYA1rP6HnyjJLzbcNi4uzsJKghMB4CgzT/GVZYG73ay/8oR41Gt4Z939xtV6ZNYdGnbNQEXGODfSsnXZLj1/8/uObiLUaUAbU4dNbZib2aCtkdeaXP3f1cT2xcCxcjftM9w2IZ61WadDADgq0kQAMLN+AKfXvGOKrvrjOD259J76/QMcemtg57of9OKtH6imyviJkWZ4POaerivLq7VpYfYpv2ZfZr7ydhw0fI0+o9IZ/oc1vFLmAuNhtG079mc5HQLAUWYW8hXmHrGwEpxMVFykhl0zUA9/eZse/ORmnTO5vy2nC55K9qo9mvbQVz695rHsfhtgrenV/91NtQd+sm3eFhVkGz+fpUvnLhZWE5wIAEfFJkcbbmtmwRSMaduzha758wV6/Jtf6vL7R/l0L4bln2zUkg/X+ex6x2rTvblamNh4atM321VWVHHS319jcvV/N1b/wwIlBcVa8Pc5pvro16+fRdUELwLAUc3aG191vn+7uSNXYVxccoxG3zJEf5x9x79HBXzxVsZHj81xbJ+AARcYf8quqarV+rmZJ/y93KwCU8P/vUemKyyC4X+YU5R3RNN/+Z6KTSwAjImJUf9+/S2sKjgRAI5qZuIJMnvlHlMnrsEaP40KPLnsV5ryxIXqPLCNbdeqLK/WR4/Pta3/UznjInNnA6w+yTQAq//hJG+dV5u+3KC3pryugu35pvoaPmy4IiJ4Pft0eFHyqOYdjAeAIwUlOrDrEFsC+4nImAgNvbyPhl7eRwd2HdLSj9bru483qLiwzNLrbJiXpR1r9qrTAPuCxomktmuitj2aa8/mPEPtt323S0UHS3+2sdBaE8P/UXGRbP7jY5Ullcrbut/pMkypqahW0YEiHdi2X1kLM/XjPmtG1a644gpL+gl2BICjmnVMUUiox9ChKZK0cUGWmnc80+KqYFazDim67HcjddGvhmvNzC2a89p32pdp7uniWF//Y4l+8dpVlvXXUAMn9DAcAOpqvVo7a6uGXzvw3/8vN7tA+7ebW/0fHsnHiS/9sGGv3rruNafL8DupqakaO2as02UEBKYAjoqMiVDbHi0Mt18+Y6OF1cBqYRGhOuOSXnro81t141MXW3Z+w+bFO1Vg4iRJowaN7yFPiPEdko5/G8Ds6v8BrP6Hn7jrzrsY/m8gAsAxMoa0N9w2N7tAezYF9nCcG3hCPDrjkl56ZObtOmey+UVC3jqvVny+yYLKGie5RYI69W9tuP3OtXt1aN+P//5vM/P/UXGR6sbmP/ADaWlpuvGGG50uI2AQAI6RfkY7U+3nvr7cokpgt6i4SF3z5ws06aExprca3nCSVfV2GzTB+J4AXq+0Zmb9U3/ezkMM/yMo/OmPf1JsrPFDs9yGAHCMzoPamvogW/P1Fh3Y5fvhYBg34vrBmvzIOFN9/LDtgEqPlFtUUcP1P7+7QkKN/wiv+qJ+5GL1V407Kvh4DP/DH5w3/DxNvHyi02UEFALAMSKjw9V7ZLrh9nW1Xn36twUWVgRfGHbNQA25tLfh9l6vtGu98T3LjYpvEmNq5f3erQe0f/tBU/P/UbERDP/DcampqXrxhRdNHermRgSA45xxcS9T7dfN3qZNi7ZbVA185bLfjVR4lPHRn/wcZ0Z+zEwDSNKXz3+r3GzjG1n1HsnwP5wVFRWlt958S2lpzpwREsj4yT1Oj3M7KT4lVsWHSg338cH/zNZDA9soKs74+QLwrYSmseo7KqPBR+Ye79A+Z86D6DcmQ+89EqbqCmPnpq+ZaW7zn4EmdiUMdO2i2mhS2qWm+liZtlL/0vsWVeQ+YWFhev3V1zV40GCnSwlIBIDjhIaFaMglvUwt6Du497CmPfSVbnnmMgsrg9069G1lOAA4dSJkVFykepzbSevn+H4hYlRshLqd3dHn1/UXsaExahdl7sS5ita+XzsSLKKjo/X6q69rzJgxTpcSsAgAJzDihsFa+M4qU8e+rv5qizr2a60R1/t3Mi0uLNOeTftVmHtE0XGRatuzhdJMnItwMgd2HdLS6eu1fc1eFR0sVWRMuFp0SdWAcd3UZ1SGQkKdn7uLjDH+7nB1pbEncCsMmtDTkQDA8L95Xbp0UWpqqgoKOE+kMVq2bKmpr0/VwAEDT//FOCl+ek8guXmChlza2/SJbx89PleJafF+uUd6fk6hZjw1XxvnZ6uutu4/fq9tj+aa8MtzTS2I/ElNVa0+fnKeFk1bLW/df+6yuC8zX6u/3KzWXZvpxqcuVquuzs7hmdkq2NfHEh+r94guioqL9PkoBKv/zQsJCdHVV12tZ5971ulSAsaYMWP0/HPPK6UJW6+bxSLAkxh721BTr1hJ9ZvEvPHbT/W9ny0KXDdnm/584StaPyfzZzd/SdqzOU8v/dd0ffCnWaYOOaqprtVL/zVdC99e9bOb/7F+2HZAf736LW1fvcf4xSywdclOw21jEqIsrKRxwiPD1MeCsNYYUbER6u7i4X8r3f3Lu9WyZUuny/B7rVq10tTXp+q9ae9x87cIAeAkUtsm66wr+prup6aqVi/fMV3LP/GPrYLXzdmm1+6Z0aBFY4umrdYnf5lv+FqfPb1QWxbvaNDXlhdX6vmb3lfmdzmGr2dG3s5Dyl5lPICktE6ysJrGM/s2QGP1HpFu6q0J/L/ExERNe3uakpOTnS7FL7Vp3UZPPvGkVi5fqYsuvMjpcoIKAeAULvnNeYpLjjHdT21Nnd66/3N99vTCEz5x+8r3C7P1+q8+UW1Nw2uYO3W5cjbmNvpahfuOaMGbKxvVprK8Wi/c9oHWmNyX3oiPn5hn6u+mVXqqhdU0XrezO1ryb7Wh+vvhtFYg6927t+bOnquhQ4c6XYpfaNq0qa6cdKU+mv6RVq9arZtvulmRkbxVZTUi/CnEJkXr0vtG6J0HvzTdl9crff2Ppdq+eq9u+tsllh1G01Dr52Tq9Xs/UU114xY2euu8mv/GCt3898a97rTyi02NCho/qa6o0Wv3fKxd68/QpfeNVGiY/Rl17mvL9f3CbMPtwyJC1a6ns0O4oWEh6je2qxZ/sNb2a0XGRKjHOZ1sv47btG/fXp9/+rmWL1+umbNmavv27SooKFBdnXMPDXaLjopWXFyc4hPi1bZNW3Xu3Fl9+/ZV14yubOrjAwSA0xg6sa+WfbxBO9bstaS/7FV79MdxL2vC3edqxPWDbb/B1dbU6cvnv9WsfywxPJ///aLt8nrVqD3zjYwa/MTrleZNXaEtS3bq6j9doM4D2xju63SW/Wu9Pvmr8WkOSerQp5VfDIcPmtDDJwGg94gufvHnDVZDhgzRkCFDnC4DLsAUwGl4PNJNf7tYMYnWLfKqLKvSx0/M05/H/1MrPv3etmmBnI25euLyqfr6JeM3f6n+Hfcj+cWNamNmI6Wf5GYV6G9Xv6XXf/2Jqd3qTqSmulaf/nWB3n7gS9XVmvjmSH7zlkeXQW2V1Cze9uuw+h8IDgSABkhplaQp/3uh6VPjjpe385DeuO8z/WH0PzT7lWU6nFdkSb871uzVy3d+pCcnTtXeLXmW9HmqVfwnEhlrzXyd11t/dv2fJ7yif9wxXRvnZxmaWjjWlsU79OiEVzTrn8tM1xcaFqL+4/wjAHhCPBpg8858kTER6nEuw/9AMGAcr4H6js7QeVMGa8FbjVvY1hAH9x7WJ08t0Kd/W6guA9uq61kdlDGkvdr1aqGw8NDTtq+urNHeLXna/M0OrZu7TblZ1j4th0eFKSE1rlFt2vZo3uA3ABrCW+fVhnlZ2jAvS3HJMep1XhdlDGmn9DPaqUnLxNO2L9hzWJsWbdfiD9ZaOpow4Pzujf7e2GnQhB6a/8YK2/rvxfA/EDT4SW6Ey38/Svk5h7TpG+tubMfy1nmVtXK3slbuliSFhHqU0ipJzTqmKL5JjCJjIhQZE6G6ujqVF1eqqKBEh/YdUd6Og6afik+l84C2jV6rMOCC7pr9z6Wmph5OpuRwmb6bsUHfzdggSYqOj1SzDilKaZWomMRoRcVFyFvnVcnhcpUUlmrvlgM6UlBieR0ejzT6Fv+aq23fu6XS2jex7XAif5nuAGAeAaARQsNCdOvzE/XMlGk+Of61rtargj2HVbDnsO3XOpXzpgxqdJs23Zqp75iuWjd7mw0V/afy4krlbMw1tfDQiEETeqpN9+Y+vWZDDLygu2a+tMTyfiOiw9Wd1f9A0GANQCNFRofrF69OVvNOTZ0uxSf6jslQ7xFdDLW99rHxatomODc3iYwO16X3jXC6jBMabPJI65PpPaKLIh3c8hiAtQgABsQmReved671y6c/K7XKSNOUxy803D42MVq/efc6pbaz/nAhp13x0Bif7+XQUM07pthyrgKr/4HgEtABwIbp5QZLSI3TvdOuU/rgdg5WYZ+mrZN09xtXm379MblFgu6ddq2adQieENB/XDedPamf02Wc0qDx1m4NHBEdru6s/geCSmAHACcTgOoXn/1y6lXqN7ars4VYLLVdE9377nVKtGh1e3LzBP162nVq062ZJf05qW2P5rr+L/6/H/ngC3ta+toqw/9A8AnoAOAPG2SGR4bptucn6vLfj/LJtrV2a5WRpt+8d12DXq1rjKS0eP1u+o064xJ75qd9Ia19E935ypUBcSNs0ipR7fu0sqw/hv+B4BPQd6yaxm1rbxuPRxp98xD9bvqNAb3ordd5XXTfB9crKc2e3eTCo8J041MXa/Ij4xq0v4E/ad4xRfe+e51t3xs7DLqwpyX9MPwPBKeADgDVDk8BHK9drxZ68JObdfaV/eQJCZyDLEJCQ3Txr4frzn9eqag4+0/cGn7tQP1+xk3qYOETqp3SB7fTfR/eEFA3f0kaeH43hYSa/3fY6zyG/4FgFNABwOuVqv1hHuAYMYlRuvbR8Xpgxs1q39vZE+IaomV6qn43/Qadf+fZlm91fCqtuzbT76bfoMmPjFN0vH8e8+nxSCOmDNI9b12j2KRop8tptITUOHUd2tF0P2dcZM1IAgD/EtABQJLKa5yu4MTa9miu302/Udf8+QI1bZ3kdDk/ExUboYt+PVwPfnqLY0HFE+LR8GsH6o+z79Dw6wYpPNJ/9qVq0jJRd79xtSY9PDag13aMvGGwqfbNOjRRz+HG9oEA4N/85xPXoPIaKSHC6SpOLCTUo3Mm99fZk/pp7ext+uLZb5S346CjNYWGhWjoxL668O5z/WYP+8TUOE3+w1iNv+tszZu6QgvfWaWq8mpHagmPCtOIKYN1wV1nKzLGT/9hNUKPczup7+gMrZ+b2ei2Ho80+ZFxlkwjAPA/gR8Aqj2q9Xrlz59RnhCPBpzfTf3HdtXmb3do+Wffa8O8TFVX+G74IjEtXude3V/nTOrnNzf+48WnxOrS+0ZozK1nauXnm7Tis+99tr1vdHykhl09QCOuH+y33x+jpjxxofJ3Fzb6kKhLfjtC3c4yP4UAwD8FfADwSiqtkhL8cxr5P3hCPOo5vLN6Du+sipJKrZ21VevnZip71R6VF1dafr245Bj1HtFFfUdnqMewzgEzlB2bFK3zpgzSeVMGaf/2g1r5+ffasmSn9m7JU12tdSs/PSEedR7QRmde3kcDzu8WFE/8JxKTEKXfvDtFr9z9sTK/yznt14dFhGriA6M1/NqBttcGwDkBHwAk6UiVRwmRfvZKwGlExUVq6MS+Gjqxr+pqvdqzeb+2fZej3RtzdWDXIeXnFKqmuuHvOXo8UnLLRLXv1VId+rZSx36t1aFPq4Afvm3Ruakuvvc8XXzveSo7UqGsFbuVtSJH+7ILlLfjkI7kFze4r5DQELXo3FTterZQ16Ed1O3sjopvEmNj9f4jNilav3rrWq34dKPmvPbdCUcDQsNC1G9cN11497Cg2rkRwIkFRQCoqZNKqqW4AH1TKSTUo/a9W/7HYry6Wq8O7ftRhfuOqKyoQhWlVaosq/8VGhaqyJhwRcVFKjYpWimtkpTSKlFhEYH1bn1jxSRGqe+YDPUdk/Hv/1dRUqm8nYdUXFimytIqlRdXqLykUt46ryKjwxUeFa7EtDiltEpS09ZJrj7L3uORhlzaW0Mu7a28HQeVszFXxYVlCgsPVdO2yerUv7ViEsxt/QwgcATNp+HhCo9iw70K7Ofd/xcS6lFq22Sltg3cjYV8ISouMiBet/Q3zTs1dc2JlgBOLDAmhRugpq4+BAAAgNMLmgAgSUcq/XdfAAAA/ElQBQBJKij3qMbPdgcEAMDfBF0AqK2T8kolC98WAwAg6ARdAJCk6jqPDpR6CAEAAJxEUAYASaqslfaXiOkAAABOIGgDgFQ/EpBb4pFD28oDAOC3gjoASPVrAQ6UeXSowqM6pgQAAJDkggAg1Z8XUFQp/VDiUXFV/X8DAOBmQbMTYEPU1kkHyz36sbL+COHYCK/C2DsIAOBCrgoAP6mpkworpMOVHkWGStFhUnSYVxEh9fulAwAQ7FwZAH7i9UoVNfW/Dh89RSDMI4WHSh55CQNAkCuy/hRuIGC4OgCcSI1XqqmRFDTHCgE4mcqGn7gNBB1XLAIEAAD/iQAAAIALEQAAAHAhAgAAAC5EAAAAwIUIAAAAuJAVAcDweXt1HNUHwEG1Jj6DQjw8PyGwWfEvuNRww4MlFlweAIwpKSg23DYuLs7CSgDfsyIAFBlteCArz4LLA4Ax+dkHDLeNj4+3sBLA96wIADlGG2YvzLTg8gDQeNUV1dq1bIfh9m3atLGwGsD3rAgAWUYbbp27WQd3FlhQAgA0zur3Vqiy1PhhAF06d7GwGsD3rAgAa4029NZ5Nfvxr1RbzYbcAHynYEe+lr+51HD70NBQ9ejRw8KKAN+zIgAsNNP4h/V79dUjn6m2ihAAwH6H9xTq419/qKqyKsN99OzZU0lJSRZWBfieFQFgh6TtZjrYOmez3rv9LeVnGV+QAwCn4q3zavPM7/X2Da/rSO6PpvoaOWKkRVUBzrHqzNtHJP3RbCeeEI86nd1FXYZnKLVTmuLT4hUWGW6+OgCuVH6kTCUFxdq7bo+2zdmigh35lvS7bMkypaenW9IX3KuyslKt2rQy2rxCUrSZ61sVADpIypYUalF/AOCXBg4YqFlfz3K6DAQBpwOAVVtZ7ZI03aK+AMBv3XPPPU6XAFjCyr0sH5PESj4AQatnz54aN3ac02UAlrAyAGyW9IKF/QGA3/B4PHr80cfl8Vg1cwo4y+rTLP4gaY/FfQKA46699loNHTrU6TIAy1gdAIokTZJUbXG/AOCYjIwMPf7o406XAVjKjvMsV0j6jQ39AoDPJScn643X31B0tKkF14DfsetA6+cl/a9NfQOAT0RFRemdt9/hnX8EJbsCgCQ9KOn3NvYPALaJjY3VtHemacgZQ5wuBbCFnQFAkp6UdJck45tuA4CPtW3TVjO/mqnhw4Y7XQpgG7sDgCS9JOlcSTk+uBYAmDL+gvFaMH+BenTntD8EN18EAKl+YWAPSX+SZPwAbgCwSfPmzfXiCy/qrTff4qQ/uIITO1p0Uv3agCmSIhy4PgD8W7NmzfSLu36h66dcr5iYGKfLgYs4fRaAk1taNZd0taRrJPVzuBYALhIVFaXzhp+nSZMmaeyYsYqI4FkEvufmAHCsVEnDVR8E0iW1k5QgKU4m/4BuFhYWFh4bExtn60U8YmtU+K34uHjFxcUpPj5enTp1UufOnTVo4CANHDiQmz4cRwCAbbK3Zo+RR7Ptvk5CQoJCwzgJGgAaw+kA4KtFgAhilVWs6wSAQEMAgGlVlVWq89Y5XQYAoBEIADDN6/WqqoK9ngAgkBAAYInyinLV1tU6XQYAoIEIALCGV6ooq3C6CgBAAxEAYJmqqipVVrIgEAACAQEAliorK1NtLVMBAODvCACwllcqKS5RXR1vBQCAPyMAwHJ1dXWEAADwcwSnKd+OAAAENUlEQVQA2KK2tlbFxcVMBwCAnyIAwDZ1tXUqLipWVRV7BACAvyEAwFZer1elJaUqLS1lSgAA/EiY0wXAHaoqq1RdVa2Y6BiFR4ZzgiAAOIwAAJ/xer0qLStVSEWIIqMiFRkZSRAAAIcQAOBzdXV1Ki8rV0V5hcLCwhQeHq6w8DCFhnKkMAD4CgEAjvF6vaqurlZ1dbUkyePxKCQk5N+/GB0AEMyc3jmVABB8xkq6SdK5Xbp1aRYdFa0uXbpo9OjRuuaqaxQfH+90fSfl9XpVW1vLq4MAXMHpAMAjVvBIkvSOpAkn+4Lk5GQ99eRTGnbuMN9VBQA4ocrKSvXs09No8wpJ0Wauz2uAwSFO0kKd4uYvSYcPH9btd9yuufPm+qYqAIDfIgAEh2ck9W3IF9bW1uq3v/utDhw4YHNJAAB/RgAIfOmSbmhMg7KyMv3jn/+wpxoAQEAgAAS+SZIa/f7c17O+ZrEdALgYASDw9TfSqLCwUHl5eVbXAgAIEASAwJditGHeAQIAADjF5Cis6cNVCACBr8Jow4KCAivrAAA0QsFBU5/BJWavTwAIfMVGG2ZlZ1lZBwCgEbKyTH0GG/7s/wkBIPDtNdpw3vx5VtYBAGgEk5/Be8xenwAQ+DKNNty6dau+XfytlbUAABpg3759+vKrL810sc1sDQSAwLfeTONHH3tUxcWmR5IAAA1UW1urR/70iKqqqsx0s8FsHQSAwLdaJuaCduXs0i/u+YXKysosLAkAcCJ1dXV69PFH9c2335jtaqHZDggAga9GJv8hLFu2TFdedaW2bNliUUkAgOPt379ft99xu6a9O81sV7skmV7FzWmAwWGSpA/NdhISEqJRI0fp/HHnq2+fvkpLS1NERIQF5QGA+9TW1urgwYPaum2r5s2fp08/+9SqI4Afk/SQ2U4IAMEhStI+SU2cLgQAYCuvpG4ysQD8J0wBBIcKSc87XQQAwHafyIKbv8QIQDBpImmnpESnCwEA2KJO0iBJa63orNGnyMFvlR/9Nc7pQgAAtnhd0itWdcYIQHAJlbRc0kCnCwEAWCpfUg9JB63qkDUAwaVW0lWSjjhdCADAMnWSpsjCm79EAAhG2yXdJAuOigQA+IX/kTTb6k5ZAxCctqp+uGiC04UAAEx5VdJv7eiYABC8Vqt+KmCsWOsBAIHoNUl3qP7df8sRAILbcknZki6QFO5wLQCAhvGqftj/t7JxOpcnQ3foJmm6pJ5OFwIAOKWDkq6XNNPuCzEC4A4HJb2p+oODhkgKc7QaAMDxvJKmSbpEJo95bygCgHvUSFok6QNJsaofDeDvHwCc5ZX0paTrJL0oqdRXF2YKwL1aqf690msldXe4FgBwmx8kvS/pLUmbnSiAAABJai/pPEmDJaVL6qj6MwUSxV4RAGDGj5JKJO2RtE3SBknzJW2RTav7G+r/AEAJ8HVk0D7uAAAAAElFTkSuQmCC;strokeWidth=4;" parent="WIyWlLk6GJQsqaUBKTNV-1" vertex="1">
          <mxGeometry x="335" y="9" width="50" height="50" as="geometry" />
        </mxCell>
        <mxCell id="ZwWxLaKsashz942m1pMT-2" style="edgeStyle=orthogonalEdgeStyle;rounded=0;orthogonalLoop=1;jettySize=auto;html=1;entryX=1;entryY=0.5;entryDx=0;entryDy=0;strokeWidth=4;" parent="WIyWlLk6GJQsqaUBKTNV-1" source="gDYA3ZEtiFdCUqIHOIhs-44" target="ZwWxLaKsashz942m1pMT-1" edge="1">
          <mxGeometry relative="1" as="geometry" />
        </mxCell>
        <mxCell id="gDYA3ZEtiFdCUqIHOIhs-44" value="Classification&lt;div&gt;Models&lt;/div&gt;" style="rounded=1;whiteSpace=wrap;html=1;strokeWidth=4;fontSize=17;fontStyle=1;fillColor=#dae8fc;strokeColor=#6c8ebf;" parent="WIyWlLk6GJQsqaUBKTNV-1" vertex="1">
          <mxGeometry x="430" y="200" width="160" height="80" as="geometry" />
        </mxCell>
        <mxCell id="ZwWxLaKsashz942m1pMT-9" value="" style="edgeStyle=orthogonalEdgeStyle;rounded=0;orthogonalLoop=1;jettySize=auto;html=1;strokeWidth=4;" parent="WIyWlLk6GJQsqaUBKTNV-1" source="dwYkS2kokBEXNsswKfOl-5" target="gDYA3ZEtiFdCUqIHOIhs-44" edge="1">
          <mxGeometry relative="1" as="geometry" />
        </mxCell>
        <mxCell id="dwYkS2kokBEXNsswKfOl-5" value="Tweet&lt;div&gt;Preprocessing&lt;/div&gt;" style="rounded=1;whiteSpace=wrap;html=1;strokeWidth=4;fontSize=17;fontStyle=1;fillColor=#dae8fc;strokeColor=#6c8ebf;" parent="WIyWlLk6GJQsqaUBKTNV-1" vertex="1">
          <mxGeometry x="430" y="40" width="160" height="80" as="geometry" />
        </mxCell>
        <mxCell id="dwYkS2kokBEXNsswKfOl-18" value="" style="shape=image;verticalLabelPosition=bottom;labelBackgroundColor=default;verticalAlign=top;aspect=fixed;imageAspect=0;image=data:image/png,iVBORw0KGgoAAAANSUhEUgAAAgAAAAIACAMAAADDpiTIAAAAA3NCSVQICAjb4U/gAAAACXBIWXMAAA8PAAAPDwFhv49qAAAAGXRFWHRTb2Z0d2FyZQB3d3cuaW5rc2NhcGUub3Jnm+48GgAAAqxQTFRF////AAAAAAAAAAAAAAAAAAAAAAAAAAAAAAAAAAAAAAAAAAAAAAAAAAAAAAAAAAAAAAAAAAAAAAAAAAAAAAAAAAAAAAAAAAAAAAAAAAAAAAAAAAAAAAAAAAAAAAAAAAAAAAAAAAAAAAAAAAAAAAAAAAAAAAAAAAAAAAAAAAAAAAAAAAAAAAAAAAAAAAAAAAAAAAAAAAAAAAAAAAAAAAAAAAAAAAAAAAAAAAAAAAAAAAAAAAAAAAAAAAAAAAAAAAAAAAAAAAAAAAAAAAAAAAAAAAAAAAAAAAAAAAAAAAAAAAAAAAAAAAAAAAAAAAAAAAAAAAAAAAAAAAAAAAAAAAAAAAAAAAAAAAAAAAAAAAAAAAAAAAAAAAAAAAAAAAAAAAAAAAAAAAAAAAAAAAAAAAAAAAAAAAAAAAAAAAAAAAAAAAAAAAAAAAAAAAAAAAAAAAAAAAAAAAAAAAAAAAAAAAAAAAAAAAAAAAAAAAAAAAAAAAAAAAAAAAAAAAAAAAAAAAAAAAAAAAAAAAAAAAAAAAAAAAAAAAAAAAAAAAAAAAAAAAAAAAAAAAAAAAAAAAAAAAAAAAAAAAAAAAAAAAAAAAAAAAAAAAAAAAAAAAAAAAAAAAAAAAAAAAAAAAAAAAAAAAAAAAAAAAAAAAAAAAAAAAAAAAAAAAAAAAAAAAAAAAAAAAAAAAAAAAAAAAAAAAAAAAAAAAAAAAAAAAAAAAAAAAAAAAAAAAAAAAAAAAAAAAAAAAAAAAAAAAAAAAAAAAAAAAAAAAAAAAAAAAAAAAAAAAAAAAAAAAAAAAAAAAAAAAAAAAAAAAAAAAAAAAAAAAAAAAAAAAAAAAAAAAAAAAAAAAAAAAAAAAAAAAAAAAAAAAAAAAAAAAAAAAAAAAAAAAAAAAAAAAAAAAAAAAAAAAAAnaDpfQAAAON0Uk5TAAECAwQFBgcICQoLDA0ODxAREhMUFRYXGBobHB0eHyAhIiMkJSYnKCkqKywtLzAxMjM0NTY3ODk6Oz4/QEFCQ0VGR0hJS01PUFFSU1RVVldYWVpbXF9gYWJjZGVnaGprbG1vcHJ0dXZ3eHl7fX5/gIGCg4SFhoeIiYqLjI2Oj5CRkpOUlZaXmJqbnJ2en6ChoqOlpqeoqauur7CxsrO1tre4ubq7vL6/wMHCw8TGx8jJysvNzs/Q0dLT1NXW19jZ2tvd3t/g4eLj5OXm5+jp6uvs7e7v8PHy9PX29/j5+vv8/f7hwL2bAAALiUlEQVR42u3d+Z9VdR3H8TMzMExOoqLiFmAIbqjgAmSiiJqaYGomqGmmlGaLWFIimZmauVUsaWCKmqCWC5mJxOKWuwIKBCqLw5x/pB/6gTvL5Z4BZzh8P8/XX3DvfT8fM3PPPd+5WdZt9Ro7edqMBUvX5NHbcl4Wr+bxM9fm+n+bT4s2/7iHNpi9oo9HhZp/+HyTt2v1EXHmHzSr1eAdendgkPnrpmyydme9sm+Mv/3mmLpKL+weYP8BiwxdtSf6JL//6BVm3kZzGhLff8xGI2+ze9Pe/8sfmbhG01Lef/clBq7Z1enuX/+weQs0KVkANxq3SC1npXr51+W/Ym04KU0ALv8Xbd3wFPc/zbCFWzkkwb8AX7Jr8d44IDkAF1m1Ky3ZKzUAy43apZ7dLa39DzVpF3u0d1IArrZoV5tdlxKAZwza5W5PaP99t9iz612XDoBJ1tyerkgGwF3G3J62nJ8KgHnbeJat82+YGKqrigvYfHoiALZxI+DbY7Ng7d+FnwGfJHJeZFV14yMyALbR6iNTeMqN1T8JvjUDYJu9NyiBpzyw+vObAECNXu2/6z/l46s/vWEA1OpffXf5pzyq+rM7DICaPdkEQGgA+dwGAEIDyO8DIDaA/CYAYgPIrwEgNoD8YgBiA2g5G4DQAPKNYwAIDSBfNwKA0ADyVUMACA0gf/NAAEIDyJf0AyA0gPy5ZgBCA8gf6w1AaAD5n+oBSBfALZtrC7gDgHQBnH5+gRM0UwBIF0B2RYHfAt8FIF0A2XW1AbReAEC6ALLbEjwvAkAXANTNLnBeZDQAyQLIej9aW8CaYQAkCyDb7dnUzosA0CUA2V4F/qnya/0BSBZAdsAbaZ0XAaCLALIhK2sLeKoJgGQBZMPX1RbwYAMAyQLIxhT4Ys3f1wGQLIDs7JbaAqYDkC6AQv9Z6wcApAug0H/XvASAdAFkNxU4L/J1ANIFkN1b4LzIyQCkC6Bhbm0B648FIFkAWZ8nC5wXGQpAsgCyvi+kcF4EgO0GkPV/tbaApf0ASBZANvDd2gIWNgOQLIDsyNW1Bfy1EYBkAWSjPqkt4P56AJIFkJ1e4LzIbwFIF0BW5LzITwFIF0Ch8yJXApAugELnRb4JQLoAstsLnBc5A4B0ARQ6L/IVAJIFkBU6L3IUAMkCKHRe5P2DAUgWQNavyHmR/QBIFkCh8yIv7gFAsgAKnRf5WxMAyQLIRhQ4L/KXXgAkC6DQeZE/1AGQLIBC50V+CUC6ALKLC3wscC0A6QIodF7kUgDSBVDovMg5AOyKAH43uVDvFTgvcgoAuyCAz7FSnRcBoOcB5KsOBSA0gPytgwAIDSBftjcAoQHk/2gGIDSA/PFGAEIDyB+oByA0gPwEAGIDGAUAAAAAAAAAAJSl/QCIDaARgNgAstUAxAbwfA8CGAlA+fqJnwCxARwFQGwA2QwAYgPY8x0AQgPITm0FIDSA7A4AYgPofUMLAJEBZNkJywEIDSBr+tVmACIDyLK+592zYPkHK3a8D10JjN1hfgIAAAAAAAAAAAAAAAAAAAAAAAAAAAAAAAAAAAAAAAAAAAAAAAAAAAAAAAAAAAAAAAAAAAAAAAAAAFB6AIPPm75gYdo9feclR/cCoNOGFPju7CR66xQAOlZ35Sd5lFpv2w2A9t2SR+qZegDa9tXWUADy7wPQpubXY+2fbzgcgMquyaM1B4DK5oYD8AEAlb0TDkB+IABb2y/e/vlZAFRcAgwI4EIAKq4CrY0H4DAAKloQbv/19QBUdGM4AE95F1DZoPXRAHwNgDZ9O9j+97oU3K5HQu3/Vl8A2rXnrED7Lxzq4+COjf8wyPybftjghpDO2ufCW57+OPHxP3vx7ssOcUuYABAAAkAACAABIAAEgAAQAAJAAAgAASAABAAAAAAAAAAAAAAAAAAAAAAAAAAAAAAAAAAAAAAAAAAAAAAAAAAAAAAAAAAAAAAAAAAAAAAAAAAAAAAAAAAAAAAAAAAAAAAAAAAAUDYAdUPPnZh2Fw7vDUC1Lvt7hK+O2vTC1C8A0EkHPR7mG2NeHglAh8b9N9B3BrV8D4B27b0ij1TLSADadn8eq+VNAFR2Zh6tqQBUdnc4AP8GoLIXwwFoaQZga02fhQOQnwjA1o6It39+MQB+AgDgbwAAvAsAwHUAVwJnB9t/mSuBbev3fqj9PzvOZwHtOvmjQPtvvsKngR3a/+Ew+y8+xv0AnXXR/DUB1v/0uR83uiOoWoMnpH5P4NG9tuf1dVdw8AAAAAAAAAAAAAAAAAAAAAAAAAAAAAAAAAAAAAAAAAAAAAAAAAAAAAAAAAAAAAAAAAAAAAAAAAAAAAAAAAAAAAAAAAAAAAAAAAAAAAAAAAAAAAAAAAAAAAAAAAAAAAAAAAAAAAAAAAAAAHoQQN0hx6TdkY0AVO3Y6U+uS/6fhW/6551nAtBZvX8W5rvjHtgbgA4NifTNcR+cCkC7Gl/KI7VuAABt+3keqwV1AFR2QkswAPl3AKjsN9H2z58HoLJnwwHY2BuArTV8Gg5APgKArR0eb/98EgBb26M1HoBTAajolXgA+gFQ0axw+7/uXUBll4YDcA8AldVHex+4qj8AbRoa7I3gBJ8FtOvyUG8E7vNpYIdO+k+Y+ddf4n6ATvrinetCzL9x3kB3BHVe3SHfmPrrtJs+6ehe2/H6uis4eAAAAAAAAAAAAAAAAAAAAAAAAAAAAAAAAAAAAAAAAAAAAAAAAAAAAAAAAAAAAAAAAAAAAAAAAAAAAAAAAAAAAAAAAAAAAAAAAAAAAAAAAAAAAAAAAAAAAAAAAAAAAAAAAAAAAAAAAAAAAAAAAAAA3Q+gz4lXzVzyZtq9NvdHp+0BQKeNjvLdcWu+BUDHmqZvifONMQ/uD0D7Zof6zqhlfQBo2zl5rG4CoE37rAwGYMtoACqbkkfrMQAqmxcOwGoAKlsZDkB+MABb+1K8/fNzAQAAAL8CAPBHIADeBroQFO13QMsoANp0VjAAv3ApuF1/DLX/4kYA2tU4tSXO/n/ex8fBHRv5cpQ3ABe4IcQtYQAIAAEgAASAABAAAkAACAABIAAEgAAQAAIAAAAAAAAAAAAAAAAAAAAAAAAAAAAAAAAAAAAAAAAAAAAAAAAAAAAAAAAAAAAAAAAAAAAAAAAAAAAAAAAAAAAAAAAAAAAAAAAAAAAAAAAAAAAAAAAAAAAAAAAAAAAAAAAAAAAAAAAAAAAAAAAAAAAAAAAAAAAAAAAAAAAAAAAAAAAAAAAAAAAAAAAAAAAAAAAAAAAAAAAAAAAAAAAAAAAQAAJAAAgAASAABIAAEAACQAAIAAEgAASAABAAAkAACAABIAAAAAAAAAAAAAAAAAAAAAAAAAAAAAAAAAAAAAAAAAAAAAAAAAAAAAAAAAAAAAAAAAAAAAAAAAAAAOjWjq/+AIeZb8cbVv31Pb4UD3Bg9Qc4wXw73oTqr+/BpXiAja1VH+Ct5tvxbq0OoKkcj3BV1Qe4eYT9drQRm6u+vGtK8hAXVSf69hgL7lhj3q7+6i4pyWOcV/0h5q3zrp+o7e76ea3beHHnlwTAXbl2SjNKAmCSKXZOl5cEwL5bbLEzaj2gLH+oPGOMndHC0vylerUxdkbXlgbAocbYGZXok5bl1uj5lpfoasVEc/R8E0sEoH6xPXq6xfVlumB5hkF6ujPKdcn6CYv0bE+U7DOL41pt0qMXgY4r26dWNxulJ7u5dB9bNjxilZ7rkYbyfXDdd5ldeqplfct468Lg1ZbpmVYPLunNKxtt0xNtLO1tVqNXWKf7WzG6vDewDVhkn+5u0YAy38LYPMdC3duc5nLfxFo3ZZORuq9NU+pKfx/zoFkuCnbX5b9Zg3aJW9mHz7dVdzR/+C5zmmHcQxvs9fm24aFxu9SBlubxM9da7fNq7czxzdkuV6+xk6fNWLB0jf22vzVLF8yYNnlsr+5b6X9C9tB0NTJacwAAAABJRU5ErkJggg==;" parent="WIyWlLk6GJQsqaUBKTNV-1" vertex="1">
          <mxGeometry x="520" y="140" width="45" height="45" as="geometry" />
        </mxCell>
        <mxCell id="ZwWxLaKsashz942m1pMT-0" value="Tweet&lt;div&gt;Corpus&lt;/div&gt;" style="shape=cylinder3;whiteSpace=wrap;html=1;boundedLbl=1;backgroundOutline=1;size=15;fontSize=17;fontStyle=1;fillColor=#f5f5f5;fontColor=#333333;strokeColor=#666666;strokeWidth=4;" parent="WIyWlLk6GJQsqaUBKTNV-1" vertex="1">
          <mxGeometry x="185" y="20" width="100" height="120" as="geometry" />
        </mxCell>
        <mxCell id="ZwWxLaKsashz942m1pMT-1" value="Results Analysis" style="rounded=1;whiteSpace=wrap;html=1;strokeWidth=4;fontSize=17;fontStyle=1;fillColor=#dae8fc;strokeColor=#6c8ebf;" parent="WIyWlLk6GJQsqaUBKTNV-1" vertex="1">
          <mxGeometry x="155" y="200" width="160" height="80" as="geometry" />
        </mxCell>
        <mxCell id="ZwWxLaKsashz942m1pMT-6" value="Data splits" style="text;html=1;align=center;verticalAlign=middle;whiteSpace=wrap;rounded=0;fontSize=14;" parent="WIyWlLk6GJQsqaUBKTNV-1" vertex="1">
          <mxGeometry x="320" y="90" width="80" height="30" as="geometry" />
        </mxCell>
        <mxCell id="ZwWxLaKsashz942m1pMT-8" value="Pre-Trained&lt;div&gt;Word Embeddings&lt;/div&gt;" style="rounded=1;whiteSpace=wrap;html=1;strokeWidth=4;fontSize=17;fontStyle=1;fillColor=#dae8fc;strokeColor=#6c8ebf;" parent="WIyWlLk6GJQsqaUBKTNV-1" vertex="1">
          <mxGeometry x="679.39" y="40" width="160" height="80" as="geometry" />
        </mxCell>
        <mxCell id="ZwWxLaKsashz942m1pMT-10" value="" style="shape=table;startSize=0;container=1;collapsible=0;childLayout=tableLayout;fontSize=16;strokeWidth=4;" parent="WIyWlLk6GJQsqaUBKTNV-1" vertex="1">
          <mxGeometry x="620" y="145" width="40" height="30" as="geometry" />
        </mxCell>
        <mxCell id="ZwWxLaKsashz942m1pMT-11" value="" style="shape=tableRow;horizontal=0;startSize=0;swimlaneHead=0;swimlaneBody=0;strokeColor=inherit;top=0;left=0;bottom=0;right=0;collapsible=0;dropTarget=0;fillColor=none;points=[[0,0.5],[1,0.5]];portConstraint=eastwest;fontSize=16;strokeWidth=4;" parent="ZwWxLaKsashz942m1pMT-10" vertex="1">
          <mxGeometry width="40" height="10" as="geometry" />
        </mxCell>
        <mxCell id="ZwWxLaKsashz942m1pMT-12" value="" style="shape=partialRectangle;html=1;whiteSpace=wrap;connectable=0;strokeColor=inherit;overflow=hidden;fillColor=none;top=0;left=0;bottom=0;right=0;pointerEvents=1;fontSize=16;strokeWidth=4;" parent="ZwWxLaKsashz942m1pMT-11" vertex="1">
          <mxGeometry width="13" height="10" as="geometry">
            <mxRectangle width="13" height="10" as="alternateBounds" />
          </mxGeometry>
        </mxCell>
        <mxCell id="ZwWxLaKsashz942m1pMT-13" value="" style="shape=partialRectangle;html=1;whiteSpace=wrap;connectable=0;strokeColor=inherit;overflow=hidden;fillColor=none;top=0;left=0;bottom=0;right=0;pointerEvents=1;fontSize=16;strokeWidth=4;" parent="ZwWxLaKsashz942m1pMT-11" vertex="1">
          <mxGeometry x="13" width="14" height="10" as="geometry">
            <mxRectangle width="14" height="10" as="alternateBounds" />
          </mxGeometry>
        </mxCell>
        <mxCell id="ZwWxLaKsashz942m1pMT-14" value="" style="shape=partialRectangle;html=1;whiteSpace=wrap;connectable=0;strokeColor=inherit;overflow=hidden;fillColor=none;top=0;left=0;bottom=0;right=0;pointerEvents=1;fontSize=16;strokeWidth=4;" parent="ZwWxLaKsashz942m1pMT-11" vertex="1">
          <mxGeometry x="27" width="13" height="10" as="geometry">
            <mxRectangle width="13" height="10" as="alternateBounds" />
          </mxGeometry>
        </mxCell>
        <mxCell id="ZwWxLaKsashz942m1pMT-15" value="" style="shape=tableRow;horizontal=0;startSize=0;swimlaneHead=0;swimlaneBody=0;strokeColor=inherit;top=0;left=0;bottom=0;right=0;collapsible=0;dropTarget=0;fillColor=none;points=[[0,0.5],[1,0.5]];portConstraint=eastwest;fontSize=16;strokeWidth=4;" parent="ZwWxLaKsashz942m1pMT-10" vertex="1">
          <mxGeometry y="10" width="40" height="10" as="geometry" />
        </mxCell>
        <mxCell id="ZwWxLaKsashz942m1pMT-16" value="" style="shape=partialRectangle;html=1;whiteSpace=wrap;connectable=0;strokeColor=inherit;overflow=hidden;fillColor=none;top=0;left=0;bottom=0;right=0;pointerEvents=1;fontSize=16;strokeWidth=4;" parent="ZwWxLaKsashz942m1pMT-15" vertex="1">
          <mxGeometry width="13" height="10" as="geometry">
            <mxRectangle width="13" height="10" as="alternateBounds" />
          </mxGeometry>
        </mxCell>
        <mxCell id="ZwWxLaKsashz942m1pMT-17" value="" style="shape=partialRectangle;html=1;whiteSpace=wrap;connectable=0;strokeColor=inherit;overflow=hidden;fillColor=none;top=0;left=0;bottom=0;right=0;pointerEvents=1;fontSize=16;strokeWidth=4;" parent="ZwWxLaKsashz942m1pMT-15" vertex="1">
          <mxGeometry x="13" width="14" height="10" as="geometry">
            <mxRectangle width="14" height="10" as="alternateBounds" />
          </mxGeometry>
        </mxCell>
        <mxCell id="ZwWxLaKsashz942m1pMT-18" value="" style="shape=partialRectangle;html=1;whiteSpace=wrap;connectable=0;strokeColor=inherit;overflow=hidden;fillColor=none;top=0;left=0;bottom=0;right=0;pointerEvents=1;fontSize=16;strokeWidth=4;" parent="ZwWxLaKsashz942m1pMT-15" vertex="1">
          <mxGeometry x="27" width="13" height="10" as="geometry">
            <mxRectangle width="13" height="10" as="alternateBounds" />
          </mxGeometry>
        </mxCell>
        <mxCell id="ZwWxLaKsashz942m1pMT-19" value="" style="shape=tableRow;horizontal=0;startSize=0;swimlaneHead=0;swimlaneBody=0;strokeColor=inherit;top=0;left=0;bottom=0;right=0;collapsible=0;dropTarget=0;fillColor=none;points=[[0,0.5],[1,0.5]];portConstraint=eastwest;fontSize=16;strokeWidth=4;" parent="ZwWxLaKsashz942m1pMT-10" vertex="1">
          <mxGeometry y="20" width="40" height="10" as="geometry" />
        </mxCell>
        <mxCell id="ZwWxLaKsashz942m1pMT-20" value="" style="shape=partialRectangle;html=1;whiteSpace=wrap;connectable=0;strokeColor=inherit;overflow=hidden;fillColor=none;top=0;left=0;bottom=0;right=0;pointerEvents=1;fontSize=16;strokeWidth=4;" parent="ZwWxLaKsashz942m1pMT-19" vertex="1">
          <mxGeometry width="13" height="10" as="geometry">
            <mxRectangle width="13" height="10" as="alternateBounds" />
          </mxGeometry>
        </mxCell>
        <mxCell id="ZwWxLaKsashz942m1pMT-21" value="" style="shape=partialRectangle;html=1;whiteSpace=wrap;connectable=0;strokeColor=inherit;overflow=hidden;fillColor=none;top=0;left=0;bottom=0;right=0;pointerEvents=1;fontSize=16;strokeWidth=4;" parent="ZwWxLaKsashz942m1pMT-19" vertex="1">
          <mxGeometry x="13" width="14" height="10" as="geometry">
            <mxRectangle width="14" height="10" as="alternateBounds" />
          </mxGeometry>
        </mxCell>
        <mxCell id="ZwWxLaKsashz942m1pMT-22" value="" style="shape=partialRectangle;html=1;whiteSpace=wrap;connectable=0;strokeColor=inherit;overflow=hidden;fillColor=none;top=0;left=0;bottom=0;right=0;pointerEvents=1;fontSize=16;strokeWidth=4;" parent="ZwWxLaKsashz942m1pMT-19" vertex="1">
          <mxGeometry x="27" width="13" height="10" as="geometry">
            <mxRectangle width="13" height="10" as="alternateBounds" />
          </mxGeometry>
        </mxCell>
        <mxCell id="hjRuKn60iCRDdDcoewle-5" style="edgeStyle=orthogonalEdgeStyle;rounded=0;orthogonalLoop=1;jettySize=auto;html=1;exitX=0.5;exitY=0;exitDx=0;exitDy=0;entryX=0.25;entryY=1;entryDx=0;entryDy=0;strokeWidth=4;" edge="1" parent="WIyWlLk6GJQsqaUBKTNV-1" source="ZwWxLaKsashz942m1pMT-23">
          <mxGeometry relative="1" as="geometry">
            <mxPoint x="455" y="280" as="targetPoint" />
          </mxGeometry>
        </mxCell>
        <mxCell id="ZwWxLaKsashz942m1pMT-23" value="" style="shape=image;verticalLabelPosition=bottom;labelBackgroundColor=default;verticalAlign=top;aspect=fixed;imageAspect=0;image=data:image/png,iVBORw0KGgoAAAANSUhEUgAAAOEAAADhCAMAAAAJbSJIAAABIFBMVEX/////0h7/rAM6O0X/xxb/qgD/1B/vTk7/xhX/yRf/1R//qAD/pQD/zxz/0R3/zRv/2hr/swr/sQj/uhD/wBT/tw3/vhM2OEUzNkYgKkcqMEb/5MD/yHj/+fEbJ0f/3rL/8uD/69AkLEf/2KL/ukv/tTj/wmX/26v/syz/6MnxxyIoL0b3T0/uQVD/0ZH/1Jn/zYb/9Ob/xnH/wF7btimnjTV2Zz3owCVEQkQnOkT/7tj/vFHVsSpPSkKHdDtcVEGyljNpXj+WgDiMeDpVT0LCoi9AO0XdTE2yR0paPUbzcUXxYUnOqyyvkzN5aj2chDeSQ0lxQEeEQkhjWUDCSEtNPEagREkZNkXGQk09R0KZTkb1iT75pzP7uCv3mDnwWUucQiOpAAAXvklEQVR4nO1dCXfbNvKPaALhJZGiSFmWfMhX7NjxEduJ41xNm2R7pc1uu93/0T2+/7dYgBhcJCWClGQl72nevm0kiyR+mMHcAB88WNGKVrSiFa1oRSta0YpWtKIVrWhFK1qRQlvj3dHOztH+/v7Rzs7j3fHWsgc0PxqPLq4OrCAIfJXIZ+tgc3/0dNnDm42e7mweUmTIKidEkPoHl18pzK2dK0TATcCmEoFpbY6+Mqkdnx8HEzlXzs3gcP+rYeXTcyso5x3K/TfHy+B4/2vg5M5hCTyEqLzG3W5KqduNCdMQKgL1g1ejZQOYTk8v8yuPYLPSfuKGLaxTJ7STftfyczgJ8vMvl5Evr3X2UXCJS6G1cKtA9FsC1E1SS1+yfnD1Za7I3YNAHShCaRJ6pdh0oARnmHQ1VqLgerxsOAV6eRBoKqXn4ipsOkq7pyoggvHL4uPWI8k/okEoPHN8QmrtVBFXFGx+QevxXJFPP04awAOQncSSK9n395cNDGikjip1vWbogDy7q9zt+OWywRHaupYL0O+1m7JP8tELU4kx2Fw2vgcjuXQovhnhMYxYwehbu8sF+IgzEPnpfPABRimrweUS8b0UKxDF7tzwZRg9WxgP/3hphmNfrECUeHMFmIFMJBuX5KwKCfXTzrzhZRDbXbRMSd06FlNsz2YgJpOXcGfOP7h3gGP+bNRdCAMZ4XbMIVr37OE8FhKaLIqBDCLuc1Hxx/cJcEfomHDuGiaP0ebSEtyjZTwKuI1YMLyM2vG9q1RuJfzeohmYEW5xnXpfEAXAxS5Bhbyef58QuYj6zr1wkEHk1j94vHiAIw7Qvj+AioMTLDye2uVKZr5+aDVEByD6C3ZSn3IOuveKT4WIFmv6rWUBlBDR8SIBHqIlrEEBEdaif704gJv+vWtRlbw+TPDFogCCr4b6ywFIIKZoof4baBmU3pehLxIGB85fjLY5ZnePl8XBjECfLiRchEVoLTAcrCYcgipYQLIYTP0y7IQGEWxGMH/Dby1Zy3DyUjaSw3kDBBmNl6dlBFkLkdOXoEfby4ZH5NQFOZ2vPmV6FCXLllFKmBl+NFfX5ujLkVFCeAGxIqjohaedDAnkdI4u+KX/ZehRTqBP/aN5AdyCoHDZwCR1mH+K5oWQWQrfMXo4xl7DKmmNK3GC5hlkMBYiEzWDvejk5vVNJ6pdisIRvfK2ZXglKBt/PgiBhdWJGRzdfre2vbe3t/3mWbuW2sXRzdvhBr3ym3fY6EpnjkyEVditfLDX+nV7sJbR+nD7WWTORu/kW3nl6TuTK4GJc1mJ54Ys9G4HMMqMTr+pbIfiFL3eU6/ceG4iqcDEeahT34yF3u3G+ppKgzeGesN7va1duDb8Nqq+Cpg4B5u4Y8ZC3FrTAZKBPjcYKLnyZCN34drpdwZXMnU6B8fm2Mxfi94P8+Nc2/hoojSibweFK7dvDdhvzcc7ZUEFSiqehk+2C8NcW39hwIqCjGYSbiCnuD+fEAPiwspxPiuykDDxdTUTo7dFFhImnlQzse3PJU5kACsLhdE3+VWYseK7aoTeacmFa8N31Vfi7jx0zcg3Cyq8grbIxPSbSmHDt6VXDt4bLGGb6ZrxTAgfoSl6RsIu0YeMKhF6r/dKEeb0cOkMM4Phn8+E0J+kZ4itC0PRyTYJ4Xo1wk+lUqojxO0wLGlaxT1mE2cB+JgJaTE7g8MU+ci3EvZc3CpRiEbKFN+U8/CtuBLjJCaPQmlhqWB3djHNNGlJVCFKsshifIxelGqaaptfamaIpnnGn6k0DRUicDx71o3duiCkso2HQMxy4NF7VeevA9zhLwbW4s26flFGGzccTccSVIAIYjpDip/VYgqalOfzGHXpX73XciGub/z+zcYpHa+JVWOWdLCx/u0LuSKleINJAIh535G530FzhJBiKwiH+lR4bPRhXYzuNopaH3/fHm68NfGgO9vD0733N1EUvRMCu8fNIa9TqLOpEtMTzX1TZivSAiP0nT/9bCg3fHjDEy8L9m/f/WIUP3m3zz62spAwegeCMHgjpqavPcrPT0+2RmewF1aprcChvlWJzUD0Cxve9ic+/Z5hKkP+MHqereb1UyHdONUeVegA6c+2EPkyzI/I1RGC6ESfKReH741CpglYOwMi64O9W6Gg9AVRQIjt2RbiqHwZgsub4yGB+HFjePphprS4d7M92PtwIu/BjTqX0vxsw0Js2kbE8heF1c3Daz6vQoq9k8+fZ9xv4d2+/6ilaRxdXgpKLyt7+zsNEV4joUh0SrTHKs8zXXqTidxC/6xNZmEsjMd+0zZwdteyRLCyzcyvCo5nJEcuCVRcMDDZDVXNVrmiaVFPSgJcdI+p4j+VNCSDqmmYGR6zwKL0sR22pwVZi28ewg6TGL9bVp5lWq9hKoOp0gnNJTjsp93e/TRHYafXTfvlUThGMyjT/QmqFG7darzNsD5N2ErcEsq0We8wqxreTy93Y2IuQcPUd+aVVuYRl0xgLpp5pgcTjcWXRJlnipptxMyy3WgpraQ1KDOIDTPfzMrecz93bXJmMPn+V4SwWVr4a0IYN0LIajJfSg/NJILgYwaE9XmIoyiqHyVij1zWYDYZwkbVbmjBqN1Pim8+vHn7qWYchaPOu+cvnnfqQ3RmcL0ZQrvuI6O1wfpgb/CsZc4RHN2+3R4O1k8NalX5S5OZEdZ1rnkSe7jxuW2GkeB7zlox1j/UTvJ0kpnXoVOzr1uWy4Yb351UY/Sim+fbImFeG2F7FoTMWjg1m2bVMtRw+30FRi96/a3EZ1QW1ylMrOb2kCmppCTGN0W4tjbY/vVmYiMX9ryPHzaUgodBRTV/i5BlTJt1fccMYV1zkSsHDzbevGuXgKRZ8c+DU61kZVCrypPNPO9mfulhNjv9uq53odC2Ptx+/vEk8njnISa8i6LbZx+2890NJnX/PMIsekJXjRCyqkXPrrkQITWvD324/eb9x5sTatUjfPL63a/rG8NixdGkP0Gntpul/RumE1mjSerWXIjljSdr64Ph3gbtXxtsbOwNyzpM1tb2bupa/NDN9nk3LJJeZAXgrltzIXqfSuvWJrRRO/Nj27PkaVhHW+zWXIi4NaEvo5JMOqFy5Lgsa9tsu94uS8W6dS1iWaOaEZkUxXVq21B8apYvBdfbsesuxHelC7GaTIriGmHXnsUtFc00dk3nG3dK2ysqqb69b9nuLAYfkm1Wz63rmka/NhLTU6NmTZXajp3OYA4hJYxSu7aYvm6ka4Z1NSkRUpep0qYdNTugauqKqdKYoUnhhH9zgM/qOzS2zVRp02aMMcTANtGmcK6q2ZO9T0Um3q399W93/MMfv93d5X9watr5jrOtJ7iFiZA6s6jSBxAhWolrh57biy1kdROzYwOj33Mr8e7Hvz958uRvwLo/Hj558sMfOsZTU1OB3T4bSocIKSvzN8u0UWKqJrVdJ+Z9bH6xga5sFLeaOr37C8H3kBADdfc9+SfBqMrq+gsjgBg7lp/VExEZis18toY5fUoX4NVodXu/VxSnwhfRZ8Um3v3G8D188gOFePcP+PRQiu3a9k0RYUm/ZRirQ4nBo2naqMC9GpTrh0BWWx8HDulByDmIb4Sc3v3AEFFQP1IZlR//wSGW7D/wOmHY1uNKL9FPHEbsAIJZ9nUHVhkhpJgPz+7STlO/62hTjk+4/333d4Ho4cPv7+4yGeUQf2AQB3ljjzt9eky0b/WV8ya9vl86nubLkPebCGDyJN1QjEQcUolizWzyXQYawIdPvv/te+1zxsX1tVyiVB62p5xGpQDUzgJv3GtCaUdp9ei5odMVUsKmFofqDOiHukQfKcS7v6qAstWnf/ztjoSOJ7kmGuWMVsuHniula7fvhnYsfzDLtpktKaY9moTw+EqH1paOfoC8r7kGGcQfc4gK9OQvg/UcQH6EiZjb7M82P0apnxlm2Uo02ybEA3Ebpl2wOFiMbvXCsaWTvl8/er33P99XAHz45H//L8/BJLfc6O5V3ObnNLqcpfyZTZ1SRkfiYXI1ABcTLJrOfHFSq77Fzbv9/7MqhGc/5fJwomkWydXGO0kVDQC7LRrH95yEmMq2Gq8HJ/24HowkbXudPj9+SB+t92cFxLN/5lPGHm+4tDGGg2hRnwuuPHhE9IDOulP2FZ9GZfsIHwKwMDuRh58Zl+/rj5Kfp2A8+7Owm1Y0kWdqi7eX2cXzm4CHflOHZufy0fXVxS7suMhV2fRlAlMPe+TzeSsc/euns1KQZ2d/usWcP3QFo4Qtac3bAJ3DCBytYPxgawSDrUGX9OUw9KUU/iZ/QqL4o1p7uTgrAzhaHHPk/vvnHMizs7Of/onL0v0d5keloJbV7kukdqDx/ujj0SEMNrCMV+SWcsi6eK1I7Eo9iRVHVfQuwn5AVDJq7EXh4Z8//eeM0cOff/r3v7wJ5Qx2a+TAhGKllR0p/o1s4ldm2/h889K3pKDElskMT2m/Fk8NJ26SykDSfHcndN02jqLJFWKP6cxYLApbDMZXT1bBcdkgDRflwYRX4NgKRLGTRZEcGFxJm6scV1UUzfWM6ERUNgao8g8nuBTI6PhPfipb/jUwRE4VbSNad5XeRS5g0yBUEBcO6RzJtnk1H+bkAQo31kRGAU+S9GPduUhduzAUpCAErTDDcWechTLMFjzUpN/V0aGUDBYQVp+yAGd6pdnGl7CnKeu+kpPqlBjK/qxMBEFX7oD5OlT7XLU4GMXZFkHemV1dDb5QtzaTS9WYDCWKoCZ5N6rFDca0lTidbDAVinvL1bZqrBR3GFkOt5GmWSlmAGXfLG4roQyFyP/C5bQv1wdnYtPjpMCTV4XA6xZuGSqKXP0ediNWNkRfMYRaFG+VQmQ6gCggRQXAr5oB5PxSjunH/CHyR6GMrfxUjZyZm1xdhrosqxr2JBsdm/9FcExC5K5Aw9ZpmB9FZXMfTn6lAJQCmpHpntkdyD6p1k9jowKRfRG7shDOT8Zp0tHI/TBp93CnMGMSIOpqF3dYvdtglxePl1xbrxuKNzFQiHzW4DwC1xFCDXayicXgQYXcId7mEyu+kgBzp4mHkPI06cpg2ScU27bjKmIujtSm/AWIEE+gvsvdSK5/mpwLBneXuqPtguYRplCxXmpimjCQ53RNzjrhB7ESXtmOonCwNLOiaAqpBQoRGC6O36zb0+ixBL0aP0C2CcV8vbQ5QOJnqABDx+WZB6NK4jlnVp9Iqtpr0hGGlkPk7iEJdnL6p7ZRBPH2ZfzA83i8PRJ3OEBdQtu27XLhNUwOPxIzZbs6G4VOJcjZSDhbZTDAvf7qg6UU4okmRUbFTtWUfwMAkdrVSwTUcXlSyjSxOBIJtqzupBZI5WLkzBUeuJAuLqf17D5Mi0iCKJu4OVdFOKGIFRFQ21bsh9G72q7VVD7q0tWoWAOXhRzIAm3DQyZFHXCjWOPUb+HHK2aH39fRE8LaEqQCmljqeIPqKs2hHk/Q9/xpogoOLnFlQgZZ/B7nx2usbUT6Trpr3OEWR1bAc3yZqqECajvSijEKqrZAbeoAM8pElc8uboHf22X6Wuwn9wvOm+6VTwHI9ZWSaOION/gOfJ2qOoYKaK/4MtMKp2ZcVm1ioiqMI6gSYfLgV6qRF0ldE4ii4qLcgYsGPwoDnikB4oKAiih4usHgqbW011VTPCCqHCJb2nBeBi0/0YSAZoKFAqp+GZtYYFbuW5rzBm2FmRjLdCnVMKqAIj9OexCwT38FBvgzWUIl7FuKDCTUOHa0WedBKQ6TxNbzL+XDLgU4YTJw20nEsoRUhrASHVsTUL/rdDyMPWZgpm7V0w4zISDtWJTTaF+NcFWJf0O+91Wu5QZeJnqlJKzCNIGmq9KXnnbbUQUU9UJ+UAVrp301BeFu/hQFz1Uw9lWlmsTF3fFlEFFFJMVvPnXFEm+qK1+OGaomEPUV55lp4GmJDN6OKAWGsF74aigmwi99lwrmyArOtB+BJq7amqNmIUNbMtDvadVjhnBa1fsptCM6qtrwHGF9qatqvNVLpI2n/IZ7ozV6WNu20DB+Vx9MaHDmEAt/u66td3eLdBRxVWv08eXMSgnxlWQOEDtCPi1bS52HvAdsal3/ERIrzlarBG351kzzhlqe60QT5wSi1ti8R1eqXs3vxRSfzWZ0eogI2VLUc6k7qnTJiLdmohovk+Me6kQm8kkzB8hdfz0JRf031+FJxmkARdGCKhVqHUoKTtUmThlQPHUlQm6+ZxwtY6iUEq9YuqeEfQSf2wcWVJUutkQRndq/jJFcxmjmFFkTq0ulZE/LgvNisrny4rFnIjVrm7CP4EtEjPNoOkBxsBCl1HFdxkiehGHWcaodzA0J7lQOgSeyjDt0s9vJxjrGPhWfZbCb1FIIdbOwQq5I7DmxXytVCKcglV2BOYPNe5Bx6sv3KuMOjS7IALW3sld2SF1p0RNx/XqMkWIUXlin8IJhE2upskygGFqjy7rtSAVD8ZH4Qj8NrPLdc/y9asiXzhowkluPWt3YHZagK3VZ4JQr2kfeILtKoyfX6fHgAIkRV7xH6ByKPyEZGw8tGCNtu+7OkmwcLOWJnDbTV7wIjFudNrzut1e/j5xQh4hWojg3tJEC8sfTq08sCdWlvgINLWTjIWVk3V0JLepnMHvRtx0nEypKdGUTgnwv9S5q3xe7roztEG3RzLpv2JKYmqphV/AnErebdyMiYiHd+ky0bQGjSEwB9vMuoglAT7ZokBBHxMVsq97UMjC7JpEBhAwtiIWsvVzasPMKJWUIQUrpP+veV1gHLbgwQXjIF79M6ymhxaQTlSYRDmG7AHJKAMJ+l65de4mL2r7+yvq2Sds3vG/FcdWqDE6sQrbPiDoiFi8DCHuW6I4Vu1aVA3wh5Cu+W5bZgPraeBpCeK8Tq8roGFE9f42Sy4PxuExIOX+TunoaTr8i+JTcMOEJhNwVvQqHIN/ZY0NFeSbEmbHqCVPbgYiNrbUiExkrmANcZwEkZChpDp/IbFTtTeAJU5Qyl1QpqXfqGmbbtqFkVroMuVQxEa4lp23l8GuILUTLcGV9bV/khPtuPkisR6FgYbmQkogOccXWzJ9gYKnzLVNTBi9/vOQQUZzw2KLBk+m+K2AhEVLm27qc2AcHEhLA4iYvVmTwbHnKqdHh3ueCixRjNr92WNsmU4BKSiXupmmv3+8nSUL+v5emcSx9kq7m+BpTtvrIU6TvjXwTgDRElNEWVxKOWw9kFthozVl6CUX7CA5BLUENXeYFOkr10D803aa3daAUaERskXHSaJpxK3v8hA7JMuLTaHLIEMZtBo+a1FjZyBPUeTfSDlJavVDMg0Sis8LK5YJZ5GYn5gBp5wfDOP32mGoW1wZ4emgYvKq5wevc97Uh9EFbkLCACGxn4lmUZILZALj69qcBRfwpHCJdDp2Se+MMHFEsDtfDWmRv+ccN9gZpGBGRVgEye04YttvsjE+Meda9IydYiOjFo2M/8CkhEa2i7HPgH1/tX3CI0mZSSWnTgBJn/yORJMHmSnAUntYEjYLjhttK9rUaIgFJxdUWxo2GfFT3h5Qy4ylHyYNT9vrlrZejo/PLq+tXBweHBwevrq8uz49GL5laeCSbWxSz6ThwM0f8C9DZRDg1sfCDgxn2do0OghxIK+3TgL/chrNRKBJUWVV/IF5nLmzTxPvSpFq2HVnD52+Om+OjNL70cxs36TbjXpLpnsKIslHI2mxgdK7oscgkZOkSN3/X7Emu00+p4syx73Aub3kcXQc5dYEyI05MeJLJKYyDjCKbYwnQ8CQApf+DygidPZeDI+sv6afdvD3NuGedj+eBL6OdV3mQgJM8OI7jLiFwUtTauvHy2FTtL9wU7sk2DZTA8zfn/Ib1raMykDAoVNi7QBh4XeMcgMeaTpt4Tw4vQJvzfJGspNEVmogyN76grn3S7e9kIkbm+LzpmwJMaHx0ZQV+Bcxm+vvCqgBJrGhweDma77ucS2lrdH5NYZbhzEZx0XCD/ONNq1xG6F0D4h4skncF2to9urwm3gpzVxgFgXV9Ptscj3c2Dws3Pbi6GI3nNO7atPX05ePRzhGh0ejlvN5ZvzXeZffcGe2O70EoV7SiFa1oRSta0YpWtKIVrWhFK1rRila0ohWtiNB/Aavj6EjUQTIdAAAAAElFTkSuQmCC;" parent="WIyWlLk6GJQsqaUBKTNV-1" vertex="1">
          <mxGeometry x="423" y="340" width="63.25" height="63.25" as="geometry" />
        </mxCell>
        <mxCell id="ZwWxLaKsashz942m1pMT-25" style="edgeStyle=orthogonalEdgeStyle;rounded=0;orthogonalLoop=1;jettySize=auto;html=1;entryX=0.5;entryY=1;entryDx=0;entryDy=0;fontSize=14;strokeWidth=4;" parent="WIyWlLk6GJQsqaUBKTNV-1" source="ZwWxLaKsashz942m1pMT-27" target="ZwWxLaKsashz942m1pMT-8" edge="1">
          <mxGeometry relative="1" as="geometry">
            <mxPoint x="762.01" y="90" as="targetPoint" />
            <Array as="points">
              <mxPoint x="759" y="170" />
            </Array>
          </mxGeometry>
        </mxCell>
        <mxCell id="ZwWxLaKsashz942m1pMT-24" value="" style="shape=image;verticalLabelPosition=bottom;labelBackgroundColor=default;verticalAlign=top;aspect=fixed;imageAspect=0;image=data:image/jpeg,/9j/4AAQSkZJRgABAQAAAQABAAD/2wCEAAkGBxAPEQ8PEA8PFRUXEBYTFxcVEBUWFRAQFRUXFhYRFRMaHSggGBolGxYXITEtJSoxLi4uFyAzODMuNygtLisBCgoKDg0OGhAQGi0lHSUtListLystLSstLSstKy03LS0tNy0rKystKy0rMistLS0tKystLSstLSstLS0tLSstLf/AABEIAOQA3QMBIgACEQEDEQH/xAAcAAEAAgMBAQEAAAAAAAAAAAAAAgMFBgcIBAH/xABIEAACAQICBgQKBwQIBwAAAAAAAQIDEQQFBhIhMUFRB2FxgRMiI0JSYpGhscEUMnKCkqLRQ6Ph8Qg0U2Nzk7LwFiQzg7PD0v/EABoBAQADAQEBAAAAAAAAAAAAAAABAwQCBQb/xAArEQEAAgICAQMCBAcAAAAAAAAAAQIDEQQxEiFBUSJhBRMjMhQVQnGBkcH/2gAMAwEAAhEDEQA/AO4gAAAAAAAAAAAAAAAAAAAAAAAAAAAAAAAAAAAAAAAAAAAAAAAAAADBZ/phl+AusVi6UJegm51Nu7yUbyt12saDm/TnhoXWFwdar61WcaUe1JazfekW0w5L9QibRDrYOF0+lDPMXtw2Ew0IPdJ05uy5685pS7kfVRzjP5u9TNKVP1aeEoz/ADSgn8TRXgZZ+Fc56R7u1A5RQzfMVbWzPES/7GESf7m/vMxhtK8VHZKUJ9coJP8ALZE/y/L9nH8TRv4NTw2mS/aUX2wlf8rt8TNYLPcNWso1Enyl4r7FfY+4ovxstO6/9WVzUt1LJAAoWAAAAAAAAAAAAAAAAAAAANnG+kXpd1XPC5XOLf1Z4nY4rnGhwk/W3cr71ZjxWyTqqJtEdt80x07wOVK1ao51Wrxo07SqNPc5K9oR65W42vuOJaVdKmY47WhTn9GpPzKMmptevX2Sf3dVc0zR61WU5SnOUpSk3KUpSblKT3ylJ7WzZtG9GPCatbEJqG+MNzn1y5R97+Pq4eJSv3lmvmYrJ8jr4t3grRv41SV7X424yf8At2N6yjRjDYe0nHwk/Smk7P1Y7l8esylKKilGKSSVkkrJLkkWJm6KxDJbJMrUyaZUmTTOla1MkmVpkkwLUySK0ySZIymXZzXoWUJtx9GW2PcuHcbZlWkVKtaMvJz5N+LJ9Uv1NCTJIzZuLjy9xqfldjzWp/Z1UGk5JpFOjaFW8obr75Q7Oa6v5G50asZxU4NOLV01uZ4ufj3wz69fLfjy1vHomAChYAAAAAAAAAAAAcg6bNOnSUsrws7TlH/mJp7YU5LZQXXJO79VpedssxY5yW8YRM6jbB9K/SU8W54DA1PIK8atWL/rL4wg/wCy5vzvs/W5WDJZBln0mqov6kfGm+rhHtf6ntYsUUjxqyXtv1lldE8iVS2IrR8VPxIvz2vPa9Hlz7N+7plMEkkkkklZJbklwLEzTEaZLW8pWpkkytMkmdOVqZNFSZNMC1MmmVImmBYmSTK0yaYFiZNMqTJpkixGVyPOJYaVtrpt+NHl60ev4/DEJk0cXpW9fG3Sa2ms7h0+hWjUjGcGnFq6a4osNI0azfwE/Bzfk5P8EvS7OftN3Pn+RgnDfXt7PTxZIvXYAChaAAAAAAAA17TvSWGV4KrinZz+pSi/2leX1V2Kzk+qLPKuKxE6s51aknKc5ucpPfKcneUn2tnQunDSP6XjvosJeSwy1Nj2SxErOpLu2Q6nGXM5yevxMXhTc9yz5LbnQdC0ewH0ejGLXjS8aX2n5vcrL2mm6P4XwuIpxe5PXfZH+Nl3nQkzdSPdkyz7LUyaZUmSTO1K5MkmVJk0yRamTTPkeMpLfVprtnH9S+lVjL6sovsafwCV6ZNMqTJphC1MkmVJk0wLUySZWmSTJFqZJMrTJpgTRu2imZeFp+Ck/GgvxQ4Pu3ew0hM+zK8Y6FWFRbk9vXB71/vkjPycP5uOY9/ZbhyeFt+zpAPyMk0mtzV+1H6fOvUAAAAAAx2kOaRwWFxOKltVKjOpb0pRXix73Zd5kTmvT3mXgsthQT218RCL/wAOneq3+KMPaWYqed4qiZ1G3n2vWlUlKpOTlOUnOTe+U5O8pPtbZAA91jbPoZR2VqnWoLu8Z/GJtCZg9FY2w8XznJ+/V+Rmky6vTNefqlamV4zG06EdepJRXvb5JcWfLmeYww9Nzlte6MeMpcuw0PH42pXm51JXfBcIrlFcERNtJpTyZzMdLasrqhFQXpNJzfduXvMBicVUq7alSc/tSb9ie4qBXMzK+KxHT8sfsdjutj5rY13gBLL5fpJiqFrVXOPo1PGX4vrL2m55HpTRxLUJeTqPzW9kn6suPY9vac1BMWmHNqRLtSJJmk6I6TOTjhsRK7eynNva3whN8+T47jdEy2J2z2rNZWpk0ypMmmS5WJk0ypMmmSLEySZBMkmBvuiuL8Jh4p74PUfYtsfc0u4zBp+hVe1SpT9KCl3xdvhL3G4Hz3Lp4Zpj/L1MFvKkAAMy0AAA4b/SJxV6+X0b/Vo1an45Qin+7Z3I889P0r5pSXLA01+9rP5mrhxvLDjJ+1zYAHsMrdtHf6tS+9/rkZTWS2vd8EYfRuV8PT6nJfmb+Y0lxWpQcVvm9Tu3y9yt3lu/RmmN201rOMweIqufmrZBco8+17/5HxAFTTEaAAAAAAAADpuiObvFUbTflIWjL1l5s+9e9M5kZzQ3G+BxVNX8Wp5N9r2xfbrJLvZNZ1Lm9dw6emTTKkyaZcyrUySZWmSTAtTJJlaZNMkZfRmrq4mj1tx9sX87HQTmGXVtSth5f39KP4qkY/M6eeN+JR9cT9m/iT9MgAPOagAADzz0/RtmlN88DTf72svkehjhf9InC2xGArenQqU/8ucZf+01cOf1YcZP2uSAA9hlbPonVvTqQ5Tv3SX6plGl1TxqMeUZP2tL5Hy6NYjUrar3Tjb7y2r5+0u0sXlKb9R+5/xOt/Sq1+owYAOVoAAAAAAAATo1XCUZrfGSku2Lv8iB+SWx9gHaUySZTDYkuotTL2NYmTTKkyaYFiZNMqTJpkirFVbVMDDjPMcJFd1eFSX5YM7CcSwVXw2d5ThVtUJVMRPqapzcL9mr+ZHbTxfxG28kR9no8aNUAAee0AAAHMun7LnUy+lXS20cTFt8qdROm/zumdNMXpRlKx2DxWEdvK0ZQTe6NS14S7pJPuLMV/C8WRMbjTyICVSnKLcZJqSbi098ZJ2afWmRPdY0qc3FqS3pprtW1Gd0gkqtGjXjuu0+rWW1PscbGALViZ+D8FreLra1uv8AQmJRMesSqAASAAAAAAAAH2ZLh/C4ihT51It/Zj40vcmfGbdoJl+2eJktltSHW/Ol8F7SYjcotOo23ZMkmVJk0y5kWommVJk0wLUz8q1YwjKcmlGMXJt8IpXb9h+Jmn9IGc6sVhIPbK0qluEN8Yd729i6yJnUOq13OmwdCUJYzM8fmElsjR1Unvi6skoLuhSa7zuRz7oQyV4bLI1ZK08RUdbbvVPZCmuxxjrffOgnz/Kv5ZZl6lI1WIAAZ3YAAAAA839NWjv0PMJV4RtSxKdVclWVlVj23an980A9U9Imi6zTBVcOreFj5SjJ8K0U7JvlJNxf2r8DyxVpShKUJxcZRk4yi1ZxknZxa4NNWPY4mXzpqe4ZsldTtEAGpWAAAD9lFrY00+tWPwAAAABlMoyKriGnbUh6bW9eqvO+AJnXajKMtniaipx2LfKXCEefby/mdLwtCNKEacFaMVZLqXzPly7BU8PBU6ast7fGT9KT4s+xMtrGma9/JcmSTK0ySZ04Wpk0ypM+DOs6pYSGtPbJ/Vgntm/kub/kExG09IM6hg6Wu7ObuoR9KXN+quP8TQdHcqq5pjqOH1pOVarepPjGmvGqVOStFO3XZHwZlj6mJqSq1Xdv2RjwjFcEdy6DNE3hsPLMa0bVK8Uqae+GF3qXbN2fZGHNmPk5vCkz/prw43T8NQhShCnCKjCEVCMVujCKsorqSRYAeE2gAAAAAAABxbpu0Gd5ZrhoX3fSYxW6yssQl7FLul6TO0n5OKkmmk01Zpq6ae9NFmLJOO3lCLRuNPGIOk9KvRzLL5SxmEg3hZO8ora8LJvc/wC7fB8Nz4N82Pbx5K3r5Qy2rMToCdtoB25ZzC5tTqpU8VCL4Kdvjbau1H1z0cozWtSqySe7dOPdu+JrBfhMbUou9ObXNb0+1PYTv5cTWf6ZZr/haX9tH8D/AFLaOia8+vs5Rhb3t/IhhNJ+FWn3w/8Al/qZfD51h57qsV9rxfidRFXEzkhLA5Dh6Vmoaz5z8bvtuXsMsmUUqsZfVlF9jTLkdQqmZntYmTTKZVFHe0u1pHx188w1O+tXg+qL137I3J2REz0yqZPWtte74GpYzTKCuqNKUnzm7Lt1VtfuNczHN6+I/wCpUdvRWyC+7x77nM3h3GKZ7bZnOl1OneGHtUl6XmR7PTfZs6+BpOJxE6snUqScpPe3v/gis2bQTQyvm9fUheFGLXhattlOPox5zfBd72FV8kRG7dL6U16QyXRXoQ80xHhKsX9FoyTqPhWnvWHT69jlyT4OSZ6WjFJJJJJKyS3Jcj4slyqjgqFPDYeChThGyXF8XKT4ybu2+LZ9x4ufNOW2/ZsrXxgABQ6AAAAAAAAAABGpBSTjJJppppq6knsaa4o4h0jdEk6bni8sg5Q2ynh0rzhxbo+lH1d64X3LuILcWW2Od1RasT28YNNNpppp2aexpremgenNNejfBZprVGvA4h/tqcVeTtZeFhsVRbuT2b0cP0r6O8xy3WlOi6tJftqKc4KPOcfrU9m+6t1s9TFyaZPtLPbHMNTB+Jn6aVYAAPyy5EtZ837T8AH5qrkfoAAGZ0c0Vx2YyUcJh5zV7Oo1q0oc9aq9mzkrvkmdo0L6H8NhNWtjnHE1Vt1LeQpv7L21O2Wz1SjLyKY+59XdaTLnPR/0aYnNHGtV16GF3+Ea8esuVGL4es9nK+1HofJ8qoYOjDD4anGnTirJLnxk3vlJ8W9rPsStsR+nlZs9ss+vTRWsVAAUugAAAAAAAAAAAAAAAAAAatpB0e5Xj25VcLCM3+0peTm36Tcdkn9pM0DNugre8Jj9nCNend366sLf6TtALqZ8lOpczWJebcd0P5xS+rSoVv8ADrxX/k1DF1ejnOI78urd0qcvhJnqYF0c7J8Q5/Kq8rw6PM4e7LsR36i+MjIYPonzmo9uFhTXOpXpW9kJSfuPTAJnnZPiD8qrhmV9BeIlZ4rG0YLiqUJVG1y1patn3M3nIuifKcLaUqMsRNccRLXX+Ukoe1M3oFN+Tkt3LqKRCNKnGKUYxUUlZJKyS5JLcSAKHQAAAAAAAAAAAAAAAAAAAAAAAAAAAAAAAAAAAAAAAAAAAAAAAAAAAAAAAAAAAAAAAAAAAAAAAAAAAAAAAAAAAAA//9k=;" parent="WIyWlLk6GJQsqaUBKTNV-1" vertex="1">
          <mxGeometry x="728.37" y="232.75" width="62.03" height="64" as="geometry" />
        </mxCell>
        <mxCell id="ZwWxLaKsashz942m1pMT-28" value="HuggingFace" style="text;html=1;align=center;verticalAlign=middle;whiteSpace=wrap;rounded=0;fontSize=14;" parent="WIyWlLk6GJQsqaUBKTNV-1" vertex="1">
          <mxGeometry x="420" y="403.25" width="60" height="30" as="geometry" />
        </mxCell>
        <mxCell id="ZwWxLaKsashz942m1pMT-27" value="gensim" style="text;html=1;align=center;verticalAlign=middle;whiteSpace=wrap;rounded=0;fontSize=14;fillColor=default;" parent="WIyWlLk6GJQsqaUBKTNV-1" vertex="1">
          <mxGeometry x="730.4" y="199" width="60" height="30" as="geometry" />
        </mxCell>
        <mxCell id="hjRuKn60iCRDdDcoewle-2" value="BERT, Llama, DeepSeek" style="text;html=1;align=center;verticalAlign=middle;whiteSpace=wrap;rounded=0;fontSize=14;" vertex="1" parent="WIyWlLk6GJQsqaUBKTNV-1">
          <mxGeometry x="385" y="300" width="60" height="30" as="geometry" />
        </mxCell>
        <mxCell id="hjRuKn60iCRDdDcoewle-3" value="word2vec, GloVe" style="text;html=1;align=center;verticalAlign=middle;whiteSpace=wrap;rounded=0;fontSize=14;" vertex="1" parent="WIyWlLk6GJQsqaUBKTNV-1">
          <mxGeometry x="610" y="40" width="60" height="30" as="geometry" />
        </mxCell>
        <mxCell id="hjRuKn60iCRDdDcoewle-7" style="edgeStyle=orthogonalEdgeStyle;rounded=0;orthogonalLoop=1;jettySize=auto;html=1;entryX=0.75;entryY=1;entryDx=0;entryDy=0;strokeWidth=4;" edge="1" parent="WIyWlLk6GJQsqaUBKTNV-1" source="hjRuKn60iCRDdDcoewle-6">
          <mxGeometry relative="1" as="geometry">
            <mxPoint x="566.38" y="282.25" as="targetPoint" />
          </mxGeometry>
        </mxCell>
        <mxCell id="hjRuKn60iCRDdDcoewle-6" value="" style="shape=image;verticalLabelPosition=bottom;labelBackgroundColor=default;verticalAlign=top;aspect=fixed;imageAspect=0;image=data:image/png,iVBORw0KGgoAAAANSUhEUgAABLAAAAUHCAYAAABKmZu2AAAABGdBTUEAALGPC/xhBQAAACBjSFJNAAB6JgAAgIQAAPoAAACA6AAAdTAAAOpgAAA6mAAAF3CculE8AAAABmJLR0QA/wD/AP+gvaeTAAAAB3RJTUUH6AcWBx8PqTvilgAAgABJREFUeNrs/Xl0XPWd73t/frtKNUiyARsCnhgSjAlmthlsybIFBnLopv9KWPeeS5Ln9slaeZqcDiYJgSckwSQhCZ0Bm06v9GLl9AA2yY1z+6xzoTsh1yB5NpEBW7LBGHnAgI1s0FzT3rv29/kjIZ2BwcOWVMP79WdiLNV779r79/uWq8oJAAAAqGDFjtalkr4vp3XpIPN1d8PaIaoAAFBfHAkAAABQiYrPtMyRcz+Q9Bf/uXh1b5vsm+mj037kbl1TphIAAPWBARYAAAAqim1oPa0U6m453SlT6j3+1AsWJZZlr1+/nmIAANQ+BlgAAACoCLZcXrGt9Tbn6XsyfegY/7MnzfM+n128fj8FAQCoXQywAAAAMOEKnS3tTm6FTJeeyH8u6eF0gz3gWjeNUBMAgNrDAAsAAAATJr+ubVaiHD1gTp+M4a97w0xfybRvfMw5GXUBAKgdDLAAAAAw7uypG5uKqfxdTrpbUibWv1uuy1z5jsYlm7dQGgCA2sAACwAAAOPGTM5f1/pxk74v09lj+aOcaVXgkl9ubu98k/IAAFQ3BlgAAAAYF37nwqtM3gozLRzHH5sz6fsZJb/r2juLHAUAAKoTAywAAACMqdyvW6YnUu4+RfqMnLwJWvb2OmdfSS/ZuIYjAgBA9WGABQAAgDFhP5+bKp1x2t9I+qakSZWx+rVnXOjdmV66oZsjBABA9WCABQAAgNgVO1tvkWmlpPMq8NcL5fRPgee+Oqltw1GOFgAAlY8BFgAAAGJTWtf2UYuihyTdVAW/7oCk+9NK/oNr7ww5egAAVC4GWAAAADhp9qsFU0qZxH0yfU5Sosp+/Zdl9oXMdZv+gyMJAEBlYoAFAACAE2bb5jWURrK3S1ou6dQqfzhrned9Pr14/UscWQAAKgsDLAAAAJyQYkfrUkkrJM2toYcVyOnH6XzwNXfzs8McZQAAKgMDLAAAAByX4trWC5TQDyT9ZQ0/zLckfSt9dNqP3K1ryhx1AAAmFgMsAAAAHBPrWHJqSeE9kpZJStfJavl5ky3LLtm0gTMAAICJvCUDAAAA78OWyyu2td7mnP5O0pl1muFJU/Jvs+2dBzgjAAAYfwywAAAA8J4Kzyxa7JytlHQZK2flZfr7tJLfcu2do5wdAACM520YAAAA+BP5jiUzExZ+25xuY834Z143072Z9o2POScjBwAAY4/FCAAAAH7PnpjXWGzOftlJd0vKUOR9Wjn9xszuaGzftJUaAACMLQZYAAAAkJmcv67142b6nqRzKHKs4RQ5aXUQBXc1L322jyAAAIwNBlgAAAB1zn+mdV7ktFJSCzVOWM6k72cKk77jbv5liRwAAMSLARYAAECdyq1fNC0R2XJF+oycPIrE4hXndG96ycY1pAAAID4MsAAAAOqM/XxuqnTGaX8jp2/INJkiY+Jpp2hZun3zTlIAAHDyGGABAADUkWJn6y2SVsj0YWqMuVBO/+Rb8t7J7Z1vkQMAgBPHAAsAAKAOlDoWXGhKPCTpY9QYX+bU70zfSCv5D669M6QIAADHjwEWAABADbNfLZhSyiTuk+l2SUmKTKjdku7MtG/8FSkAADg+DLAAAABqkHUsSZYs/Gs5PSDpdIpUlCdV1h2ZpRv3kQIAgGPDAAsAAKDGFJ5ZdL1ztkLSxdSo2FW4L+kf0/nga+7mZ4cJAgDAB906AQAAUBOK69pmK4oekPQJalSNwzItT6/f+BO3XBE5AAB4dwywAAAAqpw9dWNTMZW/y0n3SEpTpCo9F5m7o/G6DZtIAQDAn2OABQAAUKVsubxiW+ttzunvJJ1Jkeo/pJJ+YVF0V/b6za+SAwCA/8QACwAAoAr5Ty+62jxbadK11Ki5FXreTN/LpMsPuoVbCgQBAIABFgAAQFXJdyyZmbDw2+Z0G2u5mve6me7NtG98zDkZOQAA9YxFDwAAQBWwJ+Y1+s3ZvzXpq5KaKVJX1nmKlqXaN28nBQCgXjHAAgAAqHDFztZbZPaw5M6lRp0yRU5aHUTBXc1Ln+0jCACg3jDAAgAAqFD+04uujDxbIWkRNfA7g076bqowaYW7+ZclcgAA6gUDLAAAgAoz3LHk9JQLvybT5yQlKIJ3WcXvkemLmfaNTxIDAFAftz4AAABUBNs2r6E0kr1dTt+QaTJFcAzWOrNl6es27SIFAKCWMcACAACoAMWO1qWSHpb0UWrgOAVy+nHakve59s5BcgAAahEDLAAAgAlUfKZljjzvhzK7mRo4GebU70zfSB+d9iN365oyRQAAtYQBFgAAwASwDa2nlcpaLtPtkpIUQYxekrk7M9dteIoUAIBawQALAABgHFnHkmTJwr+W07cknUERjKEnzfM+n128fj8pAADVjgEWAADAOCk83XadS0QPyXQpNTBOq31f0j+mk/ZV17pphCAAgOq9pQEAAGBMFTsWnC8lvi3pE9TABK36DynS/en1G3/ilisiCACg+m5lAAAAGBP21I1NxVT+LifdLSlDEUz4OSlts8i7o/H69ZupAQCoJgywAAAAYmYmV+xo/aRzelDSWRRBpZ2ikn5hob6UvWHjQXIAAKoBAywAAIAY+Z0LrzJLrDTZAmqgwuVM+n5Gye+69s4iOQAAlYwBFgAAQAzyTy+YkXCJ75jTbayxUGVeM9NXs9dtfJQUAIBKxeIKAADgJNjmBVm/lPi8SfdKmkQRVLEOV3bL0ks3dJMCAFBpGGABAACcoGJn6y0yrZR0HjVQE0yRk1b7QfSlSTdtPkIQAEClYIAFAABwnPx1bVdEVl4hc23UQI0acNKDqaMDD7lbd/nkAABMNAZYAAAAx2h47dVTU8nU12X6nKQERVAHu4U9itwXMtdt+HdiAAAm9pYEAACA92Xb5jWURrK3S7pf0ikUQR1a68rujvTSDS+SAgAwERhgAQAAvI9iR+tSOa2U6SJqoM4FcvpxOsh83d2wdogcAIDxxAALAADgXRTXtl6ghH4o6S+oAfzhBsK9bbJvpo9O+5G7dU2ZIgCA8bn/AAAA4PesY8mpJYX3yOlOmVIUAd7z2fKCRYll2evXr6cFAGCsMcACAACQZMvlFdtab3OevifThygCHLMnTcm/zbZ3HiAFAGCsMMACAAB1r9DZ0u7MPSTpMmoAJ/Y0kvRwusEecK2bRsgBAIgbAywAAFC38uvaZiXK0QPm9ElqALF4w0xfybRvfMw5GTkAAHFhgAUAAOqOPXVjUzGVv8tJd0vKUASI+Tkm12WufEfjks1bqAEAiAMDLAAAUD+bapPz17V+3KTvy3Q2RYCxfco506rAJb/c3N75JjkAACeDARYAAKgLfkfLfHNupZkWUgMYVzmTvp9R8ruuvbNIDgDAiWCABQAAanvn/OuW6YmUu0+RPiMnjyLAhG09ep2zr6SXbFxDCwDAcd9FSAAAAGqR/XxuqnTGaX8j6ZuSJlEEqJQdiD3jXGJZevH6HmIAAI759kECAABQa4qdrbdIWiHTh6kBVKRQTv8UeO6rk9o2HCUHAOCDMMACAAA1o7Su7aMWRQ9JuokaQFUYkHR/Wsl/cO2dITkAAO+FARYAAKh69qsFU0qZxH0yfU5SgiJA1XlZzu7MLNn0S1IAAN4NAywAAFC1bNu8htJw9v+U0wOSTqcIUPXWOs/7fHrx+pdIAQD4QwywAABAVSp2tC6VtELSXGoANSWQ04/T+eBr7uZnh8kBAJAYYAEAgCpTXNc2W1H0gKRPUAOoaW9J+lb66LQfuVvXlMkBAPWNARYAAKgK1rHk1JLCeyQtk5SmCFA3O5bnzXRHtn3jRmIAQD3fDgAAACqYLZdXbGu9zTn9naQzKQLUrSdNyb/NtnceIAUA1B8GWAAAoGIVnlm02DlbIelyagCQU16mv08r+S3X3jlKEACop1sAAABAhcl3LJmZsPDb5nQb6xUA7+J1M92bad/4mHMycgBA7WNBCAAAKoY9Ma+x2Jz9spO+LClLEQAfsJl5tixb1ti+aSs1AKDmr/kAAAATy0zOX9f6cTN9T9I5FAFw7BcQRU5aHUTBXc1Ln+0jCADUJgZYAABgQvnPtM6LnFZKaqEGgJMwatIPMoVJ33E3/7JEDgCoLQywAADAhMitXzQtEdlyRfqMnDyKAIjJK87p3vSSjWtIAQC1gwEWAAAYV7ZtXkNpJHu7nL4h02SKABgjTztFy9Ltm3eSAgCqHwMsAAAwboqdrbfI9JCkj1ADwDgI5fRPviXvndze+RY5AKB6McACAABjrtSx4EJT4iFJH6MGgPFmTv3O9I20kv/g2jtDigBA9WGABQAAxm7T+KsFU0qZxH0y3S4pSREAE2y3pDsz7Rt/RQoAqC4MsAAAQOysY0myZOFfy+kBSadTBECFeVJl3ZFZunEfKQCgOjDAAgAAsSo8s+h65+whSZdQA0AF74R8Sf+Yzgdfczc/O0wQAKj0yzYAAEAMih0LzpcS35b0CWoAqCKHZVqeXr/xJ265InIAQGVigAUAAE6KPXVjUzGVv8tJ90hKUwRAlXouMndH43UbNpECACoPAywAAHBCbLm8Ylvrbc7pQUlnUQRALVzaJP3Couiu7PWbXyUHAFQOBlgAAOC4+U8vuto8W2nStdQAUIO7pLyZvpdR8ruuvbNIEACohEszAADAMco/vWBGwiW+Y063sY4AUAdeN9O9mfaNjzknIwcATBwWngAA4APZE/Ma/ebs35r0VUnNFAFQZ9Z5pjtS123cQQoAmBgMsAAAwPsqdrbeIrOHJXcuNQDULVPkpNVBFNzVvPTZPoIAwPhigAUAAN6V//SiKyPPVkhaRA0A+L1BJ303VZi0wt38yxI5AGB8MMACAAB/ZHjt1VNTydTXZfqcpARFAOBdd1J7ZPpipn3jk8QAgPG47AIAAEiybfMaSiPZ2yXdL+kUigDAMVnrzJalr9u0ixQAMHYYYAEAABU7WpfKaaVMF1EDAI5bIKcfpy15n2vvHCQHAMSPARYAAHWs+EzLHHneD2V2MzUA4OSYU78zfSN9dNqP3K1ryhQBgPgwwAIAoB43WRtaTyuFultOd8qUoggAxOolmbszc92Gp0gBAPFggAUAQB2x5fKKba23OafvSzqDIgAwpp40z/t8dvH6/aQAgJPDAAsAgDpR6Gxpd3IrZLqUGgAwbjsuX9I/ppP2Vde6aYQgAHCil1MAAFDTCv9v69leQt8yp09SAwAmbOd1SJHuT6/f+BO3XBFBAOB4L6MAAKAm2VM3NhVT+bucdLekDEUAoAKuzXJdFrlljdev30wNADh2DLAAAKi1zZHJFTtaP+mcHpR0FkUAoPIu1ZJ+YaG+lL1h40FyAMAHY4AFAEAN8TsXXmWWWGmyBdQAgIqXM+n7GSW/69o7i+QAgPfGAAsAgFrYAf26ZXoy6b5rTrdxfweAqvOamb6avW7jo6QAgHfHAhcAgCpmmxdk/VLi8ybdK2kSRQCgqnW4sluWXrqhmxQA8McYYAEAUKWKna23yLRS0nnUAIAaYYqctNoPoi9NumnzEYIAwG8xwAIAoMr469quiKy8QubaqAEANWvASQ+mjg485G7d5ZMDQL1jgAUAQJUYXnv11FQy9XWZPicpQREAqAsvy9wXM9dt+HdSAKhnDLAAAKhwtm1eQ2kke7uk+yWdQhEAqEtrXdndkV664UVSAKhHDLAAAKhgxY7WpZJWSJpLDQCoe4GcfpwOMl93N6wdIgeAesIACwCAClRc23qBEvqhpL+gBgDgjzdx7m2TfTN9dNqP3K1ryhQBUB/XPgAAUDGsY8mpJYX3yOlOmVIUAQC8z13jBXO6I7tk0wZaAKh1DLAAAKiELchyecW21tucp+/J9CGKAACOw5Om5N9m2zsPkAJArWKABQDABCt0tC5xv/2cq8uoAQA40duJpIfTSn7LtXeOkgNArWGABQDABMmva5uVKEcPmNMnqQEAiMkbZvpKpn3jY87JyAGgVjDAAgBgnNkT8xqLzdkvO+luSRmKAABiv9fIdZkr39G4ZPMWagCoBQywAAAYr82EyfnrWj9u0vdlOpsiAICxvvU406rAJb/c3N75JjkAVDMGWAAAjAO/o2W+ObfSTAupAQAYZzmTvp9R8ruuvbNIDgDViAEWAABjuWP4dcv0RMrdp0ifkZNHEQDABG7/ep2zr6SXbFxDCwBVdwUjAQAA8bOfz02VzjjtbyR9U9IkigAAKmcXaM84l1iWXry+hxgAqubSRQIAAOJV7Gy9RdIKmT5MDQBAhQrl9E+B5746qW3DUXIAqHQMsAAAiElpXdtHLYoeknQTNQAAVWJA0v1pJf/BtXeG5ABQqRhgAQBwkuxXC6aUMon7ZPqcpARFAABV6GU5uzOzZNMvSQGgEjHAAgDgBNm2eQ2l4ez/KacHJJ1OEQBADXhSUbQsc/3mvaQAUEkYYAEAcAKKHa1LJT0k6WJqAABqTCCnH6fzwdfczc8OkwNAJWCABQDAcSiua5utKHpA0ieoAQCocW9J+lb66LQfuVvXlMkBYCIxwAIA4BhYx5LmosIvOekeSWmKAADqaNf4vJnuyLZv3EgMABN3KQIAAO/JlssrtrXe5pz+TtKZFAEA1LEnLYr+e/b6za+SAsB4Y4AFAMB7yD/Tek3CaaVJ11ADAABJTnmZ/j6t5Ldce+coQQCM3+UHAAD8kXzHkpkJC79tTrdxrwQA4F29bqZ7M+0bH3NORg4AY41FOQAAv2NPzGssNme/7KQvS8pSBACAD9xQPls23dF43cZnqQFgjK83AADUNzM5f13rx830PUnnUAQAgOO5kSpy0uogCu5qXvpsH0EAjAUGWACAuuY/0zovclohqZUaAACclFGTfpApTPqOu/mXJXIAiBMDLABAXcqtXzQtEdlymf6bpARFAACIzSvO6d70ko1rSAEgLgywAAB1xbbNayiNZG+X0zdkmkwRAADGzNNO0bJ0++adpABwshhgAQDqRrGz9RaZHpL0EWoAADAuQjn9k2/Jeye3d75FDgAnigEWAKDmlToWXGhK/FDSf6EGAADjz5z6nekbaSX/wbV3hhQBcLwYYAEAanexvKH1tFJZy2W6XVKSIgAATLjdku7MtG/8FSkAHA8GWACAmmMdS5IlC/9aTt+SdAZFAACoOE+qrDsySzfuIwWAY8EACwBQUwpPt13nvGiFpEuoAQBARe9GfUn/mM4HX3M3PztMEADvf8kAAKAGFDsWnC8lvi3pE9QAAKCqHJZpeXr9xp+45YrIAeDdMMACAFQ1e+rGpmIqf5eT7pGUpggAAFXrucjcHY3XbdhECgB/igEWAKAqmckVO1o/6ZwelHQWRQAAqI1bvKRfWBTdlb1+86vkAPAOBlgAgKrjP73oavNspUnXUgMAgJrcqebN9L2Mkt917Z1FggBggAUAqBr5pxfMSLjEd8zpNu5hAADUhdfNdG+mfeNjzsnIAdQvFv8AgIpnmxdk/VLi8yZ9VVIzRQAAqDudnmlZ6rqNO0gB1CcGWACAilbsbL1FZg9L7lxqAABQx0yRk1b7QfSlSTdtPkIQoL4wwAIAVCT/6UVXRp6tkLSIGgAA4A8MOum7qcKkFe7mX5bIAdQHBlgAgIoyvPbqqalk6usyfU5SgiIAAOA9drN7ZPpipn3jk8QA6uEpDwBABbBt8xpKI9nbJd0v6RSKAACAY7TWmS1LX7dpFymA2sUACwAw4YodrUvltFKmi6gBAABOQCCnH6cteZ9r7xwkB1B7GGABACZM8ZmWOfK8H8rsZmoAAICTZU79zvSN9NFpP3K3rilTBKgdDLAAAOO/uNzQelop1N1yulOmFEUAAEDMtpu5ZdnrNqwjBVAbGGABAMaNLZdXbGu9zXn6nkwfoggAABhjT5rnfT67eP1+UgDVjQEWAGBcFDpb2p3cCpkupQYAABjHXa8v6R/TSfuqa900QhCgWp/KAACMofy6tlmJcvSAOX2SGgAAYAJ3v4cU6f70+o0/ccsVEQSotqcwAABjwJ66samYyt/lpLslZSgCAAAqYo0i12WRW9Z4/frN1ACqBwMsAEC8i0KT89e1ftxMP5A0iyIAAKASlyySfmGhvpS9YeNBcgCVjwEWACA2fufCq0zeCjMtpAYAAKgCOZO+n1Hyu669s0gOoHIxwAIAnPzK79ct0xMpd58ifUZOHkUAAECVec1MX81et/FRUgCViQEWAOCE2eYFWb+U+LxJ90qaRBEAAFDlOlzZLUsv3dBNCqCyMMACAJyQYmfrLTKtlHQeNQAAQM0wRU5a7QfRlybdtPkIQYDKwAALAHBc/I6Fl0fOrZS5NmoAAIAaNuCkB1NHBx5yt+7yyQFMLAZYAIBjMrz26qmpZOrrMn1OUoIiAACgTrwssy9krtv0H6QAJg4DLADA+7Jt8xpKI9nbJd0v6RSKAACAOrXWld0d6aUbXiQFMP4YYAEA3lOxo3WppBWS5lIDAABAgZx+nA4yX3c3rB0iBzB+GGABAP5McW3rBUroB5L+khoAAAB/upF2b5vsm+mj037kbl1TpggwHs87AAB+xzqWnFpSeI+kZZLSFAEAAHjf1dML5nRHdsmmDbQAxhYDLACAbLm8Ylvrbc7T92T6EEUAAACOy5Om5N9m2zsPkAIYGwywAKDOFTpal7jffs7VZdQAAAA48WWVpIfTSn7LtXeOkgOIFwMsAKhT+XVtsxLl6AFzuo37AQAAQGzeMNNXMu0bH3NORg4gHmxYAKDO2BPzGovN2S876W5JGYoAAACMwZrL6TemaFnjks1bqAGcPAZYAFAviyiT89e1ftyk78t0NkUAAADGfgnmTKsCl/xyc3vnm+QAThwDLACoA35Hy/xIboWkFmoAAACMu5xJ388o+V3X3lkkB3D8GGABQC2vlNYvmpaIbLkifUZOHkUAAAAmdAve65x9Jb1k4xpaAMf57CEBANQe+/ncVOmM0/5GTt+QaTJFAAAAKmknbs84l1iWXry+hxjAMT5tSAAAtaXY2XqLpBUyfZgaAAAAFSuU0z8FnvvqpLYNR8kBvD8GWABQI0odCy40JR6S9DFqAAAAVI0BSfenlfwH194ZkgN4dwywAKDK2a8WTCllEvfJdLukJEUAAACq0m45+0JmyaZfkgL4cwywAKBKWceSZMnCv5bTA5JOpwgAAEBNeFJRtCxz/ea9pAD+EwMsAKhChWcWXe+crZB0MTUAAABqTiCnH6fzwdfczc8OkwNggAUAVaW4rm22ougBSZ+gBgAAQM07LNPy9FvT/oe7dU2ZHKhnDLAAoApYx5LmosIvOekeSWmKAAAA1NXO/Xkz3ZFt37iRGKjfpwEAoGLZcnnFttbbnNPfSTqTIgAAAHXtSYui/569fvOrpEC9YYAFABUq/0zrNQmnlSZdQw0AAAD8bhefl+nv00p+y7V3jhIE9XPqAwAqSr5jycyEhd82p9u4TgMAAOA9vG6mezPtGx9zTkYO1Do2RgBQIeyJeY1+c/ZvTfqqpGaKAAAA4Bg29c+WTXc0XrfxWWqgxs91AMBEK3a23iLT30s6hxoAAAA4LqbISauDKLireemzfQRBLWKABQATyH960ZWRZysltVIDAAAAJ2nUpB9kCpO+427+ZYkcqCUMsABgAuTWL5qWiGy5TP9NUoIiAAAAiNErzune9JKNa0iBWsEACwDGkW2b11Aayd4up2/INJkiAAAAGENPO0XL0u2bd5IC1Y4BFgCMk999ztVDkj5CDQAAAIyTUE7/5Fvy3sntnW+RA9WKARYAjLFSx4ILTYkfSvov1AAAAMBEMKd+Z/pGWsl/cO2dIUVQbRhgAcBYLRI2tJ5WKmu5TLdLSlIEAAAAFWC3pDsz7Rt/RQpUEwZYABAz61iSLCn4/5pz9zvTFIoAQBwXV0Vy8ggBALFdWP9v8xJ3ZRev308LVAMGWAAQo8LTbdc5L1oh6RJqAEA8O6yoVN5a2j1UsKAx3Tg/c4GkM8gCALFMBHxJ/5jOB19zNz87TBBU9ukKADhpxY4F50uJb0v6BDUAIB4WRS8V9w2H0UjxEgu9rtKO9FVe0uWyizPbMuelrpWUphIAxOKwTMvT6zf+xC1XRA5UIgZYAHAym6unbmwqpvJ3OeluSRmKAEAcF1fr8/vye4LDIy3Sb982+M4A650/kpziHWi+vulw4hRvAcEAIKbLr7TNzC1rvG7DJmqg0jDAAoAT2lvJFTtaP+mcHpR0FkUAIJaVqR+O+lv93oErLLJJf3Td/ZMB1jtS5za80LwkO8kl3fkEBIB4lrqSfmGhvpS9YeNBcqBylgkAgOPidy68yiyx0mS86g8AMYmCclfxlf6zrFSe9a67qfcYYEmSPIXZKzNbspel5jrn+PIMAIhnWpA30/cySn7XtXcWCYKJPyUBAMck//SCGQmX+I453cb1EwBiEmlf6bWh/rC/MP/9/tj7DrB+x8u4gebrm3oapiUWSkoSFwBi8bqZ7s20b3zMORk5MFHYgAHAB7DNC7J+KfF5k74qqZkiABDLKnQgOJLr8d8YWSj74GHTsQyw3pGc6u2bdFNzv9fo5hMaAGLT6ZmWpa7buIMUmJilAwDgPRU7W2+R2cOSO5caABCLMMoHWwp7B+YqjI757X7HM8B6R3pOQ1dTa+NZzmkW2QEgBqbISav9IPrSpJs2HyEIxhMDLAB4F/66tiuiKFopaRE1ACAeUVh+odQ7OCkqBMf9gesnMsCSJOfJz16T3Zqdm7pC0iSOAgDEYtBJ300VJq1wN/+yRA6MBwZYAPAHhtdePTWVTH1dps9JSlAEAGJgdsA/NHI4OJI/4S+/ONEB1jsSTV5f89LGPcnTEy1y8jgoABADpz0yfTHTvvFJYmDsTzcAgGzbvIbSSPZ2SfdLOoUiABDHxVW5YLC4LXh16FozS5/UX3WSA6x3NJyZfGnSTdnQpbxLOEAAEJu1zmxZ+rpNu0iBscIAC0DdK3a0LpXTSpkuogYAxMAUWTHcUuztvyAKozNi+StjGmD9bgVs2bnprdmrM2c7TzM4YAAQi0BOP04Hma+7G9YOkQNxY4AFoG4Vn2mZI+d+IOkvqAEAMYlsV2H/gEXD/sVx/rWxDrDeWQgnlW9cnO3KnJe6WlKWgwcAMVxb5d422TfTR6f9yN26pkwRxHduAUCdsQ2tp5VC3S2nO2VKUQQAYrm6HvYP5fYFfaMLx2KNORYDrHckmhOHJ9+Y3edNSYzJ7w4AdWq7Rd4d2evXrycF4sANGkD9bK2Wyyu2td7mPH1Ppg9RBABiWU3mw6FSV2n/4HxF1jRm1/AxHGC9o+Hshh2TrstmXdJdwIEFgNg8aZ73+ezi9ftJgZNbcgBAHSh0trQ7uRUyXUoNAIhHFJS7iq/0T7dSecw/R2o8BljvPKzs5ektjfMzF0g6g6MMAPEsxyU9nG6wB1zrphFy4EQwwAJQ0/Lr2mYlytED5vRJagBAPCyKdhf3D/nRcGncXhQYxwGWJCmRdkONSxq3p2Ylr5WU5qgDQAycDinS/en1G3/ilisiCI7v9AGAWtxcPXVjUzGVv8tJd0vKUAQAYri2mvWHb+V3+q+PtkiWGNefPc4DrHckTvUOTPpY09FEs3cVZwAAxHRNl+uyyC1rvH79ZmrgWDHAAlBjmys5f13rx036vkxnUwQAYhGEOX+L3ztwhUU2aUKu7xM0wHpH6ryG5ye1ZyfLc+dzOgBAPJd2Sb+IPO+LjYvXv0YOfBAGWABqht+58CqTt8JMC6kBADEJo+cLvf2nRoXwwxO6y5ngAZYkeZ6CzDXZLdmLUpfJ6RRODgCIRc6k72eU/K5r7yySA++FARaA6r/j/bpleiLl7lOkz8jJowgAxMC0v3Rw8K2wv1gRb52rhAHWO7yMG2i+vqmnYVqiRVKCkwUAYvGamb6avW7jo6TAu2GABaB691Y/n5sqnXHa30j6pqRJFAGAWAwGR3Pd/hsjC2VKVsw1v4IGWO9o+FDi5eYbm4pexl3GaQMAselwZbcsvXRDNynwhxhgAahKxc7WW2RaKek8agBALMIoH2wp7B24SGE0tdJ+uUocYL0jPaehq7m18Sw5zeI0AoA4LvqKnLTaD6IvTbpp8xGCQGKABaDKlNa1fdSi6CFJN1EDAGJSLr9Q7B1qLuf92RW7l6ngAZYkOU9+9prs1uxFqSvl1MxJBQCxGHDSg6mjAw+5W3f55KhvDLAAVAX71YIppUziPpk+Jz5vBABiurjqVf/Q8KHgSH5Bxf+qFT7AeofX5PomLW3akzw90cLnMgJAbF6W2Rcy1236D1LULwZYACp7w7JtXkNpJHu7pOWSTqUIAMQiFwwUtwWvDV1jZctUxf2gSgZY70hOS754yo3Zshq8SzjdACA2a13Z3ZFeuuFFUtQfBlgAKlaxo3WppBWS5lIDAGJhVgg3F/cNzI788oeq6hevsgHW71balp2b3pq9OnOO8zSd0w8AYhHI6cfpIPN1d8PaIXLUDwZYACpOcW3rBUroB5L+khoAEA8r24vF/QNRNOJfXJW/fzUOsH7HS7pcdnFmW+a81DWSMpyNAHDynNzbJvtm+ui0H7lb15QpUg/HHAAqZXPSseTUksJ7JC2TlKYIAMTiTf/Q6N6gb3RhNa/9qnmA9Y7EZO/Q5KWN+70piRZOSwCIidPzJluWXbJpAzFq/VADwERvSpbLK7a13uac/k7SmRQBgFgUwuHSb/wDg/OsbFX/rXi1MMB6R8O5ye2T2hsbXcJdwGkKALF50pT822x75wFS1CYGWAAmdnf1zKLFztlKSZdRAwDiEQXlrmJv/1lWLM+qlcdUSwOsdw5T9vL0lsb5mTmSTuesBYB4theSHk4r+S3X3jlKjtrCAAvAhMh3LJmZsPDb5nQb1yIAiEkU7S7sHypFw6Wae1GgBgdYkqRE2g02LmnckTo7uUCmFCcxAMTiDTN9JdO+8THnZOSoDWwaAYzvBuSJeY3F5uyXnfRlSVmKAEAMCzqnfv9Ibqf/+miLZImavH/U6ADrHYnTvP2Tb25+y8u6qzijASCme4fTb8zsjsb2TVupUQPrHRIAGJebh8n561o/bqbvSTqHIgAQiyDM+Vv8vYOXWzmaXNP3kRofYL0jdV7D881Lsqe4hPsIpzcAxHMLcaZVgUt+ubm9801yVC8GWADGnP9M67zIaaUkvnUJAOISRs8XegdOiQpBXQw66mWAJUmepyBzTXZL9qKGy+XcZE52AIhFzqTvZwqTvuNu/mWJHNWHARaAsbtDrF80LRHZckX6jJw8igDAyTOzA/7B4aNhf6Gu3mpWTwOs3y/UM65/0vVNOxumJVokJTj7ASCWq2uvc/aV9JKNa2hRZUeOBABi32T8fG6qdMZpfyOnb8jEK8cAEI+hoD+/PTg4vMDq8MO+63GA9Y6GM5O7m29o8r2MLuVpAAAxcfaMc4ll6cXre4hRJYeMBADiVOxsvUXSCpk+TA0AiIEpsmK4pdDbP8fC6PS6zVDHA6x3pOc0dDW3NE6Tp5k8MQAgFqGc/inw3FcntW04So7KxgALQCxKHQsuNCUekvQxagBAPKIg2l7aP9AY5YIL6r0FA6zfLd6TKjQuzP4mMzs1X05NPEsAIBYDku5PK/kPrr0zJEeF3gNJAOCkNhS/WjCllEncJ9PtkpIUAYA4Lq52yD+c2x/0jfLlF+8kYYD1R7wm9+YpNzXt9aYkFrKmB4DY7JazL2SWbPolKSoPNzsAJ7aR6FiSLFn413J6QNLpFAGAWOSCgeK24LWha6xsGXL8wX2HAda7Sk9P7mpe2mhKuYupAQCxeVJRtCxz/ea9pKgcDLAAHLfCM4uud85WSGKxDADxsKhU3lp4pf8cBeXp5HiXQAyw3m9Fb9nL0psb56Vny7kPEQQAYhHI6cfpfPA1d/Ozw+SohNsdAByj4rq22YqiByR9ghoAEA8rRy8V9w+H0UjxEmq8TycGWB/IS7pcdnFmW+a81LWS0hQBgFgclml5+q1p/8PduqZMjonDAAvAB28anrqxqZjK3+Wke1gQA0BM11azvqAvvyc4PNIiyaPIB/RigHXMEqd6r066oelQ4hRvATUAICZOz5vpjmz7xo3EmKhDAADvtVlYLq/Y1nqbc/o7SWdSBABiWX354ai/1d87cKWVrZkgx3hPYoB13FLnNrzQvCTT7JLebGoAQGyetCj679nrN79KivFeQgHAu/CfXnS1ebbSpGupAQDxiIJyV/GV/rOsVJ5FjePDAOsEeQqzV2a2NF2Wusicm0oQAIiBU16mv08r+S3X3jlKkPHKDgB/IP/0ghkJl/iOOd3GNQIA4mGR7SsdHB4oDxTmUeMEGzLAOimJtBtsWtrU3TAtsVBSkiIAEIvXzXRvpn3jY87JyDG22JwC+O3G4Il5jX5z9m9N+qok3tICAPGstAaCI7ke//XRFskSBDmJ+xQDrFgkp3r7Jt3Y3O81ufnUAIC4bvd6tmy6o/G6jc9SY0w7A6h3xc7WW2T2sOTOpQYAxCKI8sHWwt6BuQqjKeQ4eQyw4pWe09DV1NJ4pvN0NjUAII4blSInrQ6i4K7mpc/2ESR+DLCAOuY/vejKyLMVkhZRAwBiEkbPF3sHJpcLwfnEiHFfwAArdp6nIHNNdkt2buoKSZMoAgCxGDXpB5nCpO+4m39ZIkd8GGABdWi4Y8npKRd+TabPSeItLQAQB7MD/qGRw8GR/AJijEFeBlhjJtHk9TUvbdyTPCOxkHUBAMTmFed0b3rJxjWkiAcDLKCeFv/b5jWURrK3y+kbMk2mCADEYijoz28PDo5ca2ZpcozRPYwB1phrODP50uQbmwKldSk1ACA2TztFy9Ltm3eS4uQwwALqRLGjdamkhyV9lBoAEANTZMVwS7G3/4IojM4gyBjnZoA1XrsDy85Nb81enTnbeZpBEACIRSinf/Itee/k9s63yHGitygANa34TMsced4PZXYzNQAgJuVoR7F3IFPOB3OIMT4YYI3zJiGpfOPibFfmvNTVkrIUAYAY7mVO/c70jfTRaT9yt64pU+Q4700kAGr04rih9bRSqLvldKdMKYoAQCxX18P+ody+oG90IeuocS7PAGtCJJoThyffmN3nTUlwzgNAfF6S9IVM+8ZfkeLYcRMCam2B37EkWbLwr+X0LUm8pQUA4lkx5YP+YldwcOhqi4x/jTIR9zcGWBMqOT2x65SlTVLKzaUGAMTmSZV1R2bpxn2kOJblGICaUXi67TqXiB6S8eGrABATi0rlrcW9/WdbqcznAU3kgWCAVQmi7OXpLY3zMxeIF8kAIB5OvqR/TOeDr7mbnx0myPulAlD1ih0LzpcS35b0CWoAQDwsil4q7hsKo5HSJdSogOPBAKtyNhANLtfYltmWOS91rSS+eRMAYrm46pAi3Z9ev/EnbrkigrxbIgDVu5h/6samYip/l5PulpShCADEcXG1Pr8vvyc4PNIiySNIhRwWBlgVJznFO9B8fdPhxCneAmoAQEz3O2mbmVvWeN2GTdT4YwywgKrcW8kVO1o/6ZwelHQWRQAgFkGY87f4vQNXWGSTyFFh9z4GWBUrdV7D882Ls5Nd0p1PDQCI57Yn6RcW6kvZGzYeJMdvMcACqozfufAqs8RKk/FqJwDEJArKXcXegTOtGJ5NjQpdyTPAqmiepyB9ZWZr9rLUXOfcFIoAQAyc8mb6XkbJ77r2ziI5AFSF/NMLZiRc4jvmdBvPXQCISaR9pdeG+sP+wnxiVDYGWNXBy7iB5uubehqmJVokJSgCALF4zUxfzbRvfMw5Wb1GYBMMVPqCffOCrF9KfN6keyXxlhYAiGcFNBAcyfX4b4wslClJkCq4HzLAqiqJqYl9k29qGvAa3TxqAEBsOj3TstR1G3fU5/INQMUqdrbeItNKSedRAwBiEUb5YEth78BFCqOp5KgeDLCqU3pOQ1dTa+NZzmkWNQAgjhuiIiet9oPoS5Nu2nyknh46AyygAvnr2q6IrLxC5tqoAQDxiMLyC/7eoeZy3p9NjSpcrzPAqt4Nhyc/e012a/ai1JVyaqYIAMRi0EnfTRUmrXA3/7JUF/cTjjlQOYbXXj01lUx9XabPic+NAIB4mF71Dw0fCo7k+fKLaj6MDLCqntfk+iYtbdqTPD3RIiePIgAQA6c9Mn0x077xydp/qAAmflG+bV5DaSR7u6T7JZ1CEQCIRS4YKG4LXh261szS5KjyeyUDrJrRcGbypckfy4Zq8C6hBgDEZq0zW5a+btOuWn2ADLCACVbsaF0qp5UyXUQNAIiFWSHcXNw3MDvyyx8iR40cVAZYtbYLsezc9Nbs1ZlznKfpBAGAWARy+nE6yHzd3bB2qPZuHQAmRHFt6wVK6IeS/oIaABCTyHYV9g9YNOxfTIzawgCrNrmk8o2Ls12Z81LXSMpQBABiuLbKvW2yb6aPTvuRu3VNuXYeF4DxXYB3LDm1pPAeOd0pU4oiABCLN/1Do3uDvtGFrG9q9P7JAKumJSZ7hyYvbdzvTUm0UAMAYrt7vmBRYln2+vXra+HRsMADxuvSsVxesa31NufpezLxlhYAiEchHC79prR/cL4iayJHDd9HGWDVhdQ5ye3N7Y2NLukuoAYAxOZJ87zPZxev31/ND4IBFjAeu6vOlnZn7iFJl1EDAOIRBeWu4p7+aeaXZ1Kj9jHAqq+nd/by9JbG+Zk5kk4nBwDEsy2V9HC6wR5wrZtGqvEBMMACxlB+XdusRDl6wJw+SQ0AiIdF0e7i/iE/Gi5dSo06Ou4MsOpOIu2GGpc0bk+dnVzAxy4AQEycDinS/en1G3/iliuqrl8dQPyL7CfmNRabs1920t3iA0kBIJ5Fi1O/fyS30399tEWyBEXq7N7KAKtuJU71Dky+uemo1+hx/AEgrvuqXJdFblnj9es3V81akMMGxHgRMDl/XevHTfq+TGdTBABiEYQ5f4u/d/ByK0eTyVGn91gGWHUvdV7D85Pas5PlufOpAQDx3F4l/SLyvC82Ll7/WqX/sgywgJj4HS3zzbmVZlpIDQCISRg9X+gdOCUqBB8hRp2vsBlgQZLnKchck92SvajhcjnHQBsA4pEz6fsZJb/r2juLlfpLMsACTvaZ/uuW6YmUu0+RPiMnjyIAEAPT/tLBwbfC/iIDC/z2lGCAhT/cxGRc/6Trm3Y2TEu0SOItxQAQj9fM9NXsdRsfrchrP8cHOMGF9M/npkpnnPY3kr4paRJFACAWg0F/fkdwcHiB8aHN+MP7LgMsvIuGs5K7J9/QWFLa8U3PABCfDld2y9JLN3RX0i/FAAs4AcXO1lskrZDpw9QAgBiYIiuGW/K9/RcqjKYSBH92ijDAwvtIz2noam5tPEtOs6gBAPGszZy02g+iL026afORSviVGGABx6G0ru2jFkUPSbqJGgAQjyiItvv7BhvLef8CauA919EMsPBBG5ukCo0Ls7/JzE7Nk1MzRQAgFgNOejB1dOAhd+suf0Kv8xwL4BgWzb9aMKWUSdwn0+fE5ywAQEwXVzvkH87tD/pGW4iBDzxdGGDhGHlN7s1Tbmra601JLGS/AwCxeVlmX8hct+k/JuoX4IIOvN9iedu8htJw9v+U0wOSTqcIAMQiFwwUtwWvDV1jZcuQA8d0T2aAheOUnJZ8cfLSxsil3cXUAIDYrHVld0d66YYXx/sHM8AC3kOxo3WppBWS5lIDAGJhUam8tbi3/xwrlaeTA8d18jDAwontdix7WXpz47z0bDn3IYIAQCwCOf04HWS+7m5YOzR+l3QAf6S4rm22ougBSZ+gBgDEw8r2YnH/QBSN+PxLCJzYOcQACyfBS7pcdnFmW+a81DWS+JefABADJ/e2yb6ZPjrtR+7WNeWx/3kAfrsw7lhyaknhPZKWSUpTBABiuLaa9QWHc71B3yifRYOTO5cYYCEGiVO9Vyfd0HQocYq3gBoAEBOn5022LLtk04ax/TFAvS+Il8srtrXe5pz+TtKZFAGAWBTC4dJv/AOD86xsfBsYTv5+zQALMUqd2/BCc3u2ySUc334KAPF50pT822x754Gx+MsZYKG+d1fPLFrsnK2QdDk1ACAeUVDuKvb2n2XF8ixqIC4MsBA7T2H2ysyWpstSF5lzUwkCAPFssyU9nFbyW669czTOv5gBFupSvmPJzISF3zan23geAEBMomh3Yf9QKRouXUYMxI0BFsZKIu0GG5c07kidnVwgU4oiABCLN8z0lUz7xseck8XxF7JxR30tfp+Y11hszn7ZSV+WlKUIAMSwmHDq94/kdvqvj7ZIlqAIxuQezgALYyxxmrd/8s3Nb3lZx3kGAHHdv51+Y2Z3NLZv2nrSa05yoi6eNCbnr2v9uJm+J+kcigBALIIw52/x9w5ebuVoMjkwpvdyBlgYJ6nzGp5vXpw91SXdh6kBAPHcxp1pVeCSX25u73zzRP8SBlioef4zrfMip5WSWqgBADEJo+eLvQOTy4XgfGJgXFa+DLAwjjxPQeaa7Jbs3NQVkiZRBABikTPp+5nCpO+4m39ZOt7/mAEWaveZsX7RtERkyxXpM3LyKAIAJ8/MDvgHh4+G/QUGCRjfc48BFiZCxvVPvr5pZ8O0RIsk3iINALFwvc7ZV9JLNq45rv+KcKi5Be62eQ2lkeztcvqGTLylBQDiMRT057cHB0euNbM0OTDu93cGWJhADWcmd0++sclXWpdSAwBi4uwZ5xLL0ovX9xzTH6cYakmxs/UWmR6S9BFqAEAMTJEVwy2F3v45FkanEwQTdioywEIFSM9p6GpuaZwmTzOpAQCxCOX0T4HnvjqpbcPR9/uDDLBQE0odCy40JR6S9DFqAEBcy4loe2HfQGOUCy4gBiYaAyxUCpdUvnFhtiszOzVfTk0UAYBYDEi6P63kP7j2zvBdr780QlUvZn+1YEopk7hPptslJSkCAHFcXO2Qfzi3P+gbXchaARVzWjLAQoVJNCcOT74xu8+bkuBaCQDx2S1nX8gs2fTLP/0/uNCiOhexHUuSJQv/Wk7fknQGRQAgBk75oL/YFbw2dI2VLUMQVNS9nwEWKlR6enJX89JGU8pdTA0AiM2TiqJlmes37/3PpSpQZQrPLLreOXtI0iXUAIB4ZgNRqby18Er/OQrK08mBijxJGWChskXZy9NbGudnLhAvrgJAXAI5/TidD77mbn52mAEWqkZxXdtsRdEPJN1CDQCIa8tluwp7BxSN+nOJgUrGAAvVwKVcrrk92506u2GeTCmKAEAsDpvs/8cAC5W/YH3qxqZiKn+Xk+6RxFe3A0AsF1fr8/vye4LDIy2SPIKg4k9ZBlioIskp3oHm65sOJ07xFlADAE5yDVC2F4v7h8oMsFDBeyu5YkfrJ53Tg5LOoggAxMDJD0f9rX7vwBUW2SSCoGrWBQywUIVS5za80LwkO8kl3fnUAIDjnQlYX/AHL7gywEJF8p9edLV5ttKka6kBAPGIgnJX8ZX+s6xUnkUNVN0ilgEWqpWnMHtlZkv2stRc59wUggDAByqEw6Xf+AcG51nZmt/5HxlgoaLkn14wI+ES3zGn2zg/ASAmkfaVXhvqD/sL84mBasUAC9XOy7iB5uubehqmJRZKSlIEAN5l2RqUu4q9/WdZ8c9fcGVAgMpYlD4xr9Fvzv6tSV+V1EwRAIiB00BwJNfjvzGyUMZmCVW+VmCAhRqRnOrtm3RTc7/X6HhRAQDeuc9H9nJx/2AxGi5d9t5LW2CCFTtbb5HZw5I7lxoAEIswygdbCnsH5iqMeLsKamNhywALNSY9p6GrqbXxLOfE27oB1C3n1O8fye30Xx9tkSzxvn+WXJgo/tOLrow8WyFpETUAIB5RWH6h1Ds4KSoEfGAwagoDLNTkxs2Tn70muzU7N3WFJL5YA0A9CcKcv8XfO3i5laPJx3TNpBnG2/Daq6emkqmvy/Q5SQmKAEAcu3s74B8aORwcyfOV7ajNU5wBFmpYosnra17auCd5eqJFTh5FANS0MHq+2DswuXycL7gywML4LTy3zWsojWRvl3S/pFMoAgBxXFyVCwaL24JXh641szRBULOnOgMs1IGGM5MvTbopG7qUdwk1ANTcvdzsgH9w+GjYXzih+zkDLIyLYkfrUjmtlOkiagBAHCsARVYMtxR7+y+IwugMgqDmT3kGWKgXTpadm96avTpzjvM0nSAAasBQ0J/fHhwcOakXXBlgYUwVn2mZI8/7ocxupgYAxCSyXYW9A4pG/bnEQL1ggIV645LKNy7OdmXOS10jKUMRANV38/7tC66F3v45Fkann/R1kaIYk/N0Q+tppVB3y+lOmVIUAYBYrq6H/UO5fUHf6ELu4ai7s58BFupUojlxePKN2X3elATXfgDVI4y2F/YNNEa54IK4/kougIh3cblcXrGt9Tbn9H1JvKUFAOK5W+fDoVJXaf/gfEXWRBDU5RqDARbqXOqc5Pbm9sZGl3QXUANABd+xx+wFVwZYiE2hs6Xdya2Q6VJqAEA8oqDcVXylf7qVyjOogbpeDjPAAiQpyl6e3tI4PzNH0unkAFAxnPJBf7EreG3oGitbZmx+BHCSCv9v69leQt8yp09SAwBi2qxH0e7i/iE/Gi7xogAgBljAH0qk3VDjksbtqVnJayXxDbQAJnbZWipvLbzSf46C8ph+8QQDLJz4WfrUjU3FVP4uJ90tPlgSAOK5tpr1h2/ld/qvj7ZIlqAI8LvnBgMs4M8kTvUOTPpY09FEs8dzA8D435vL0UvF/cNhNFK8ZDx+HgMsnMDmSq7Y0fpJ5/SgpLMoAgCxCMKcv8XvHbjCIptEDuBP1h8MsID3lDqv4flJ7dnJ8tz51AAwDkOBPr8vvyc4PNIiyRuvH8sAC8fF71x4lVlipckWUAMA4hEF5a5i78CZVgzPpgbwHmtlBljA+/I8BZlrsluyFzVcLucmUwRA7Jz8cNTfOlEvuDLAwjHJ/bplejLpvmtOt3HeAEBcO3LtLx0cejvsL8wnBvABTxcGWMCxbfAyrn/S9U07G6YlWiTxVnQAsfjdFwudZaXyrAm7vnEY8L6Lxc0Lsn4p8XmT7pXEW1oAIB6DwdFct//GyEKZkuQAjmFNwgALOC4NH0q8PPmmpqLS7jJqADhhkfaVXhvqr4QXXBlg4T0VO1tvkWmlpPOoAQCxCKN8sKWwd+AihdFUcgDHjgEWcGLScxq6mlsbz5LTLGoAOGZOA8GRXE8lveDKAAt/xl/XdkVk5RUy10YNAIhJufxCsXeouZz3ZxMDOH4MsICT2PQlVWhcmP1NZnZqnpyaKQLgfbzzgutchdGUirqWcWzwjuG1V09NJVNfl+lz4v3yABDTrluv+oeGDwVH8nz5BXAyTyUGWMBJ85pc36SlTXuSpyda5Mbvm8MAVIcoLL9Q6h2cFBWCivxGUwZYkG2b11Aayd4u6X5Jp1AEAGKRCwaK24LXhq6xsmXIAZzkeoUBFhCb5LTki6fcmC2rwbuEGgBkdsA/NHK40l9wZYBV54odrUslrZA0lxoAENMSoBBuLu4bmB355Q+RA4jpicUAC4h7J2jZuemtjVdnzpGn6QQB6vHmqlwwWNwWvDp0rZmlK/+yhbpUXNt6gRL6oaS/oAYAxLQGKNuLxf0DUTTiX0wNIObnFwMsYEx4SZfLLs5sy5yXukYS/2IYqIubqiIrhluKvf0XRGF0RrX82gyw6u087VhyaknhPXK6U6YURQAgFm/6h0b3Bn2jC7m3AmO0hmGABYypxGTv0OSljfu9KYkWagA1LLJdhb0Dikb9qnsXFovseln0LZdXbGu9zXn6nky8pQUA4lEIh0u/8Q8MzrOy8a1OwFiuZRhgAeOi4dzk9kntjY0u4S6gBlBTd9LD/qHcvmp+wZUBVj3srjpal7jffs7VZdQAgHhEQbmruKd/mvnlmdQAxmHZzQALGNfbXPby9JbG+Zk5kk4nB1DFnPLhUKmrtH9wviJrqu6HgpqVX9c2K1GOHjCnT1IDAOJa0ke7C/uHStFwiRcFgHHEAAsYf4m0G2xc0rgjdXZyAR8/AlThsjUodxVf6Z9upfKMWng8DLBqcYH3xLzGYnP2y066W3wQIwDEc8N06veP5Hb6r4+2SJagCDDO6xsGWMCESZzm7Z98c/NbXtbxHASq4Z4ZRbuL+4f8aLh0aU2txzm0NXSSmpy/rvXjJn1fprMpAgCxCMKcv8XfO3i5laPJ5AAmaJ3DAAuYcKnzGp5vXpI9xSXcR6gBVOJMwPrDt/I1+4IrA6wa4Xe0zDfnVpppITUAICZh9Hyhd+CUqBCwUAcmelHOAAuoCJ6nIHNNdkv2oobL5Rwv7ACV4bcvuPYOXGGRTarVB8kAq8rlft0yPZFy9ynSZ+TkUQQAYtgomx3wDw4fDfsLbJaBSnleMsACKmsjmXH9k65v2tkwLdEiibfWAxMkCspdxd6BM60Y1vy7sBhgVesi7udzU6UzTvsbOX1DJl75AIB4DAX9+e3BweEFxofVApW19mGABVSkhjOTu5tvaPK9jC6lBjCeN0btLx0cejvsL8yvl4fMAKsKFTtbb5G0QqYPUwMAYlkARFYMtxR6++dYGPF14UAlPk0ZYAEVLT2noau5pXGaPM2kBjCmBoOjuW7/jZGFMiXr6YEzwKoipXVtH7UoekjSTdQAgHhEQbTd3zfYWM77F1ADqFwMsIAq2FwmVWhcmP1NZnZqvpyaKALEKozywZbC3oGLFEZT6/IawzlQBQu2Xy2YUsok7pPpc+L95QAQ08XVDvmHc/uDvtEWYgBV8JRlgAVUDa/JvXnKTU17vSmJhew5gRiUyy8Ue4eay3l/dj1n4GJSyQu1jiXJkoV/LacHJPGWFgCIRy4YKG4LXhu6xsqWIQdQJesiBlhA1UlPT+5qXtpoSrmLqQGcyM1Pr/qHhg8FR/ILiMEAq2IVO1qXSnpIEhd7AIhpCRCVylsLr/Sfo6A8nRxAlT2BGWAB1brjtOxl6c2N89Kz5dyHCAIcE15wfdfLCSpKcV3bbEXRA5I+QQ0AiGnjW45eKu4fDqOR4iXUAKr0ecwAC6hqXtLlsosz2zLnpa6VlKYI8O63OyuEm4v7BmZHfpmB759ggFUpZ2nHkuaiwi856R4u6AAQ1wrA+oK+/J7g8EiLJI8iQBU/nxlgATUhcar36qQbmg4lTvF4SxTwh/e5sr1Y3D8QRSM+78J6DwywJvokXS6v2NZ6m3P6O0lnUgQAYrm7+eGov9XfO3Clla2ZIEANrJkYYAE1JXVuwwvNSzLNLunNpgbq3Jv+odG9Qd8oX3rwgUt8TJj8M63XJJxWmnQNNQAgHlFQ7ir29p9lxfIsagC1gwEWUIM8hdkrM1uaLktdZM5NJQjqTCEcLv2mtH9wviJrIscHY4A1AfIdS2YmLPy2Od3GMQCAmDa3ke0rHRweKA8U5lEDqMHnOAMsoGZ5GTfQfH1TT8O0xEJJSYqg1kVBuau4p3+a+eWZ1Dh2DE/Gc+H1xLzGYnP2y076sqQsRQAgljvZQHAk1+O/PtoiWYIgQI2uoxhgATUvOdXbN+nG5n6vyc2nBmpSFO0u7B/yo+HSpcQ4kWU/xn7BZXL+utaPm+l7ks6hCADEIojywdbC3oG5CqMp5ABqfD3FAAuoG+k5DV1NLY1nOk9nUwO1wDn1+0dyO3nB9SQ7kmBs+c+0zoucVkhqpQYAxCSMni/2DkwuF4LziQHUBwZYQH3xPAWZa7JbsnNTV0iaRBFUqSDM+Vv8vYOXWzmaTI6TwwBrjOTWL5qWiGy5TP9NEhNWAIhlB2sH/EMjh4Mjeb56G6i3pz8DLKAuJZq8vualjXuSpyda5ORRBFUjjJ4v9A6cEhWCjxAjHgyw4l5cbZvXUBrJ3i6nb8jEhBUA4jEU9Oe3BwdHrjWzNDmAOlxjMcAC6lrDmcmXJt3UFLqULqEGKvuGpf2lg0Nvhf0F7lkxY4AVo2Jn6y0yPSSJCSsAxLMAiKwYbin29l8QhdEZBAHq+HLAAAuAk2Xnprdmr86c7TzNIAgqzGDQn98RHBxeYKYUOcbiEoCTVupYcKEp8UNJ/4UaABCTcrSj2DuQKeeDOcQAwAALwO83sUnlGxdnuzLnpa4W3+6OCb9B/fYF10Jv/xwLo9MJMobPfRKcxHm6ofW0UlnLZbpdUpIiABDL1fWwfyi3L+gbXch9CsDvrwwMsAD8iURz4vDkG7P7vCkJ1gyYEFEQbff3DTaW8/4F1Bh7PMlPZAHVsSRZsvCv5fQtSbylBQDiuSPlg/5iV3Bw6GqLjFdTAfzx+osBFoD30HB2w45J1zVmXFL8q22M003JDvmHc/uDvtEWYozndgHHpfB023XOi1ZIfHggAMS1BIhK5a3Fvf1nW6nM51kAePcLBQMsAO8vyl6e3tI4P3OB+EcGGDu5YKC4LXht6BorW4Yc44sB1jEqdiw4X0p8W9InqAEAMW1Io+il4r6hMBop8aIAgPe/XjDAAnAsG9wGl2tsy2zLnJe6VhLfXIz4lq2l8tbCK/3nKChPJ8cEPb9J8AFn6VM3NhVT+bucdA8XQACI6+JqfX5ffk9weKRFkkcQAB942WCABeA4JKd4B5qvbzqcOMVbQA2c1P2nbC8W9w+Vo5EiL7hOMAZY77m3kit2tH7SOT0o6SyKAEAsgjDnb/F7B66wyCaRA8Axr80YYAE4AanzGp6f1J6dLM+dTw0c30zA+gJecK0oDLDehf/0oqvNs5UmXUsNAIhHFJS7ir0DZ1oxPJsaAI57I8EAC8AJ8jwF6SszW7OXpeY656ZQBO/LyQ9H/a3+3oErrWzNBKmkQ4Pfyz+9YEbCJb5jTrfRBgBiEmlf6bWh/rC/MJ8YAE4UAywAJ8vLuIHm65t6GqYlWiQlKII/W7YG5a5ib/9ZVizPokblYUgjyTYvyPqlxOdN+qokJqwAEM8dZiA4kuvx3xhZKFOSIABOar3GAAtATBJTE/sm39Q04DW6edSAJFlk+0oHhwfKAwXOiYreXtS5YmfrLTJ7WHLncjoAQCzCKB9sKewdmKsw4p/pA4hnc8EAC0DM0nMauppaG89yTvxrm3r1zguur4+2SMa/yqv4w1Wn/KcXXRl5tkLSIk4DAIhHFJZf8PcONZfz/mxqAIgTAywAY7Ih9uRnr8luzV6UulKOd+PUkd9+sdC+wcssjE4hR5U8X+vtAQ+vvXpqKpn6ukyfE+97BoCYdpZ61T80fCg4kuerqgGMzWWGARaAMeQ1ub5JS5v2JE9PtMjxjXM1LYyeL/YOTC4XAr6ZssrUzQDLts1rKI1kb5d0vyQmrAAQj1wwUNwWvDp0rZmlyQFgzNZyDLAAjIOGM5MvTf5YNlSDdwk1auw+YnbAPzh8NOwvcC+pUnUxwCp2tC6V00qZLuKQA0BMa4BCuLm4b2B25Jc/RA4AY37RYYAFYPx2yZadm96avTpzjvM0nSBVbyjoz28PDo7wgmvVPzVrWPGZljnyvB/K7GYONQDEJLJdhf0DFg37FxMDwHhhgAVgvHlJl8suzmzLnJe6RlKGItV241BkxXBLsbf/giiMziBI9avJAZZtaD2tFOpuOd0pU4rDDACxeNM/NLo36BtdKL7FFsB4r+8YYAGYIInJ3qHJSxv3e1MSLdSoEuVoR2HvQDbKBRcQo3bU1AbElssrtrXe5jx9Tybe0gIA8dwp8uFQqau0f3C+ImsiCIAJWecxwAIwwRrOTW6ftKSx0SUdQ5HKvVsc9g/l9vGCa61uS2pEobOl3cmtkOlSDisAxCMKyl3FPf3TzC/PpAaACd2SMMACUCHLo+zl6S2N8zNzJJ1OjgrhlA/6i13BwaGrLbIsQWr1MFe5/Lq2WYly9IA5fZLDCQAxbRSjaHdx/5AfDZd4UQBAZVyXGGABqCCJtBtqXNK4PXV2cgEfWzPBy9ZSeWtxb//ZVirPIEdtq9oBlj11Y1Mxlb/LSXeLD9QDgHhuCk79/pHcTv/10RbJEhQBUDFrPwZYACpQ4lTvwOSbm456jR7Xp/G+L0TRS8V9w2E0UryEGnWyV6m6k9Tk/HWtHzfTDyTN4hACQCyCMOdv8fcOXm7laDI5AFTcGpABFoAKljqv4fnmJdlTXMJ9hBpjPhTo8/vye4LDIy2SPILUj6oaYPmdC68yeSvMtJBDBwAxCaPnC70Dp0SFgAUXgMrdrzDAAlDhPE9B5prsluxFDZfLOV4QjJuTH476W/3egSssskkEqcdToArkft0yPZFy9ynSZ+SYsAJAPLtB7S8dHHwr7C+yIQRQ+ZcsBlgAqmWTnXH9k65v2tkwLdEiiY9kiEEUlLuKr/SfZaUy78Kq5+dWRS9UNi/I+qXE5026VxITVgCIx2DQn98RHBxeYHzoKIAqwQALQLVpOCu5e/INjSWl3WXUOEGR9pVeG+oP+wvziYGKHWAVO1tvkWmlpPM4TAAQx+5PkRXDLfne/gsVRlMJAqCqLmEMsABUqfSchq7m1saz5PgM52PmNBAcyfX4b4wslClJEPz2tKgwfsfCyyPnVspcG4cHAOIRBdF2f99gYznvX0ANANWIARaAqt54J1VoXJj9TWZ2ap6cminynsIoH2wp7B2YqzCaQg780fOoUn6R4bVXT00lU1+X6XPifcIAENOOzw75h3P7g77RFmIAqOrLGQMsADXAa3JvnnJT015vSmKhquxL1cZaFJZfKPUOTooKwfnUwLuZ8CeMbZvXUBrJ3i7pfkmncEgAIBa5YKC4LXht6BorW4YcAKodAywAtSQ5Lfni5KWNkUu7i7nA2wH/0Mjh4Eh+AWcG3s+EDrCKHa1LJa2QNJdDAQAxLQEK4ebivoHZkV/+EDkA1MzFjQEWgNrbjVv2svTmxnnp2XKuHtdtv33B9dWha80szQmBD37KTIDi2tYLlNAPJP0lhwAAYtrcle3F4v6BKBrxeSUPQO1d4xhgAahRXtLlsosz2zLnpa6RVPv/cv53XyxU7O2/IAqjMzgDcKzGdYBlHUtOLSm8R9IySUxYASCOa6tZX3A41xv0jfJZCgBq91rHAAtAjUuc6r066YamQ4lTvNp9K11kuwr7Bywa5gVXHL9x2ejYcnnFttbbnKfvycRbWgAgHoVwuPQb/8DgPCsb32YDoKYxwAJQL1LnNrzQvCTT7JLe7Bq6ih/2D+X28YIrTsaYnziFjtYl7refc3UZuQEgHlFQ7ir29p9lxfIsagCoBwywANQVT2H2ysyWpstSF5lzU6v2cTjlw6FSV2n/4HxF1sSBxcmdTmMk37FkZsLCb5vTbWLCCgDxiKLdhf1DpWi4xIsCAOoKAywA9SiRdoNNS5u6G6YlFkpKVtWyNSh3Fff0TzO/PJMjiTjEPliyJ+Y1FpuzX3bS3aqHD6ADgPG4WDv1+0dyO/3XR1skS1AEQL1hgAWgniVO8/ZP/ljz216Tm1/x1+so2l3cP+RHw6VLOXKIdU8U20lqcv661o+b9H2ZziYtAMQiCHP+Fn/v4OVWjiaTA0C9YoAFAFJ6TkNXU0vjmc6rvD23mfWHb+V5wRVjJpYBlt/RMj+SWyGphaQAEJMwer7YOzC5XAjOJwaAescACwB+y/MUZK7JbsnOTV0haVIF/Eq/fcG1d+AKi2wSRwhj5aQGWLn1i6YlIluuSJ+Rk0dOAIhhk2Z2wD84fDTsL7BRA4B3ro0MsADgj2Vc/+Trm3Y2TEu0SJqYf/EURs8XevtPjQrhhzkgGGsnNMCyn89Nlc447W/k9A2ZeEsLAMRjKOjPbw8ODi8wU4ocAPAH608GWADwrhrOTO6efGOTr7TG7zOnTPtLBwffCvuLXJcxbo57gFXsbL1F0gqZmLACQDwLgMiK4ZZCb/8cC6PTCQIA73KpZIAFAO/rd5+PNd15mjGGP2YwOJrr9t8YWSirrm9FRPU75gFWqWPBhabEQ5I+RjYAiEkYbS/sG2iMcsEFxACA98YACwCOYYOfVL5xYbYrMzs1X05Nsa5a88GWwt6BixRGUymNCTm/P3Cx8KsFU0qZxH0y3S4xYQWAeHZidsg/nNsf9I3y5RcAcCyXTQZYAHDMEs2Jw5NvzO7zpiQW6mS/vK1cfqHYO9RUzvu84IoJ9Z4nsnUsSZYs/Gs5PSCJt7QAQDxX3XzQX+wKXhu6xsqWIQgAHBsGWABw/JLTE7tOWdokpdzc47/w6lX/0PCh4Eh+ASVRGVupd1F4ZtH1ztkKSReTCADi2XtFpfLWwiv95ygoTycHABznRZQBFgCcqCh7eXpL4/zMBZLOOIY/nwsGitt4wRWV5o8GWMV1bbMVRQ9I+gRpACCmTVc5eqm4fziMRoqXUAMATvBaygALAE5u89/gco1tmW2Z81LXSkq/26XWCuHm4r6B2ZFf/hDFUHHnsCRZx5LmosIvOeme9ziRAQDHu9ky6wv68nuCwyMtkjyKAMBJXFMZYAFALJJTvAPN1zcdTpzi/f6tgVa2F4v7B6JoxOddWKhYrtDR8t+cc9+WiQkrAMSjGI4Ut5b2DV2lyJrIAQAnz3yvq9TDAAsA4pI+v2Fbc0s24R8ZLQRHcgt0sh/2Dowxb+TJ/JdUtMOkAICTFwXlrvyLR4+WegeXMLwCgPi4lB1V5P5K0gFqAMDJK/UG84c73h4OjuRO/psKgXHgBW+GF7792PBloxvyXTK9RhIAOH4W2b7igaHnCjuPXmWl8iyKAED8Zvy0+wnXlJor0z2SRikCAED9+P1nspReDq7q/9eh04t7/HUyFgQAcEycBoKjufX5HUfOKQ8U5hEEAMbW9Eeey894vOfBKOFdaHKPSTKqAABQ+/7oQ4UtVDa3vrB44GfDuai/vIkFAQC8pzDKBxty3UfMf32kTbIESQBg/Mx6dMcbM1d3fyoy71pJWykCAEBte9dvxYpydubAv422DP177iUr2U4yAcAfXCPD8guF3W8fKLz89iKF0RSKAMDEmfX4jt9Mn93TYs59WtKbFAEAoDa979e6h4fDi/pXDc/NbytuktkRcgGoa2YH/DeGtxR6jl4RFYLzCQIAlcEtVzRzVfejCc+dL+ful6lEFQAAaov3wRs2ucL2UsvAv440Fff76yQVyQagrphywUBxXX7HkWnBkfwCggBAZTrrse7cjFXdyyMvutg5raEIAAC1wzvWPxiF1pR7urB44P8a6f/d52MBQG0zRVYINxV2Hsn7BwYXm1maKABQ+Wat2tU7fVXPrSa31Ek9FAEAoPp5x/sfRCPR9IF/G20ZXpvbbmXbQ0IANSmyXYXe/pfyu99qicLoDIIAQPWZubr76WlvTL3SmT4r2VsUAQCgenkn+h8GB8LL+/95+Pz8tuImZ/Y2KQHUBjvsHxrdlNvRd1E06s+lBwBUN9fZGU5/vOeRyLc5kntYUkgVAACqj3ey/31he6llYNVIwn8tXCcnn6QAqnOHo3w4XFqX23FkctA32iLJEQUAasesNbv6Z6zuvsNFukTSrygCAEB18eL4S8olO3XkqdziwV+MvBEVrIusAKpJFJS78ruODpT2DixWZE0UAYDaNf2nPbtnrO75L4rcX5m0jyIAAFQHL86/rDwQnTeweviqkafzz1toLAgAVDSLot2FvQPdhZ1Hr7JSeQZFAKB+zPhp9xNDfvRR59wyScMUAQCgsnlj8Zf6+4MrBx8dnlXY5a+XGQsCAJXFrM9/M7chv+Po7Gi4dClBAKA+zV2zy5++qntl4MILzekRSRFVAACoTN5Y/cVRpIb8lkJb/+qRMDhcXi+pTG4AEywIc/76fPeRxuDwyCLJEiQBAJy76qXDM1f1fNaZrpbcJooAAFB5vLH+AVa0KcP/Pto2/ETulaiobpIDmAhRUO7Kv/TW4dKe/jaLbBJFAAB/avrjPc9NX929yEy3Su5VigAAUDm88fpBQV944cCqoUtHN+S7FOl10gMYF5H2lV4d2lbYefQqK4ZnEwQA8H6cZDMf71njmhouknP3SypQBQCAieeN9w8svRxc1f/o0JTiHn+dTDkOAYAxMhgcza3Pdb95dthfmE8OAMDxmP7Ic/kZq7qXm9wFJveYJKMKAAATx5uIH2qhGnPrC4sHfjY8EvWXN7EgABCjMMoHG3I9R8r+6yNtMiVJAgA4UTNXd78+c3X3p7xI7ZLbThEAACaGN5E/PMrZWQP/Ntoy+h+5F+XbTg4HgJNSLr9QfLl/f+HltxcpjKYSBAAQl2k/7Vk3fXb3PHPu05L6KAIAwPjyKuGXKB0K57796PBF+W3FTZKOclgAHBfTq/4bw1ty3UevKOf92QQBAIwFt1zRzFXdj/oNiQvl9KBMJaoAADA+vEr6XQrbSy0D/zLcWNzvr5NYEAD4QLlgoLgu39N3ZnAkv4AcAIDxcN6/bB+csarnnkiJSyT3JEUAABh7XqX9QlFoTbmnC4sHfzHyZnko2sIhAvAuzArhpsKuozn/wOBiK1uGJACA8Tbr8e2vzFjdfYtMN0jaRREAAMaOV6m/WHkwOmdwzciCkbX5Fyy0Xg4VAEmysr1Y6O3fld/9Vkvklz9EEQDARJvxeM/aw02pK5zps5K9RREAAOLnVfov6B8Iruh/dPjc/PbSBjPr55ABdetN/9Dopnx330ejEf9icgAAKsn8R54Lpj/e80jk2xzJPSypTBUAAOLjVcVvGSlZ2FZcNLh6xAWHy+slhRw6oG4UwuHSutyOvklB32iLJEcSAEClmrVmV/+M1d13OM8ukewpigAAEA+vmn7ZqGinDf/7aNvQ/xw5GOVtG4cPqG1RUO7K7zr6dmnvwGJF1kQRAEC1mP7YzpdmrN75MUXuryTtpwgAACfHq8ZfOnw7+vDA48PzRzfku8z0GocRqDFRtLuwd6C7sPPoVeaXZxIEAFCtZvy0+4lBP7rQObdM0ghFAAA4MV41//Kll4OrBv556MzCLn89CwKg+jmn/uBobn1ux9HZ0XDpUooAAGrB3DW7/OmruleWy8kLzekRSRFVAAA4Pl61PwCLlMpvKbQN/nQkHx4tb5CxIACqUBDm/PW5HUeS/usjbZIlSAIAqDVn/+yFQzNX9XzWeXaNpM0UAQDg2Hm18kDKuejMof81umj4ydzL5kc9HFqgSoTR84Xdbx8s7elvs3I0mSAAgFo3/bGd26av7mk1062SDlIEAIAP5tXaAwr6wo/2PzZycX5rcYtFeoNDDFQo0/7Sq0NduZ4jV0aF4CMEAQDUEyfZzMd71iQ8d5Gcu19SkSoAALw3ryYflckVdpYWDDw6dFpxv79OUoFDDVSMwaA/vy6/480ZYX/hKnIAAOrZWY9152as6l6usl1gco9RBACAd+fV8oOzUI25pwuLB382Ohj1lzdJMg45MFFPSEVWCDfle46E/qvDi82UIgoAAL8142c7X5u5uvtTZtF1cuqmCAAAf8yrhwdZHi1PG/i30ZbhX+e7LbQ9HHZgfEVBtL24p783v/utFguj0ykCAMC7m/n4ro7p5/dcYc59WtIRigAA8FtePT3Y4GBwWf+/DJ+f31bcJOkohx8YY2aH/EOjmwo7j1xezvsXEAQAgA/mliuauar70dB0oZwelORTBQBQ77x6fMyF7aWWwceGU/5r4TpJJU4DIHa5YKC4Lt9zZErQN9pCDgAAjt85j/cMzFjVc4+cu9RJ/04RAEA98+r1gZdLdsrIU7nFg78YOVwejbo4FYBYWFQqb8ntPDrkHxhcbGXLkAQAgJMzY1X3y9NX9/ylTDdIepEiAIB65NV7gPJgdO7gz0auGnk6/7wi6+WUAE6MlaOXCr2DOwsvHl2goDydIgAAxGvG4z1rDzelLnfOLXPSEEUAAPXEI8Fv+fuDKwf+Zficwi5/vYwFAXCszKzPfzO3Id99ZE40UryEIgAAjJ35jzwXTF/VvTJKBB+R3MOSylQBANQDBlh/IIrUkN9SaBtYPRwFh8vrWRAA78PJD3P++kLPkabg8MgiricAAIyfmY/ufnvG6u47VPaukrSBIgCAWseG811ERTtt+N9H24b/n9HeqGg7KAL8yXMkKHflXzzaV9rT32Zla6YIAAATY8bPdrwwY3VPmyL3V5IOUAQAUKsYYL2P4Eh5zsCq4ctGN+S7ZHqNIqh3Ftm+4oGh5wo7j15lxfIsigAAUBlm/LT7ichvvkimeySNUgQAUGsYYB2D0svBVf3/PHTm7z4fiwUB6o/TQHA0tz6/48g55YHCPIIAAFB5Zq3ZUpjxeM+DUcK70OQek2RUAQDUCgZYx8gipfJbCm0DPxvOhUfLG2SKqII6EET5YEOu+4j5r4+0SZYgCQAAlW3WozvemLm6+1OReddK2kIRAEAtYIB1nKKcnTn0v0YXDf1HbreCqIciqFlh9Hxx99uvFl5+e5HCaApBAACoLrMe3/Gb6at7Wsy5T0t6kyIAgGrGAOtE9/aHw4vefnTk4vzW4haLdIgiqBlmB0qvDnXleo5cWS4E5xMEAIDq5SSbuar70YTnzpdz98tUogoAoBoxwDqpjb5cYWdpweCjw6cU9/vrJBWJgio2FPTn1+V3HJkW9heuIgcAALXjrMe6czNWdS+PvOhi57SGIgCAasMAKwZRaE25pwuLB38+0h/1lzdRBFXFFFkh3FToOeL7rw4vNrM0UQAAqE2zVu3qnb6q51bz3PVO4uMwAABVgwFWjMrD0fSBfxttGV6b225l20MRVP5JG+0o7nn7lfzut1qiMDqDIAAA1IeZj3U/M+2NqVc602fldJQiAIBKxwBrDAQHwsv7/3n4/Py24iZJb1EElccO+4dGN+W6j1xazgdz6AEAQP1xnZ3h9Md7HgkjzZHcw5JCqgAAKhUDrDFsW9heahl8bDjpvxauk5NPEkz8SlX5YKC4Lr/jyKlB32iLJEcUAADq2zmP9wzMWN19h4t0iUm/pAgAoBIxwBpj5ZKdOvJUbvHgL0beiArWRRFMEItK5S35XUcH/AODiy2yLEkAAMAfmv7Tnt0zV/fcrMj9lXPaSxEAQCVhgDVOygPReQOrh68aeTr/vJWNBQHGjUXRS4XewZ2FF48usFJ5BkUAAMD7mfHT7icONaY+6pxbJmmYIgCASsAAa5z5+4MrB/91+OzCLn+9zFgQYOyY9flv5jbkdxyZE40ULyEIAAA4VvMfeS6Yvqp7ZeDCC83pEUllqgAAJhIDrAkQRWrIbym09a8eCYPD5fUsCBArJz/M+evz3Ucag8Mji3ieAwCAE3XuqpcOz1zV81lnukbONlIEADBR2NhOICvalOF/H20bfiL3SlRUN0VwsqKg3JXfdbSvtKe/zSKbRBEAABCH6Y/3PDd91c42M90quVcpAgAYbwywKkDQF144sGro0tEN+S5Fep0iOG6R9pVeHdpW2Hn0KiuVZxEEAADEzUk28/GeNa6p4SKZ7pE0ShUAwHhhgFVBSi8HV/U/OjS1uMdfJ1OOIjiGleRAcDS3Ptf95tlhf2E+QQAAwFib/shz+RmP9zxoch81ucckGVUAAGONAVaFsVDZ3PrC4oGfDY9E/eVNLAjwHsIoH2zIdR8x//WRNpmSJAEAAONp5uru12eu7v5U5LkFTnqWIgCAscQAq0JFOTtr4N9GW0b/I/eifNtJEfz+3AjLLxRf7t9fePntRQqjKRQBAAATadZj3c9Om92z0Jz7tKQ+igAAxgIDrApXOhTOffux4bn5bcVNMjtCkTpmetV/Y3hLoefoFeW8P5sgAACgUrjlimau6n60wY/Ol3P3y1SiCgAgTgywqoHJFbaXWgb+daSpuN9fJ7EgqDO5YKC4Lr+j76zgSH4BOQAAQKX60JpdozNWdS+PlLjEOa2hCAAgLgywqkgUWlPu6cLiwV+MvFkeirZQpMaZIiuEmwo9R/L+gcHFZpYmCgAAqAazHt/+yvRVPbfKdINJfBwGAOCkMcCqQuXB6JzBNSMLRtbmX7AweoUiNSiyXYV9/S/md7/VEoXRGQQBAADVaMbjPWtnvDH1Cmf6rGRvUQQAcKIYYFUx/0BwRf+jI+flt5c2OLO3KVIT3vQPjW7K7ei7KBr2LyYHAACodq6zM5z+eM8jkW9zJPewpDJVAADHiwFWtYuULGwrLhpYNZIIDpfXSwqJUo0rO+XD4dK63I6+SUHfaIskRxQAAFBLZq3Z1T9jdfcdzrNLJHuKIgCA48EAq0aUS3bq8L+Ptg39z5GDUc62UaR6REG5K7/zaH9p78BiRdZEEQAAUMumP7bzpRmrd35Mkfsrk/ZRBABwLBhg1Zjw7ejDAz8dnj+6Id9lkQ5SpHJZFO0u7B3oLuw8epX55ZkUAQAA9WTGT7ufGPKjjzrnlkkapggA4P0wwKpRpZeDqwb/ZWhaYZe/XtIIRSqHc+oPjubW53ccnR0Nly6lCAAAqFdz1+zyp6/qXlkuJz9qTo9IiqgCAHg3DLBqWBSpIb+l0Db405F8eLS8QcaCYIIFYc5fn9txJOm/PtImWYIkAAAA0tk/e+HQzFU9n3WeXSNpM0UAAH+KAVYdKOeiM4f+1+ii4SdzL6ukbopMgDB6vrD7rddKe/rbrBxNJggAAMCfm/7Yzm3TV/e0mulWiY/DAAD8JwZYdSToCz/69qqhS/Jbi1ss0hsUGQem/aVXB7tyPUeujArhhwkCAADw/pxkMx/vWeOaUh+Vc/dLKlIFAMAAq96YXGFnacHAo0OnFff76yQViDImBoP+/Lr8jjdnhP3Fq8gBAABwfKY/8lx+xqru5SrbBSb3GEUAoL4xwKpTFqox93Rh8eDPRgej/vImSUaVOMIqskK4KddzpOy/OrzYTCmiAAAAnLgZP9v52szV3Z+KnLVL2kERAKhPDLDqXHm0PG3g30Zbhn+d77ZQL1PkZGKWXyju6e/N736rRWE0lSAAAADxmbVqZ+f02T1XmnOflnSEIgBQXxhgQZIUHAwu6/+Xodn5bcVNko5S5DiYDvpvDG/JdR+9opz3LyAIAADA2HDLFc1c1f2o35CYI6cHJflUAYD6wAALf3Q+FLaXWvr/dbjxd5+PVSLJ+8oFA8V1+Z6+DwVH8gvIAQAAMD7O+5ftgzNW9dxjCe8SJ/07RQCg9jHAwp+xwJpyTxcWD/3byOHyULSFIn+eyArhpsKuozn/wOBiK1uGJAAAAONv5qM79kxf3fOXMt0gaRdFAKB2McDCewr7o3MH14wsGHk6/7yF1ksRycr2YqG3f1d+91stkV/+EEUAAAAm3ozHe9Yebkpd4Zxb5qQhigBA7WGAhQ/k7w+uHHx0+Jz89tIGM+uvxwZm1ucfGt2U7+77aDTiX8xZAQAAUFnmP/JcMH1V98ooEXxEcg9LKlMFAGoHAywckyhSQ2FbcdHg6hEXHC6vr6MFQSEcLq0r9BxpCvpGWyQ5zgYAAIDKNfPR3W/PWN19h8reVZLWUwQAagMDLByXqGinDf/7aNvg/xx9NcrbczX9WINyV/6lo2+V9g4strI1c/QBAACqx4yf7XhhxuqexYrcX0naTxEAqG4MsHBCym+XPzzw+PC80Q35LjO9VlMPLop2F/YO7CjsPHqVFcuzONoAAADVa8ZPu5+I/Oa5Mt0jaYQiAFCdGGDhpJReDq4a+OehMwu7/PUyjVbzY3FO/cHR3PrcjqOzo+HSZRxdAACA2jBrzZbCjMd7HowS3kdN7jFJRhUAqC4MsHDSLFIqv6XQNvCz4Vx4tLxBpqjKHkIQ5vz1uR1Hkv7rI22SJTiqAAAAtWfWozvemLm6+1OeomskbaEIAFQPBliITZSzM4f+1+ii4SdzLyuIeqrilw6j54u73361tKe/zcrRZI4iAABA7Zu2elfX9NU9LebcpyW9SREAqHwMsBC7oC/86NuPjlyc31rcYpEOVeLvaGYHSq8OdeV6jlxZLgTnc9QAAADqi5Ns5qruRxOeO1/O3S+pSBUAqFwMsDA2TK6ws7Rg8NHhU4r7/XUVtCAYCvrz6wo7+qaH/YWrOFAAAAD17azHunMzVnUvL4d2sXNaQxEAqEwMsDCmotCack8XFg/+fKQ/6i9vmrBfxBRZIdyU7zkS+K8OLzZTiqMDAACAd5z9f+3cO31Vz63muevl1E0RAKgsDLAwLsrD0fSBfxttGV6b226h7RnXHx5G2wuvvN2b3/1Wi4XR6RwNAAAAvJeZj3U/M/38nivMuU/L6ShFAKAyMMDCuAoOhJf3/8vw+fltxU2S3hrTH2Z2yD80uinXc+TyKBdcQH0AAAAcC7dc0cxV3Y+GkebI6UFJPlUAYGIxwMKEnHeF7aWWwceGG/zXwnVyMS8InPLBQHFdvufIlKBvtIXcAAAAOBHnPN4zMGNVzz1y7lLn9B8UAYCJwwALE6ZcslNGnsotHlwzcijKR10x/JUWlcpbcj1HB/0Dg4utbBkqAwAA4GTNWNX98vRVPX8h0w2SXqIIAIw/BliYcOXB6NyBx0euGnk6/7yVbe+J/B1Wjl4q9A7uLLx4dIGC8nSqAgAAIG4zHu9Ze7gpdZlzbpmkYYoAwPhhgIWK4e8Prhz81+GzC7v89TI7pgWBmfX5b+Y25LuPzIlGipdQEQAAAGNp/iPPBdNXda90UeojkntYUpkqADD2GGChokSRGvJbCm39q0fC4HB5/XsuCJz8MOevL3QfaQwOjyziXAYAAMB4mv7T596asbr7Dufc1ZI2UAQAxhabflQkK9qU4X8fbRt+MveKSrbjD/+/KCh35Xcd7Svt6W+zyCZRCwAAABNl+qru52es7mlT5P5K0gGKAMDYYICFiha8GV749qrhS3Nbi1uikj1X3D+wvbDz6FVWKs+iDgDEgre+AEAMZvy0+wnXlJor6RuSChQBgHjXrAywUPlMrriztCDXdTRXHixdThAAiOPa6g6Fh5KbLNAOYgBAPKY/8lx+xuqe+6KEN9vkHpNkVAGAk+OkDueVr2SABQBAfcmVBxLrii9kpoSHG1rkCAIAcZv16I43Zq7u/lRk3rWStlIEAE7Ia2b26Slf6L1uyrL93QywAACoD2Ylt6W4Mz0U7EstlilDEgAYW7Me3/Gb6bN7Wsy5T0vqowgAHJOcTPcPD4cXnP7FvY++8z8m6QIAQI0ru5eCvamwPOItIAYAjC+3XJHU/eibn7z0/y6b7lJk98gpTRkA+DMmp184L/rSlDv2HfzT/5MBFgAANbsCUF/5zcSe8I1Ui/jiFgCYUGc91p2TtPy1/3r56oQrP2CmT1AFAN5ZuLouKVo29Qt7N7/XH2ExCwBA7fGjEW996YVsU/hGahH3ewCoHLMe3/7K9FU9t5rcUpN2UgRAXXM65Jx9dsrIK9dO/eJ7D6/EghYAgNpivusq7cz0+XvSbYrUTBEAqEwzV3c/PeONqVc402cle4siAOqML9nDkZ+4cMqdex/57dut3x9vIQQAoBZE2ucfbBiI3k5eRQwAqA6uszOU9Mhrn5j7Cy/l3SfZ7ezRANQ6k55MlhOfP/Wul/cfz3/HxREAgKpeAdhAeDTVE76eaJG5DxMEAKrPrDW7+iXdceh/v+TH5ukhSR+jCoAa9JI83Xn6st6nTuQ/5i2EAABUp8By3jOl7kwUvpZsk7kESQCguk3/ac/uGat7/osi91cm7aMIgBrRL7llU2b2XjL1BIdXEgMsAACqjgV63n8p/Wppd/o6C72pFAGA2jLjp91PDPnRR51zyyQNUwRAlQoke9hz4UemfuGVle5WlU/mL+MthAAAVAtzB4JXG46W307wOVcAUOPmrtnlS1p54LaP/jyp5HJn+oz4BwgAqmfhulZyy6Z+Ye+uuP5GBlgAAFT8/V9D5beT28PXGq61SOcSBADqx7mrXjos6bOH/uslj5hzKyVroQqACrbHmfvilC/2Phn3X8wEHwCAyhWp4G0q7sz4wasNiy1SmiQAUJ+mP97z3PTV3YvMdKvkXqUIgAoz6Ez3TEnq0ilffOXJsfgBDLAAAKhAUeB2+C9nXim+mG6R786gCADASTbz8Z41rqnhIjl3v6QiVQBM9LLVSY+FXvnCKV/sfdB9vrc0Vj+ItxACAFBJzB0ODyf2hW82LJTJEQQA8KemP/JcXtLy1/+PS38i6dtOdpvEPQPAOC9bpXUJ8+447Yt7dozHz2OABQBAZciXBxJdwYGGqxU5Pt8EAPCBZq7ufl3Spw7/75f8j8jTSkmXUQXAOHjdzO6d+oW9jzknG68fylsIAQCYWGYlt6XUkxkI9qUWK3JZkgAAjse0n/asmz6750pz7tOS+igCYIzkZbp/eDicffoX9z46nsMriX+BBQDAxDH3kr83FUZD3gJiAABOhluuSOp+dP//5/L/JxWW71GkZXJ8+QeAeFatcvqFVy7fddqX9k/Yl0gwwAIAYPzXAH3hm8k94RupFvGvoQEAMTrvX7YPSrrn9U9d9k+ubD+Q7C+pAuBEOafnJLtjyp17N03078KiGQCA8eNHI9764vbGxvCN1CLuwwCAsTLz0R17ZqzuvkWmGyTtogiA42OHnbPPnjbUe3UlDK/EwhkAgHFaAviuq7Qz0+fvSbeprEkUAQCMhxmP96w93JS6wjm3TNIgRQB8AF+yh5V0F065c+8jv317cmXgLYQAAIwhZ9rnH2joL/cnr6IGAGAizH/kuUDSytc+MfcxL5W4T7LPSUpQBsAfMunJpPPuOPXOPfsq8fdjgAUAwJisAGwgPJrqCV9PLpTpwwQBAEy0WWt29Uu64/X/Ovef5XkrnGkxVQBI2i3Znad/Ye+vKvmX5C2EAADEK4xGvQ3F7qyFryXbZLxYBACoLDMf37V95qqeJYrcX0naTxGgbvVLbtmU4ZmXTK3w4ZXEAAsAgNhY4F4ovZTe77+cXqTQTaEIAKCSzfhp9xODfnTh7z4fa4QiQN0IJfdIQ+TNmfqFV1a65Z1hNfzSvCoMAMBJcuYOBK8nD4dHkguoAQCoJnPX7PIlrTz4v12xxkuG9znTZ8Q/dABqeeX6tCtHy6bc1buz2n5zBlgAAJy4XHkgsS08kLrWIp1LDgBAtTr7Zy8ckvTZw//H3J9E8lZIWkgVoKa8ItO9U7/4yppqfQBM1gEAOH6RCt6mYncmF+xLLbZIaZIAAGrBtNW7uqav7mk1062SDlIEqHqjMt0/JalLpn6xd001PxD+BRYAAMcj0q6gN2XlkUQLMQAAtchJpsd71rz5yUv/o2y6S2Z3S8pQBqiuVauTVgde+a4zl+3vq4UHxAALAIBjYe5weDixL3yzYaFMjiAAgFp31mPdOUnL3/jfLv4flvAecLJPUgWoCs/KtGzKF3u31tKDYoAFAMD7y5eHE13BvtR8lcW/ugIA1J0ZP9v5mqRPvf5f5/6z87wVMl1KFaAivW5m9079wt7HnJPV2oPjM7AAAHgP5ruu0q5Mf/BKarHKaqIIAKCezXx8V8f083uuMOc+LekIRYCKkTenB8vp9EdP/+LeR2txeCXxL7AAAPhzkdsd7G0olYcTVxEDAID/5JYrkrofffW/XvJE0tPdMt0pKUUZYGKY9GQiKv/30760/9Vaf6wMsAAA+P2qXG+HfQ27wtcTLTKXIAgAAO/unMd7BiTd88Ztl/6zk/3QTDdTBRjPZaueVxTdMfVL+zbWy2PmLYQAAEhBNOKtL72QaQhfS7YxvAIA4NjMWNX98vRVPX8h0w2SXqQIMObektyy02b2Xj2ljoZXEgMsAECds0DPl17KHPT3pNus7CZTBACA4zfj8Z61h5tSlzvnljlpiCJA7ALJHlZSH5n6hVdWultVrrcAvIUQAFCfIu0vH0y9FbzN51wBABCH+Y88F0ha+fqnLlzlyqmvS/Y5SfyrZuAkmfRkMtSyU7+8d289d2CABQCoN4PhWw3PhQeTi2Q6jxwAAMRr5qO735Z0x6HbLv1XM1shaRFVgBNhLzunO6feufeXtOAthACA+hFG+URnqTtTDl9NXi/jG5MAABhL01d1Pz9jdU+bIvdXkg5QBDhGTgOSWzZleNbFUxhe/R4DLABAzbPAveDvTu3zX0otscBNpQgAAONnxk+7n4j85otkukfSKEWA9xRK7pFUQnOmfuGVlW55Z0iS/8RbCAEANcvJHQheTx4M+5Jt1AAAYOLMWrOlIOnB1z512SpXtu842W2SHGWA33vGKVo25Qv7ekjx7hhgAQBqUa48kNgW7E9dI9O55AAAoDLMenTHG5I+9dp/vexHnotWSrqWKqhnTuo101emfrF3zf+/vX+P0rO+73vv7+8+zUkS0oyQQAcbzEkgJAFGxiAh+UDOdv/Yq7ACAdynT1e8VrOLTmCzYyeW2yYxO24MNHu75WndVgicx3hnrT4mabOKkRAhJJY5SciANCMJ0IGjztLM3Kff80fSxrExBjTSXDPzev1nI43ueV+3Rtf9meu+Ro135y2EAIwnOQZLTww/13m8sbO2PHJ0SgIAxTP3wed+MOuBrdfklD4XEa8pwgR0PHJ89fCR5gLj1XvjCiwAxodW+lF9Z7XdPlJeIgYAFF+KyLF+y7rXbln4/7Ry3BHtfGek6FCGcS6niPXNZvMLM76w23j7PhiwABjbZwA5Xmvtrww0X6teE9m9NABgrDnr/i3HI2LtqzfPX1+O0u/nHNerwvg8cU2bo5RX9K7qf1KM98+ABcBYNdg6Uv5BY6D20WiHq64AYIybu35bf0TcsOeWhZ8qtfPdOWKBKowTe3POv923uv/+lCLL8cG4BxYAY06up83Dz3e+1dhRWx7tmKQIAIwfc+7f8ujZe/uuSDk+HyneVIQxbDCnuKvV0TFv+pqBdcark+MKLADGjNxOLzZ31YZbh0qL1QCA8Stt3NiMiPtevmnBQ5WU1kbkf+71K2PqvDXi4XKq/Itpq17crcbI8AUAgLHgQPON6vPNPeUlkVNZDgCYGD784NaDEbFi340LvtkuxR+liF9RhSLLEc+US2nltJU7NqkxsryFEIAia7SPljYNP9tZab5aWWa8AoCJada3t74454Gtvxrt9I9SigFFKKC3I9LKvjn9i41Xp4YBC4BCyo14uv6jjpfr2zuW5VaaoggAMPvbW763r7t2cUppZUQcUYQCaETke1O9fV7f6h33pBuiJcmp4S2EABRLTrsbL9febL3tPlcAwE+78r6nGhFxz+6bL/5OJSprU47/d0S4SpvROHF9JNppRd/tAz/S4tQzYAFQkH//43Dr7cqzzVeqV+cc5wgCALybc9a/sD8iPr/vpgX35VK+O3Jaqgqn6cT1pZRKa3pX9f+ZFqePtxACMNraMVh6YmhLR6PxcnV5zlGTBAB4r2Y9uPWpWeufX5Zz3BCRXlaEUybFwZTjzt4jnQt7V+0wXp1mBiwARu8coJWeqb/UsWPoRx1LolmarggA8IHOKSLynAe3PpR6qpdESl+NiEFVGEHtFHF/o5nn9a7pvyut3VaX5PTzFkIATr+c9jX3l3c191eXiAEAjJRZ9z11IiLW7vmNhf8hIn4/Rb45IpIyfFApYkOUWit7V+7aosboMmABcDodbx0s/7Cxq3ZV5JglBwBwKsx5YMueiLj11VsW/l/ldr4nR1ylCu/TqznnL/etGVgnRTF4CyEAp0POw+nJoec7Djd21pZHjk5JAIBTbe79W/7m7Au2XpNT+lxEvK4I78HxyPHVI0eaF043XhWKK7AAOLVa6YXGzlqjdaR0tRgAwOmW1kY7Ysu6N66f/6eNjvLt0c53RooOZfgJOVJ8N5Xat/eu2PmKHMVjwALgFJ0BxOut18rbm3trS8IVvwDAKJvx0LZjEbH21Zsue6CcWr+Xc1yvCn974po2R7RX9q0e+CsxissLCgBGWr19tLRp+Nmu7ube2rX+rQEAimTug8/umLV+6w2R4xdyxPOKTGAp9qWUP997dMfH+9YYr4rOiwoARkyup83D2zpfq2/vWBatmKwIAFBUsx/c+shrPbUrUo7PR+S3FJlQ6hH53na9PK931cB9f/s2U4rOWwgBOHnt2Fl/pXqw/XZlsRgAwFhx5X1PNSLivlevn//dUq30lYj8WxFRVmb8yhEPV1rl26be8dIuNcYWAxYAJ3EGkA8236xtbe4pL4mcPiIIADAWzX1o24GIWLHvlkv/XW7HNyLSL6ky7rwQpVg1fWX/X0gxNnkLIQAfRKN9rPT40Jau3Hy1sixy8p1KAGDMm3X/8y/MfuD5X452+kc5Yqci48KBiLSyd07/gj7j1ZhmwALgfcmNeHr4hY7d9Zc6ro1m6lUEABhvZn97y/cO19sXp5RWRsRRRcakRkS+t5Sa5/Wt3nFPuiFakoxt3kIIwHuSctrdeKW6p/lWeakaAMB4N/+hbfWIuOeVX7/8oVKl+ZWU45+Fi0DGiPxIRFrZt3pgmxbjhwELgJ/z738cbh+sbG68XL02t+McQQCAieRDf/LMvoj4/L5bLv3/5Ha6JyKuUaWwtqec1vSu6X9YivHHegzAz9KOwdITQ8931uu7qtfldnRIAgBMVLPuf/6Hsx7YujTnuCEiXlGkUA6lHHf2VmJh75odxqtxyoAFwE9pt+KZxksd24Z+1LEk6ulMRQAAIlJEnvPg1odST+3iSOmrETGkyuietqaI+5ul1rzeNf13pdv6hyUZv7yFEIC/l9P+5v7yzuZr1WsiRxIEAOCnzbrvqRMRsXbvr1/6H3O59Hsp8i2qnObT1ojHyrm0Ytqa7c+pMTEYsACIiDjRPlj6q/ru2sejnZbIAQDw883+k+dfjYhbX7350m+Vcro7IhapcsrtyTl/qW/1wP0pRZZj4vAWQoCJLefh9OTw1s6D9Z0d10U7TZIEAOD9mbv++Y2zLth6RU7pcxHxhiKnxInI8dUjR5oXTF8zsM54NfG4AgtgosrphcZApdE6XLlaDACAk5PWRjtiy7pd/+Sy/1+t2bozcqyKiJoyJ3/WGim+W2q17ph2+66X5Zi4DFgAE+8c4PXma5Xtzb21ayKirAcAwMg59z8/eygi7txz66JvlVrtP8oRv6bKB5NSPBWRV/SuGnhCDbyFEGDiqLePljYNPdvd3dxbuzaMVwAAp8ycdc9tn/XA1s9Ejl+IiG2KvB95f0r589MO93/MeMX/ZMACmAinAPW0ub6t87X69o5l0YrJigAAnB6zH9z6yP6e2uUppZUp4rAi76oeke+NSprXu2rgvr99Wyb8LW8hBBjHUo6dw7urB9oHKovVAAAYHVfe91QjIu7Zc+u89alV+92I/Fvhavh/IEc8XEmlFVNXbd+pBu/EgAUwLs8A8sHmm7WtzT2VayLHRwQBABh9c9a9+HZErNj764v+c5Tbd0fEMlXixYi8avrqgf8uBe/GWwgBxpdm+1jp8eEtXe3mq5VlkX2jAgCgaGb/yXPPzH5g6/Jop38UEbsmaIYDEWll75E5C/qMV7wHBiyAcSI309PDL3Tsqr/UcW1upj5FAACKbfa3t3yvXZ80P3LcGRFHJ8in3YxI91XbpYv6Vu+4J63d2PRM4L3wnXmAMS7ltLuxp7K/+UblajUAAMaWuQ89ORgRd71666L1qZX/IEW+OSLSOD1z/X5qtVf23tH/vCPP+2XAAhi7jrcOln/Y3F37eG7HOXIAAIxdc9c9tzcibt3/G/P/bTtK90TEePrm5I7I8aW+NTsecqT5oLyFEGDsacdg6YmhLZ3HGztry3M7OiQBABgfzn5g2+ZZD2xdklP6XES8NsY/nWOR46u9lVjQt6bfeMVJcQUWwFjSjm31/lpuHy0vEQMAYHxKETnWb1n32i0L/59Wjjsi5y9GROdYOmtNEQ80Sq07Zq7c9bojykgwYAGMBTntb+4v72y+Vr0m8ni9JwIAAD/urPu3HI+Ita/ePH99OUq/n3NcPwYe9t9EjpW9a/r/2hFkJBmwAIrtROtIeXNjZ+3KaIWrrgAAJqC567f1R8QNe25Z+KmU8zcix8ICPsw9Oecv9a0euD+lyI7dH5isAABcv0lEQVQaI809sAAKKtfT5uFtnQcaO2rLoxU9igAATGxz7t/y6Kw9fR9NOT4fKd4syMM6kVPc1erouHj6moF1xitOFVdgARRNK71Y31mrt4+UFosBAMCPSxs3NiPivpdvWvBQJaW1Efmfj9Zr+xzxcLnd+t+n3b7rZUeGU82ABVCYs5F4u/l6dVtzT3lJ5FQWBACAn+XDD249GBEr9t688P9Okf8o5/jV03faGk9Hu72i7/adf+lIcLp4CyHA6Gu0j5Y2DT/TWW2+WllmvAIA4L2avX7LS7PWb/21yPELEfHCKf7j3opIK6fN6f9Yr/GK08yABTCKciOeHn6h85X69o5luZWmKAIAwAcx+8Gtj+zvqS1KKa2MiCMj/OEbEfneqMR5fat33JNuiJbinG7eQggwGtqxq/Fy7a3WgbL7XAEAMCKuvO+pRkTcs+/Gjz6QS43fici/FREndXV/jni40oyVU78wMKAwo8mABXB6HWq+VX2q+Url2shxrhwAAIy0Wd9+6q2IWLHv5oX/JUf7nshp6fv/KPmllGJV36qB/6YoReAthACnR7N9orxx+LnOZvPlyqcjR00SAABOpVnrtzw9e/3z10Y7/aOI2P2eflOKgxFpZe+RuZf2Gq8oEAMWwCmWG+mZ+ou1nfUXap/IzTRdEQAATqfZ397yvdRTmx857oyIYz/jlzUj0n21clzUt3rHPWntxqZyFIm3EAKcIimn3Y29lVear1eWqQEAwGiadd9TJyLirj2/sfCBiPj9FPnmH/vPj6Zor+xdvXOrUhRVJUU0ckRVCoARc7T1duWp5ivVq3M7zpED4OSVypFVADh5cx7Ysicibt1304L/kNtxQ474xvTV/f9VGYqu0i6XLk2t/G8i8mfkADgpOUWsb75cuq/xVvVxOQBGQIpGbfbkJ6vTu68d2jDzf6RWWtFx3eM/Egbg5Mx6cOumiNikBGNFac6657bPfmDLZyPHL0TENkkAPoCcNkeKJb2r+29tvtHxliAAJ68ytfPpnkUzX66e2bMsUpoSEdflcn52aOPSe/L/uO4MhQBg4vhfN3Gf/eDWR/b31C5PKa1MEYelAXhP9uacP9e7esdVfav6n5QDYAROUDsru7svPXNzx7lTr4iUzv+J/1yNHLfVK8MDQxuWrsjfub6sGABMgPODH/8fV973VGPW+i33tMuN8yLSvRHRkgjgHQ3mFHe1G+WLp68ZWJeSe7MAnKxUKR3uOG/aY12XTJ+VquXF7/Zrc+S+iLh7eMb+HwxuXHKtegAwzs8T3u0/7rlp/mUple6JCD9Bi1FXmze8qdTT9lxk1OWIhyut8m1T73hp1zv99303LpiXS/GCUowFHYsGn06VuEIJRlm7OnPSk7VZky6KiOkf8GM8nKPyL7o+uXG3nAAw/lTe7T/OeXDbsxGxfO+NCz8bpXxPRJwrGTBR5YhnyqW0ctrKHW52CTBCylM6nu04d2p3KqUlJ/mhPpOi+emhDUvv7YjKv06f3HhMXQAYP0rv5RfN/vaW77Xrk+ZHjjsj4qhswATzdkRa2Tenf7HxCmBkpI7yvu5505/oPG/aZamULhyhD9sVEV8cjuaLg48uvTXnd3+3AQAwdpTe6y+c+9CTg7Mf3HpXq1WZl1PcFxFt+YBxrhGR70319nl9q3fck25wX0CAk5VK6UTtnKmPdV9yZm/qqiw5RX/M7JTivww9tvSvT2xY8nHVAWDsK73f3/ChP3lm35z1Wz9fivbHI+KvJATGp/xItOOyvtUDK3rv3OknswKMwBfW6ozuJ7sWzjhUnda5PCI6T/UfmHJ8rBTpr4YfXbru2IZPnOUQAMDYVfmgv/HsB7ZtzhFL99604B+nFP8mIubKCYwD21NKq3tX9f+ZFAAjozyp9kLnR6Y2o1y6ehT++JRT3FKJ5v82uGHp1zsHJ/9B+tX/NuyoAMDYUjqZ35wi8pwHtz5ULqWLI6WvRsSQpMAYdSjluLP3SMeC3lU7jFcAI6Faer3ror7HO8/vvSjKpQWj/Gh6UsRXhruOPT+8cen1Dg4AjC2lkfggZ92/5fjs9VvWRitfmCPdLyswhrRTxP2NVr6od03/XWnttrokACcnpajX5kze1DN/Rk+pu3ptpJE55xwZ+fyc4ztDG5d8f/ixZQscLQAYGyoj+cFm/8nzr0bErXtumv+fUql0d+RYKDFQ2BdYERui1FrZu3LXFjUARujkcnrn5trcqWeliGWFfqA5fSrn9tNDG5d+q1FKX5687PE3HT0AKK5T8t2wOQ9u2zDr/K2X55Q+FxFvyAwUzKs558/1ru7/lPEKYIROKrsqO7sunfFUx9ypi9PYuTdqJXL8ZrWVXxrasHRF3vCJiiMJAAU91zhVHzitjfac9VvWNXPMixR3RYS35QCj7Xjk+OqRI80Lp68ZWCcHwAic81VKBzsu7N3UNW/6h0vV0kfH6KcxLSLuHo7m1qGNS37FUQWAAp5znK4/aO/NCy9Kkf8o5/hV2fkgavOGN5V62suU4APIkeK7qdS+vXfFzldO9R+278YF83IpXpCdsaBj0eDTqRJXKMEHOItsVM+a/NfVmd3zU0q94+yzezja7ZWdn/6rAQcaAIrhtN1Qc/b6LS/NWr/11yLHL0TEj6QHTpMfRs5L+1b133A6xiuAiaAytfPpnkUzX66d1XPtOByvIiI+E6XSC0Mbl96T//yqKY44AIy+0/4TYWY/uPWR/T21y1JKK1PEYYcAOCVS7Espf773SP9VfWsG/koQgJNX7qzs7rr0zM0d5069IlI6f5x/utXIcdtwV/XFoUeX/mb+zvVlzwAAGD2j8iONr7zvqcas9VvuaZcb50WkeyOi5VAAI6Qeke9t18vzelcN3JfWRlsSgJOTKqXDHedNe6zz4ulnl6rlxRPs0z87Uvz74TP3/83ghqVLPRsAYHSURvMPn7PuxbdnP7BlRbRKiyPicYcDOBk54uFyqzyvb/XAijO/+NJRRQBOWrs6c9IT3Qtm1CtTOpZHRMcEbvHRFLFpaMPS7wx+/5oPe2oAwOlViB8VPPtPnnsmIpbtvXHhZ6OU742Icxwa4H14IUqxavrK/r+QAmBklM7oeK7znKmdqZSWqPG/pIi4PpVLvza0Yem/7YjKv06f3HhMFgA4DecmRXows7+95Xvt+qRLIsedEeFkAPh5DkSklb1z+hf0Ga8ARkSqlvd3z5v+RNdHpi1MpXSRIu8gR3dEfHE4mi8MPrr01pxP30/2BoCJqlS0BzT3oScHZz+49a52uTQvR7o/IrLDBPyERkS6r9ouXdS3esc96Qb30QM4WamUTtTOmfpY96VnTk1dlSURRpn3YE5K8V/qG5c+eeLRpVfJAQCnTqmoD2zuuuf2znlgy62laF8VEU86VMDfyo9ExOV9q3d8fsrt29/SA+Dkv7BWZ3Q/2b1wxsHqtM7lEdElyfsMGHFVKeKvhh9duu7YI1fNVAQARl6p6A/w7Ae2bZ71wNYlOaXPRcRrDhlMWDtSTp/tWz3wC32r+7fJAXDyKpNqL/QsnPF8bfaUqyOl2YqchBSlnOKWSrnaP7hh6dr857/SIQoAjJzSWHiQKSLPWb9lXbmUzo+UvhoRQw4dTBiHUo47eyuxoHfNjoflABiBE8Bq6fWui/oe7zi/96IolxYoMqImpYivDHcd3Tq8cen1cgDACJ2/jKUHe9b9W47PXr9lbTu1F6QUDzl8MK61U8T9zVJrXu+a/rvSbf3DkgCcnJSiXpszeVPXpTO6S93VayONrXPBMeaCnOM7QxuWPjK84ZpL5QCAk1MZiw967vpt/RFxw55bFn6q1M535wjfOYRxJEc8Vk5p5bRVO55VA2CETvqmd26uzZ16VopYpsZp9ekcpWeGNi79Vj1XvjTlkxvdvxEAPoAx/V23OfdvefTsvX1XpByfjxRvOpww5u3JOX+ub1X/J41XACOj3FXe2X3pjB92zJ26OEXMVWRUVCLHb1ZT86WhDUtX5O9cX5YEAN6fMX/ZeNq4sTnrwa33NdtxUUS6NyKaDiuMOScix1dPxNCF09cMrEspsiQAJ3mOVCkd7Liwd1PnvDM/lKqlKxUpwDHJ0RsRdw+fuX/r0Ialv6wIALx34+a+Bx9+cOvB2Q9sWREpXZoj/ptDC2NCjhQPldqtS/rW9K+du3rPoCQAJylFs3r25Me7Lj0zV3pqy2KM3jJinLs4Iv7b0Ial3xt6ZOlH5ACAn2/c3bhz9votL815YOuvRjv9o5RiwCGGgr6+SvFUSvnavlX9N0y7fdfLigCcvPIZXc90L5y5u3ZWz7UppV5FCu8zUYkXhjYuvSf/+VVT5ACAn23c/uSZ2d/e8r193bWLU0orI+KIQw1FkfenlD8/7XD/x3pXDTyhB8DJK3dWdnddcuaTnR854/JUSucrMpb+WYxa5LhtuKv64tCjS38zr/WTIQHgnYzrfyCvvO+pxqz1W+5J7dp5f3d/rJZDDqOmHpHvjUqa17tq4L60NtqSAJzsmVw6Xjtn6mOdF08/u9RRvlqQMe3sSPHvh5Yv/ZsTj167RA4A+InTnonwSc769lNvzX5gy4qU0sci5b902OH0yhEPl1Pp4r7VAyv6but3RSTAyWtXZ056omfRzBPVaZ3LI6JDkvEhRVxZSvnxoQ1LvzP4P5Z+SBEA+FsT6qaes9ZveToirt1748LPRinfGxHneArAKfViRF41ffXAf5cCYGSUJtW2dZ03LaKUXKUzfqWIuD5V49cGNyz9w86ofC19cuOQLABM6HOgifhJz/72lu+lntr8yHFnRBzzNIARdyAirew9MmdBn/EKYESkanl/97zpT3Rd0HtJlNJ8RSaAHN0p4ivD0dwx+OjSW3OOJAoAE/ZcaKIH2PMbC+dExO+nyDfrUWy1ecObSj3tZUoUWjMifavaTl+acvv2tyZqhH03LpiXS/GCpwNjQceiwadTJa5QosAna6V0ojp38ubqtO4rI0WPIhPaxlKOlbVP/eVzUgAw0Uz4n3Iy54Ete+Y8sOXWdi59PCL+2lMCPvBLrO+nVr68b/WOz0/k8QpgJFWmd27uXjjjYLW3e7nxioj4RDvi6eFHl647+hfXzJADgInEj+n9O3MffO4Hsy7YuiSn9LmIeF0ReM92RI4b+lbvuK73joHn5QA4eZWe2os9C2du6Zg7dXGkNFsR/pcUpZzilmqt9NLwhqVfzH/+K27gD8CEYMD68fOBtdGes37Lumq9fX6k9NXIMawK/EzHI8dXeyuxoG9N/0NyAIzAiVm19HrXRX2Pd1zYe0GU00JFeBdTc8TXhruPbhnasPQzcgAw7s+TJPhpMx7admz2+i1r21FekFJ4YQ7/UDtF3N8stc7rW9O/Nt3Wb+gFOFkpGrU5kzd1XTqju9RdvTYiyqLwnuS4MCK+N7Rh6f8YfnSJm/sDMG5VJPjZ5j747I6IuGHPbyz8dES+O0VcqgoT3A8ix4reNf3uFwcwUidj0zs3d8yZOjNS+EElnIzrckrPDG1c+s2OXPlK+uTGQ5IAMJ64Aus9mPPAlu/P3tt3ecrx+Yjs5tRMRHtzzp/rXdX/8T7jFcCIKHeVd3ZdOuOHf3ufq/iQIoyAauS4bSg1B4Y2LF2Rv3O9K/kAGDcMWO9R2rixOevBrfe16/miiHRvRDRVYQI4kVPc1eromDd9zcC6lCJLAnCS5xSV0qGOC3s3dc4780OlaulKRRjx51iO3oi4e/jM/T8cfPTa5YoAMB4YsN6nuQ9tOzD7gS0rUjsWRMR/V4TxKkc8XEqV+dNX9d8547e2HVME4CSlaFbPnvx4z6Vntio9tWXhVg6cepellDcObVj6vcHHlp0rBwBjmROnD2jWt7e+GBG/svfGhZ/NpXx3iviIKoyP11fxdERpZd/q7Y+rATAyymd0PdPx4cmTUrl0rUtZGQWfSbn9i0Mbl/67jkr+clr6xFFJABhrXIF1kmZ/e8v3DtfbF6eUVkbEEUUYw96KSCunzen/WK/xCmBkTrQ6Ky93XXLmk50fOePyVC5doAijJkctctw23EwvDj269DfzWq8DABhj51USnLz5D22rz1q/5Z5Gas7LKe6LiLYqjCGNiHxvVOK8vtU77kk3REsSgJOTSqXjtXOmPtZ18fSzSh3lqxWhMHLMihT/fmj5tX994vvLrhEEgLHCgDWCzln/wv4567d+PuX4WER6QhHGwFnsIzmlRX2rB1b03dbvCkKAEfjCWp056YnuhWcer07rXB4RHZJQRCny4lKp/ZdDG5Z+Z/B/LPVTMAEoPPfAOgVmPbj1qRxx7d6bFvzjlNIfRuQPq0LBXl+9lHJe3btm559rATBCJ1WTats6zpuWo5SWqMEYkSLi+lSJXx3csPTrnVH5WvrkxiFZACgiV2CdurOBPOfBrQ+lnuolkdJXI2JQFQrwxDwYkVb2Hpl7qfEKYIS+tNbKr3XPm/5ExwW9l0QpXaoIY1BPivjKcDS3Dz669FY5ACjmy1lOiz2/sXBORPx+inyz7h9Mbd7wplJPe5kSH0gzIn2rVslfnnxb/5tynFr7blwwL5fiBSUYCzoWDT6dKnGFEh/gJKqUBqtzJ/+gOq37ykjRowjjyIbUSis7rnt8ixQAFIUrsE6TOQ9s2TPngS23ltrxyYj0rCKcRo+mUuujfat3fN54BTAyKtM7N3cvnPl2tbd7ufGKceiTuZSfGX506bqjf3HNDDkAKAID1ml29re3Pjbrgi0fzSl9LiJeV4RTJUX0R44b+lb3f7p35S7fQQUYAZWe2os9C2Zu6Zg7dXGkmKMI4/hEopRT3FKtlV4c3rD0i/k782uiADCaDFijcT6wNtpz1m9ZV6+W50WKuyLHsCqMoOOR46uHjzQX9K3pf0gOgBH4t7tcOtBxYe+mjgt7L4hKWqgIE8i0HPG14TOnbRl69NpfkwOAUTsfk2D0vXrTZReUUvuPIvJn1PjZ3APr58opYn2z2fzCjC/sfk2O0eMeWIwl7oH1c8+UGrXZk5+sTu++LFKaIgjEI6mVVnRc9/iPpADgdKpIMPrmPvjsjoj47N6bFlwXKe6OiPmq8L7ktDlKeUXvqv4nxQAYoZOkqZ1P184544yUkm+ewN+7Lpfzs0Mbl36zo9H5u+kXHjksCQCng7cQFsjsB7c+sr+ndnnK8fmI/JYivAd7c86f612946o+4xXAyJwcdZZ3dS+Ysbnj3KlXpJTOUwR+SjVy3FavDA8MbVi6In/n+rIkAJzyczQJiuXK+55qzHpw633ter4oIt0bES1VeAeDOcVd7Ub54ulrBtalFFkSgJOTKqVDHedNe6zrkjNnp0ppsSLw7nLkvoi4e/jMfZsHv7/MlYoAnFIGrIKa+9C2A7Mf2LIilfKCiPwXivD3J4vxcLlVnj99Vf+dZ37xpaOKAJy0dnXmpCd6Lj2zVZnSsTxy+Glr8L6ky1Op/djQhqXfG9zwiXP0AOBUcA+sgpt1//MvRMQv771x4WdzKd+dIj6iysSUI54pl9LKaSt3bFIDYGSUz+h6pvPcKT2R0hKXssJJ+0yK5qeHNiy9t6Oafy8tfcI32gAYMa7AGiNmf3vL9w7X2xenlFZGhJOBieXtiLSyb07/YuMVwMhInZVXui4588nOj5xxeaR0oSIwYroi4ovDjfTC4KNLb83ZTz0HYGQYsMaQ+Q9tq89av+WeVqsyL6e4LyLaqoxrjYh8b6q3z+tbveOedIP7oQGcrFQqHa+dM/Wx7ounzyh1lK9WBE6Z2SnFfxnaeO3fnNh4jb9rAJw0A9YY9KE/eWbfnPVbP59K+aqI+CtFxqP8SLTjsr7VAyt679zpx1MDjMAX1urMSU90LzzzeHVa5/KI6JQETr0UeXEpl54YfnTpumMbPnGWIgB8UO6BNYbNuv/5H+aIpXtvWvCPU4qvR8SHVBnztqeUVveu6v8zKQBG6GRnUu1HHedOa0clLVEDRkXKKW6pRPN/G9yw9OudUfla+uTGIVkAeD9cgTXWzwYi8pwHtz6UemoXR0pfjQgnA2PToZTjzt4jHQt6V+0wXgGMxL+RtfJr3fOmP9FxQe/FUUmXKgKjridFfGU4WluHNy69Xg4A3te5nQTjy95fv3RuLpd+L0W+Zbx9brV5w5tKPe1l4+zTaqeIB+qtfPtZdwy84Rk8Puy7ccG8XIoXlGAs6Fg0+HSqxBXj6uSmlAarcyf/oDqt+6ORYpKjDEX9y5ofTam8smP5pq1iAPDzuAJrnJn9J8+/OueBLbfm3P5URDynSIHP2SI2pFLr8t7V/bcarwBGRmV65+buhTPfqvZ2LzdeQcHl9Kncbj89tHHpvz+66dozBQHg3Riwxqk5D27bMOuCrVfklD4XEcaRYnk15/y53tX9n+pduWuLHAAnrzyp9mLPohnPdcydujhSzFUExoxK5PjNaiu/NLRh6Yq84RPu0QvAOzJgjWNpbbTnrN+yrl4tXxQp7oqIuiqj6njk+OqRI80Lp68ZWCcHwAj8W1cuHei4sHdT5wW9F0SptEgRGLOmRcTdw9F8fujRJb8qBwA/dd4nwcSx59ZFF5Za7T/KEb82Fh//GL4HVo4U302l9u29K3a+4pk4/rkHFmPJmL0HVopGbfbkJ6vTuy+LlKY4kjDuPJJKpds6lm/y7ykAERHhEt0JZM6657ZHxGf23rTgukhxd0TMV+WU+2HkvKJv9cBfSQEwQicvUzufrp1zxhkppWVqwLh1XW63nxvauPSbHScav5N+9W+OSAIwsXkL4QQ0+8Gtj+zvqV2eUlqZIg4rcgqk2JdS/nzvkf6r+tYYrwBG5KSls7K7+9IzN3ecO/WKlNJ5isC4V40ctw13VQeGNixdkb9zfVkSgAl8LijBxHTlfU81Zq3fck+73DgvIt0bES1VRkQ9It/brpfn9a4auC+tjbYkACcnVUqHOs6b9ljXJdNnpWp5sSIw4UyPiLuHZ+z/weDGJdfKATAxGbAmuDnrXnx79gNbVkSrtDgiNinyweWIh8ut8ry+1QMrzvziS0cVAThp7erMSU90L5jRrEzpWB45apLAhD7ZuiLltGlow9LvDW74xDmCAEws7oFFRETM/pPnnomI5XtvXPjZKOV7IuJcVd6zF6IUq6av7P8LKQBGRnlqx7Od50ztjpSWqAH8hM+k1PzU0Ial/7YjKv86fXLjMUkAxj9XYPEPzP72lu+165PmR447I8JVRO/uQERa2Tunf0Gf8QpgRKSO8r7uedOf6Dx32mWR0oWKAO8oR3dEfHE4mi8OPrr01pz9dHWA8c6AxU+Z+9CTg7Mf3HpXu1y6OEe6PyKyKv9AIyLdV22XLupbveOedIP7hwGcrFQqHa+dM/Wx7kvO7E1dFVddAe/V7JTivww9tvSvT2xY8nE5AMYvAxY/09x1z+2d88CWW0vRvioinlQkIiI/EhGX963e8fkpt29/Sw+Ak//CWp3R/WTXwjMPV6d1Lo+ITkmA9yvl+FgppyeGH1267tgjV81UBGD8MWDxc539wLbNsx7YuiSn9LmIeG2CZtiRcvps3+qBX+hb3b/NswLg5FUm1X7Us3DG87XZU65OKc1SBDgpKUo5xS2VcnVgcMPStfnPf6VDFIDxw4DFezwfiDxn/ZZ15VI6P1L6akQMTZBP/VDKcWdvJRb0rtnxsGcCwAioll7vuqjv8Y7ze+dFubRAEGCE9aSIrwx3HXt+eOPS6+UAGB8MWLwvZ92/5fjs9VvWtpr50pTioXH8qbZTxP3NUmte75r+u9Jt/cOOPsDJSSnqtTmTN/XMn9FT6q5eG8l5CHAq5fNzju8MbVj6yPCGay7VA2Bsq0jAB/Gh/+/zAxFxw55bFn4q5fyNyLFw3JzqRDxWTmnltFU7nnWkAUbohGN65+aOOVPPihTL1ABOs0/nKD0ztHHpt+q58qUpn9zoPqYAY5DvfHJS5ty/5dFZ52+9PKf0uUjx5hj/dPbknD/Xt6r/k8YrgJFR7q6+1LNwxnMdc6cujhRzFQFGSSVy/GY1NV8a2rB0Rd7wCd/IBxhjDFictLQ22nPWb1nXbMdFkeKuiKiPsU/hROT46okYunD6moF1KUV2VAFO8t+GSulgx4W9mzov6js/yqVFigCF+NqUozci7h6O5tahDUt/WRGAMfQ1XAJG2t6bF16UIv9RzvGrI/lxa/OGN5V62iP51pMcKb5barXumHb7rpcdOUbKvhsXzMuleEEJxoKORYNPp0pcMYJnFo3a7MlPVs/sWRQRZygMFNzD0YoVndf95U4pAIrNFViMuNnrt7w0a/3WX4scvxARPyriY0wpnkopX9u3qv8G4xXAyKhM7Xy6Z9HMl6tn9iwL4xUwNnwmKvHC0Mal9+Q/v2qKHADFZcDilJn94NZH9vfULksprUwRh4vxqPL+lPLnpx3u/1jvqoEnHCWAETiZ6Kzs7rr0zM0d5069IlI6XxFgTMlRixy3DXdVXxx6dOlv5rVeIwEU8pxTAk6lK+97qjFr/ZZ72uXGeRHp3ohojdJDqUfke6OS5vWuGrgvrY22owNwclKldLjjvGmPdV08/exStbxYEWCMOztS/Pvh5Ut/MLhh6VI5AIrFgMVpMWfdi2/PfmDLipTSxyLi8dP5Z+eIh8updHHf6oEVfbf1H3E0AE5auzpz0hPdC2Y0KlM6lkdEhyTAOPLRFLFpaMPS7wx+/5oPywFQDH58LKfVrPVbno6IZXtvXPjZKOV7I+KcU/jHvRiRV01fPfDflQcYGeUpHc92nDu1O5XSEjWAcSxFxPWpXPq1wQ1L/7Czo3VXuubJQVkARo8rsBgVs7+95Xvt+qRLIsedEXFshD/8gYi0svfInAV9xiuAkXkl11He1z1v+hOd501blErpQkWACSFHd4r4yvBwefvgo0tvzdlPcQcYtfNRCRhtr966aHZq5T9IkW9+t+dkbd7wplJPe9m7fKhmRPpWtZ2+NOX27W8py2jZd+OCebkULyjBWNCxaPDpVIkrfuaJQimdqH7ojM3VaZ1XRUSnYsAE91gp2itrn/yrZ6UAOL1cgcWom7vuub1zHthyazuXPh4Rf/3BPkr6fmrly/tW7/i88QpgROTqjO4nuxbOOFSd1rk8jFcAERHL27n01PCjS9cde+SqmXIAnD4GLApj7oPP/WDWA1uvySl9LiJee4+/bUfkuKFv9Y7reu8YeF5FgJNXnlR7oWfhjOdrs6dcnVKapQjAj0lRyiluqZSrLw5vWPrF/Oe/4gdZAJwGBiwKdj4Qec76LevKpXR+pPTVyDH8M37p8cjx1d5KLOhb0/+QcgAjoFp6veuivsc7z++9KMqlBYIAvKupOeJrw11Htw5vXHq9HACnfC+A4nr15vnnl6P0+znH9X93D6ylKeKBRql1x8yVu15XiCJyDyzGko5Fg0+XqnFpdfbkv66e2XN5RExWBeADeSTlvLLjU09skwJg5BmwGBuDwG9c+ovlj9R/qdTbfuDMVf1PK0Khn68GLMaQnqXlP++8aNKCSDFXDYCT1oiIezt2V76c/l8bh+QAGDkGLIARZsBiTJ0IVOJE9/KuzZ3n1vyUQYCT1Wo/NzhwsCudaP3K1FXbdwoCMHIqEgDAxJWb0X38+4PLhybV90/5xa6dpd7yNeEbXADv96vp/vq+4zsbrx+7JiJSObnVMMBIM2ABANE61jr74J8eO7v6oepzkz/V1ZUq6UJVAH6OFCcaB4Y2N149fFVu5SWCAJw6vjUAAPwvjVcaiw785yPnn/jh0BMR8aYiAO8ot4dbT57Y9ubB+u5Dy3Mrews2wCnmCiwA4CeVBp8dXlJ/oX64+xPdj9XmVj4eER2yAETkdvuFoZ1Hmu2jQ1erAXD6GLAAgHfUGs5nHP2L48vLU0u7J/9yz5vlSaXFqgATVs6v118/sb2x/+iS8E4WgNPOF14A4F21DrXPOfQnRxcf/f6Jp6Od+xUBJpQU9ebx+qYTW97obuw/eq3XUACjwxVYAMB7Ut/VuOLgy41G51Vdm7ouqS2KFGeoAoxn7UZr89COA2fl4dYyNQBGlwELAHjvL+baUT3x5OCyoWeGDk76dM+m6tnlJRFRVgYYX1/sYufwq4cPNA8Meus0QEEYsACA9//abihPO/Jnx5ZVZ5RfmvSLPUOlzrRIFWDMS3Gw8cbxrfW9R6+JHB8RBKA4vH8bAPjAGm+0Ljq4/siiY4+f2Bw5XlUEGKOa7RONx49veSPX9xxdFtk3+gGKxhdmAOCkDb/UWFzfcbje9bf3x7oiUkxSBRgL2s3WM8P9hya3BxvXqgFQXAYsAGBE5HbUTjw5uGxoy9Drk6/reaYyvbwkkqu9gaJ+0cq76/uO7m+8ceJqMQCKz4AFAIyo9vE88/B/PTazcnblR2f8YlcrqqUFqgAFcrxxcOiHjZcPfzznfI4cAGODAQsAOCWa+5uXvL3uaO6a3/Fk18c6P5xKMUsVYNTkaOeh5pND/QcubDfbywUBGFsMWADAqXzBmAafH756+MX68a7lnY91nlu7KiI6hQFOq3beNrjrYG4fqS8RA2BsMmABAKf+tWMz9xz//uDyoSnD+6Zc172r1Fv2IhI4HV6r7zs20Hj92DURkeQAGLsMWADAadM60p518E+PzaqeU3l28ie7u1M5XagKMOJSnGgeHt48vOvQldHOBnOAccBPBgIATrvG7uZlB/7TkfNP/HDoiYh4SxFgpLQbrc0nnn/zwPDAweXRzj2KAIwPrsACAEZLafDZ4SX1F+qHuj/R/VjtQ5WrI0dNFuCDyO32i0O7DtfbR4YXqwEw/hiwAIBR1RrOU4/+xfHl5WmlXVN+ddJbpa7kxSfwnqUUB+pvHH++vufYkohcVgRgfPIWQgCgEFoH2+cefODI4qPfP/F0buUBRYCfo9E8Xt90/Lk3KvU9R5cZrwDGN1dgAQCFUt/VuOLQy41G51Vdm7ouqV4WKU1RBfgHmu2nB/sPTG0PNpeJATAxGLAAgMJpt6N64snBZYPPDB2Y/OmeTdWzy0siwtUVMNHl2DX8yqG3mgeGvNUYYIIxYAEAxX2tOpR7j/zZsWXVsyovTrqup17qjIWqwIR0qHHgxHONV45cnXOcKwfAxGPAAgAKr/Fac97B9Yej46Lq5klLus+OUsxRBSaAHO081HzyRP+BedFsLxcEYOIyYAEAY8bwS43F9YHDg93XdD3WeUHtykjRowqMU63WM0P9h3taJ+pLxADAgAUAjCm5GV3HNw0uH3xq6LUzfqnn2VJv+ZqISMrAePlLHq/U9x3Z23jjxNViAPA/GbAAgDGpfTyfdfBPj53VMauyrefT3Tl1pEtVgTHteOPg0A8brx6+Krfyh+QA4MeVJAAAxrLhfc35B9YfmX/ih0NPRM5vKAJjTs6DzScGt715vL770PLcyp2SAPCTXIEFAIyDl7+RBp8dXjL8fP141/LOxzrPrV0VEV4EQ9H/6rbyj4Z2HWy3j7rPFQDvzoAFAIwb7WbuOf79weVDU4dfnvwLPfvKZ5TcQwcKKOf8emP/8f7G68fcww6A98SABQCMO61D7Q8feujoh2vnVJ+Z9InOSalSukAVKITB5pHhH9R3H/pobmVXXQHwnrkHFgAwbtV3Ny4/sO7ouSeeHX485fy2IjB62o3W5hMvvPnW8MDB5bmVJykCwPvhCiwAYJy/ao7K4A+Hrq1vHT7Uc13PpurZ5WucA8Hp/DvYfnFw1+Hh9pHhxWIA8EE5eQMAJoTWcJ565M+OLav0lXZO/sVJB0o96UpV4NRJKQ7U3zj+fH3PsSURuawIACfDWwgBgAml+Xb7Iwe/feTKY4+f2Jzb8YoiMOIazeP1Tcefe6NS33N0mfEKgJHgCiwAYEIafqmxuLHjcKPzqq5NXfNrl0fEZFXgJDXbTw/1H5zSGmwsEwOAkWTAAgAmrHY7qieeHFw2vGX49UnXdT9bObN8TUS4WgTep5zz7vorR95sHhh0nysATgkDFgAw4bWOt2ce/q/HZlZnVl6c8os99eiIharAe3K4ceDEs41Xjlydc5wjBwCnigELAODvNF5vznv7/sPRcVF1c8+S7lmpFLNVgXeQo52Hmk8O9h+4KDfbywUB4FQzYAEA/IThlxqL6wOHT3Rf0/VY5wW1KyNFjyrwd5rtZwd3HuxuH28sEQOA08WABQDwDnIzuo9vGlw+9HR9/5Rf7Hq21Fu+JiKSMkzcvxR5X33/8V2N148ZrgA47QxYAADvonWsdfbBPz12dmVWedsZ1/VE1NJ8VZhQUpxoHBja3Hj18FW5lWcJAsBoKEkAAPDzNfe15r+97sjFJ3449EREvKkIE0BuD7eePL71zUP13YeW51bulASA0eIKLACA9640+OzwkqFt9ePdyzof6zy39vGI6JCF8Sa32i8M7TrSbB8duloNAIrAgAUA8H5f3Ddyz/HvDy4f7h3ePenTPfvLZ5S8yGd8PLdzfr3x+ontjf1Hl4R3awBQIP5RAgD4gJoH2ucceujo1UcfOfFMbuZ+RRizUtSbx+ubBre80d3Yf/RarxMAKBpXYAEAnKT67sblB9Y1ml1XdD7etag2P6XUqwpjRbvR2jy048BZebi1TA0AisqABQAwIitAVAZ/OHTt8PPDByd9umdT9ezykogoC0NR5XbeOfzKkYOtg4OL1QCg6AxYAAAjqD2Upx35s2PLyn3lnVN+qedAqTtdqQqFkuJg443jW+t7ji2JyB8RBICxwHvbAQBOgdbbrY8cfPDIlcceP7E553hVEQqg2T7RePz4ljdyfc/RZRHZFYIAjBmuwAIAOIWGX2osru84XO+6qmtT1/za5RExWRVOt3az9cxw/6HJ7cHGtWoAMBYZsAAATrHcjtqJJweXDW8Zfn3Sdd3PVqaXl0RyJTyn48mXd9f3Hd3feOPE1WIAMJYZsAAATpPW8fbMw//12MzqzMoLk3+pq5lqpQWqcErkON44NPTDxsuHP55zPkcQAMY63/kDADjNGq83Lz5w/9FLT/z10JO5HfsUYcTkaOfB5hODz79xor770PKcc4coAIwHrsACABgNOdLg88NXD704fKJ7eddjnefWroqITmH4wNp52+DAwWgfqy8RA4DxxoAFADCKcjO6j39/cPnQlOF9U67r3lXqLV8TEUkZ3sezaH993/GdjdePee4AMG4ZsAAACqB1pD3r4J8em1X7cOXZSZ/s7k6VdKEqvKsUJ5qHhzcP7zp0ZbSzq64AGNfcAwsAoEDqLzcvO/Cfj5x/4odDT0TEW4rwTtqN1uYT2948ODxwcHm0c48iAIx3rsACACie0uCzw0vqL9QPd3+i+7Ha3MrHI8LNuIncbr84tOtwvX1keLEaAEwkBiwAgIJqDeczjv7F8eXlqaXdk3+5583ypJLRYoLKOR9ovnXi+fqeY0siclkRACYabyEEACi41qH2OYf+5Ojio98/8XS0c78iE0qjeby+aXDLG9X6nqPLjFcATFSuwAIAGCPquxpXHHy50ei8qmtT1yXVyyKlKaqMX+1Ga/NQ/8GZeai5TA0AJjoDFgDAGNJuR/XEk4PLBp8ZOjD50z2bqmeXl0SEq3LGkxy7hl85/HbzwKC3jALA3zFgAQCMQXko9x75s2PLqjPKL035pZ6h6EiLVBnzDjXePL6lvvfoNZHjXDkA4O8ZsAAAxrDGG62L3r7/SHRcVN08aWn3WZFiripjTrN9ovHk4MDBS6LZ9nZBAHgHBiwAgHFg+KXG4vrA4cHua7oe67yg9tFIMUmVMaDVemao//Ck1on6tWIAwM9mwAIAGCdyM7qObxpcPvjU0OuTr+t5pjK9vCSSnzpdzIMVL9f3HdnXeOPE1WIAwM9nwAIAGGfax/PMw//12MzK2ZUfnfGLXa2olhaoUhjHGweHfth49fBVuZU/LAcAvDe+IwcAME419zcveXvd0UtP/PXQk9GOfYqMqpwHm08MbnvzeH33oeW5lTslAYD3zhVYAADjWY40+Pzw1cMv1o93Le98rPPc2lURYTw5nYeglX80tOtgu320vkQNAPhgDFgAABNAu5l7jn9/cPnQlOF9U67r3lXqLRtTTr3X6vuODTReP3ZNRCQ5AOCDM2ABAEwgrSPtWQf/9Nis6jmVZyd/srs7ldOFqoy4weaR4R/Udx/6aG5lQyEAjAADFgDABNTY3bzswH860u66rOOJ7is7L4qI6aqcvHajtXlo+4Gzc721XA0AGDkGLACAias0+OzwkvoL9UPdn+h+rPahytWRoybLB9Buvzi46/Bw+8jwYjEAYOQZsAAAJrjWcJ569C+OLy9PK+2a8quT3ip1JSPMe5RSHKi/cfz5+p5jSyJyWREAODVKEgAAEBHROtg+9+ADRxYf/f6Jp3MrDyjyrhrN4/VNx597o1Lfc3SZ8QoATi1XYAEA8A/UdzWuOPRyo9F5Vdemrkuql0VKU1T5Mc3204P9B89oDzaWiQEAp4cBCwCAn9JuR/XEk4PLBp8ZOjD50z2bqmeXl0TEhL7KKOe8u/7KkTebBwa9xRIATjMDFgAAP1Meyr1H/uzYsurMyouTfqGnXuqMhRMww+HGgRPPNl45cnXOcY5nBQCcfgYsAAB+rsbrzXkH1x+Ojouqmyct6T47SjFn3H/SOdp5qPnkYP+Bi3KzvdyzAABGjwELAID3bPilxuL6wOHB7mu6Huu8oHZlpOgZj59nu9F+dnjXwe728cYSRx0ARp8BCwCA9yU3o+v4psHlg08NvXbGL/U8W+otXxMRaXx8cnlfff/xXY3XjxmuAKBADFgAAHwg7eP5rIN/euysjlmVbZOu685RS5eO2U8mxYnGgaHNjVcPX5VbeZajCwDFYsACAOCkDO9rzh++/0juWtTxRPdHOy6IlGaMoYef28Otvx7cceDD0Wi5zxUAFJQBCwCAk5cjDT47vGT4+frxruWdj3WeW/t4RHQU+iG32i8M7TrSbB8dutoBBIBiM2ABADBi2s3cc/z7g8uHpg6/PPkXevaVzygVbhzKOb/eeP3E9sb+o0siouSoAUDxGbAAABhxrUPtDx966OiHa+dUn5n0ic5JqVK6YNQfVIp681j9r+sDB6/IrXytowQAY4cBCwCAU6a+u3H5gXWNZtcVnY/3LKpdklPqG43H0W60Ng/tOHBWHm4tc1QAYOwxYAEAcGq1ozL4w6Fr61uHD/Vc17Openb5mtN1HprbeefwK0cOtg4OLnYgAGDsMmABAHBatIbz1CN/dmxZpa+0c/IvTjpQ6klXnrI/LMXBxhvHt9b3HFsSkT+iPgCMbW5aCQDAadV8u/2Rg98+cuWxx09szu14ZYQ/fKN9ovH48S1v5Pqeo8sicllxABj7XIEFAMCoGH6psbix43Cj86quTV3za5dHxOST+oDN9tOD/QentAcbbtAOAOOMAQsAgFHTbkf1xJODy4a3DL8+6bruZytnlq+JiPd31VTOu+v7ju5vvHHiakUBYHwyYAEAMOpax9szD//XYzOrMysvTPnFnkZ0xMKf+5tyHG8cGvph4+XDH885n6MiAIxfBiwAAAqj8Xrz4rfXH85d8zue7PpY54dSKWb/1C/K0c5DzSeH+g9c2G62l6sGAOOfAQsAgGLJkQafH7566MXhE93Lux7rPLf2sYjoioiIVvu5of6Dna0TjSVCAcDEYcACAKCQcjO6j39/cPngGcN7Jl/XvbN94njVfa4AYGIqSQAAQJG1D7fnnNh4uMt4BQATlwELAAAAgEIzYAEAAABQaAYsAAAAAArNgAUAAABAoRmwAAAAACg0AxYAAAAAhWbAAgAAAKDQDFgAAAAAFJoBCwAAAIBCM2ABAAAAUGgGLAAAAAAKzYAFAAAAQKEZsAAAAAAoNAMWAAAAAIVmwAIAAACg0AxYAAAAABSaAQsAAACAQjNgAQAAAFBoBiwAAAAACs2ABQAAAEChGbAAAAAAKDQDFgAAAACFZsACAAAAoNAMWAAAAAAUmgELAAAAgEIzYAEAAABQaAYsAAAAAArNgAUAAABAoRmwAAAAACg0AxYAAAAAhWbAAgAAAKDQDFgAAAAAFJoBCwAAAIBCM2ABAAAAUGgGLAAAAAAKzYAFAAAAQKEZsAAAAAAoNAMWAAAAAIVmwAIAAACg0AxYAAAAABSaAQsAAACAQjNgAQAAAFBoBiwAAAAACs2ABQAAAEChGbAAAAAAKDQDFgAAAACFZsACAAAAoNAMWAAAAAAUmgELAAAAgEIzYAEAAABQaAYsAAAAAArNgAUAAABAoRmwAAAAACg0AxYAAAAAhWbAAgAAAKDQDFgAAAAAFJoBCwAAAIBCM2ABAAAAUGgGLAAAAAAKzYAFAAAAQKEZsAAAAAAoNAMWAAAAAIVmwAIAAACg0AxYAAAAABSaAQsAAACAQjNgAQAAAFBoBiwAAAAACs2ABQAAAEChGbAAAAAAKDQDFgAAAACFZsACAAAAoNAMWAAAAAAUmgELAAAAgEIzYAEAAABQaAYsAAAAAArNgAUAAABAoRmwAAAAACg0AxYAAAAAhWbAAgAAAKDQDFgAAAAAFJoBCwAAAIBCM2ABAAAAUGgGLAAAAAAKzYAFAAAAQKEZsAAAAAAoNAMWAAAAAIVmwAIAAACg0AxYAAAAABSaAQsAAACAQjNgAQAAAFBoBiwAAAAACs2ABQAAAEChGbAAAAAAKDQDFgAAAACFZsACAAAAoNAMWAAAAAAUmgELAAAAgEIzYAHABJZKcVwFgBHVaOYYlgFgZBmwAGACqy0Y/lHtwuFNUY6jagCcrPxIRFw+ffX2vVoAjKyKBAAwkbXLpcmxrPOyE683X6s829xbWxK+wQXwfu1IOa3uXdP/sBQAp4YBCwCIiDSzclZrZuXMoRfqu2rN9uHSAk0Afq5DKcfXplXj7nTbDm8bBDiFDFgAwN8r54tr5w/nPJyeHN5R+3AMl2aJAvBT2inigUapdcfMlbtelwPg1DNgAQA/KaWOfHXnpcMnWgfLjzV21a6KHJ2yAETkiMfKKa2ctmrHs2oAnD4GLADgZ+kuT2stL08d2tfcX97VfK16TeRIsgAT1J6c85f6Vg/cn1JkOQBOLzdpBQDeXcqzKrOaSzoXDj1X6m5vFwSYYE5Ejq+eiKELp68ZWGe8AhgdrsACAN7jWUO+rHbxcDsGS08Mba9eFM3SdFGAcSxHiu+WWq07pt2+62U5AEb5VFQCAOB9KEVXe0nnwuHDrbcrjzVfrX48t6NDFmA8SSmeilZ7Ze/tO/9SDYCinIQCALzvV3dxRnl6c3nHZUP7y32tzYIA40Pen1L+/LTD/R8zXgEUiyuwAIAPLuVzqufUz6nMjqcb/R1T2idK54sCjEGNiPzNqKTf6b2t/4gcAMVjwAIATlqqxhW1i4cb7aOlTY2B2mW5laaoAowFOeLhSjNWTv3CwIAaAMVlwAIARkq1NLm9rOOyoQPNN6qbmnvKSyKnsixAQb0YkVdNXz3w36UAKD73wAIARlpvZUZjWcei4f7y1PZzcgAFcyAirew9MmdBn/EKYMxwBRYAcEqkcr6oet5wVOppc317x1l5OM1VBRhFzYj0rVolf3nybTvejNihCMAYYsACAE6pVMuLOy4dGmwdKT/WGKh9NNoxSRXgNH8l+n6K1qre1Tu3agEwNhmwAIDToas8pbW8dPng663Xys8099aWhFsZAKdYiujPOX67b82Oh9QAGNsMWADA6XwxObNyVmtm5cyhHzUGaq3W0dICVYBT4Hjk+Pq0avxBuq1/WA6Asc+ABQCcfuV8SfXC4VwZTk82dtQ+3B4uzRIFGAE5RaxvNptfmPGF3a/JATB+GLAAgNGSUke+unbp8PHWwfJjjV21qyJHpyzAB/SDyLGid03/X0sBMP4YsACA0dZTntZaXp46tK+5v7yrub+6RBLgfdibc/7tvtUD96cUWQ6A8cnNUwGAYkh5VmVWc0nnoqFnSz2t7YIAP8dgTnFXq6Nj3vQ1A+uMVwDjmyuwAICCnZ3ky2rz6u0YLD0xtL16UTRL00UBflyOeLicKv9i2qoXd6sBMEFOESUAAAqoFF3tJZ2Lhg+13qo81nylenXOUZMFJrYU8XREaWXf6u2PqwEwsRiwAIAim1qe3lxe7m3uar1Se6vxdnmxJDAhvR2R/tW0OTv+ON0QLTkAJh4DFgBQfKU4t3xO/dzS7Hi6saPzjPZgOk8UmBAaEfmbqZ5/t/fOnYflAJi4DFgAwJiRqnFF7ZKhRvtoaVNjoHZZbqUpqsB4lR+JdlrRd/vAj7QAwIAFAIw11dLk9rKOy4YONN+obmruKS+JnMqywHiRX0o5r+5ds/PPtQDgfypJAACMUb2VGY1lnZcN7yhNaW+RA8a4FAdTjjt7j3QuNF4B8JNcgQUAjG2lPK92wXDketpc39Fxdh5Kc0SBMaWdIh6olmPN5FX9b8oBwDsxYAEA40Kq5cUd84cGW0fKjzV21q6MVvSoAgX/exuxIUqtlb0rd7mKEoB3ZcACAMaTrvKU1vLyosHXmvsrzzZfq14TOZIsUDiv5py/3LdmYJ0UALwXBiwAYPxJcVZlVvOsylnNbY3+Wm4dLV8qChTC8cjx9SNHm187d+3uITkAeK8MWADA+FWK+dUL67k6WHpieHvtgtxMM0SBUZEjxXejndf0rRl4VQ4A3i8DFgAw3qXoai/pWDR0vHWw/Fhzd+3juR0dssBpktPmKOUVfav6nxQDgA/KgAUATBQ95Wmt5ZWpgy839lT3Nd+oXC0JnEIp9uV2/j/6Vvffn1JkQQA4GSUJAICJJKf4cGVu4+qOhUPPlHtaOxSBETeYU9zVrpfnTV8zsM54BcBIcAUWADAhpWq+vDqv3iwfKz3e2Fm7JDdSnypwcnLEw5VW+bapd7y0Sw0ARpIBCwCY0OdCpUntazsWDh1qvlHd1NxTuSay8yN4v3LEM+VSWjlt5Y5NagBwSk7aJAAAiKmVGY1l1TMbO4d3Vw+0D1SulATek7cj0r/qm7Pjj9MN0ZIDgFPFgAUA8Hdyio/Uzm18JM9ubm7s6JjZHkofUgXeUSMifzPV8+/23rnzsBwAnGoGLACAn5BqeXFt/lCjfbS0qT7QcXm0YrIq8D/lRyLSyr7VA9u0AOB0MWABALyzamlye1nnZSdeb75Weba5r3pN5FSWhQlse8ppTe+a/oelAOB0M2ABALyrNLNyVmtmZUb7xcbOSr11uLJQEyaYQynH16ZV4+50245hOQAYDQYsAID3opTnVc9vRKXe3Fx/qWNWrqfZojDOtVPEA/VWvv2sOwbekAOA0WTAAgB4H1ItL+5YMHSidaT8WGNn7cpoRY8qjLvnecTGlEsrp63Z/pwaABSBAQsA4P3rLk9pLS8vGtrf3F9+tvla9ZrIkWRhHHg15/zlvjUD66QAoEgMWAAAH1TKZ1dmNc+uzGhuq++qRftIeb4ojFEnIscfHjna/Nq5a3cPyQFA0RiwAABO/oxqfu2CejsGS08M9dcujHo6UxTGiBwpvptK7dt7V+x8RQ4Ainu6BQDASChFV3tJ56VDx1uHyo81d9c+ntvRIQsF9sOU8sreVQNPSAFA8U+0AAAYOSl6ytNayzsvG9pfmdF8UhCKJ+9PKX++90j/VcYrAMYKV2ABAJwCOeVzKnMb55TPaj4zvKM2OQZL56vCKKtH5H8XlfQ7vbf1H5EDgLHEgAUAcAqlar6885LhZvtY6fH6QG1+NFOvKpxuOeLhSiqtmLpq+041ABiLDFgAAKfhnKs0qX1t58LBg803a5uae8pLIqeyLJwGL0Tk1dNXD/x3KQAY0ydTEgAAnCYpTavMaCyrTG/sbLxcPdA6ULlSFE6RAxHpX/bO2fHH6YZoyQHAWGfAAgA43Urxkeq5jY9UZjc317d3nJWH01xRGCHNiPStajt9acrt29+SA4DxwoAFADBKUi0v7rh0qN4+WtpUH+i4PFoxWRVO4hn1/dRqr+y9o/95LQAYbwxYAACjq1aa3F7WedmJ15uvVZ5t7q0tiYiSLLwPOyLHl/rW7HhICgDGKwMWAEAhpJmVs1ozK2cOvVDfVWu2D5cWaMLPcSxy/JveavxBuq1/WA4AxjMDFgBAkZTzxbXzh3MeTk8O76h9OIZLs0ThJ7RTxAONUuuOmSt3vS4HABOBAQsAoHhS6shXd146fKJ1sPxYY1ftqsjRKQsR8Te5lFb0rdzxN1IAMJEYsAAAiqu7PK21vDx1aF9zf3lX87XqNZEjyTIh7ck5f6lv9cD9KUWWA4CJxg1CAQCKLuVZlVnNJZ0Lh54rdbe3CzKhnMgp7mp1dFw8fc3AOuMVABOVK7AAAMbMmVu+rHbxcDsGS08Mba9eFM3SdFHGrxzxcLnd+t+n3b7rZTUAmPCnQRIAAIwppehqL+lcOHy49Xblsear1Y/ndnTIMn6kiKej3V7Rd/vOv1QDAP6WAQsAYCxKcUZ5enN5ua+1u/Fy9c3W2+XFoox5b0Wkfz1tzo4/TjdESw4A+HsGLACAsSzlc6rn1M+pzI6nG/0dU9onSueLMuY0IvI3o5J+p++2HUfkAICfZsACABgHUjWuqF083GgfLW1qDNQuy600RZXiyxEPV5qxcuoXBgbUAICfzYAFADB+VEuT28s6Lhs60Hyjuqm5p7wkcirLUkT5pZRiVd+qgf+mBQD8fCUJAADGnd7KjMayjkXD/eWp7efkKJAUByPSyt4jcy/tNV4BwHvmCiwAgHEqlfNF1fOGo1JPm+vbO87Kw2muKqOmGZG+VSvnL0++bcebETsUAYD3wYAFADDOpVpe3HHp0GDrSPmxxkDto9GOSaqcVo+maK/sXb1zqxQA8MEYsAAAJoau8pTW8tLlg6+3Xis/09xbWxJuJ3FKpYj+nOO3+9b0P6QGAJwcAxYAwASSImZWzmrNrJw59KPGQK3VOlpaoMqIOx45vn74aPNr567dPSQHAJw8AxYAwERUzpdULxzOleH0ZGNH7cPt4dIsUU5aThHrm83mF2Z8YfdrcgDAyDFgAQBMXCl15Ktrlw4fbx0sP9bYVbsqcnTK8gHktDlKeUXvqv4nxQCAkWfAAgCgpzyttbw8dWhfc395V3N/dYkk79nenPNv963uvz+lyHIAwKnhxp0AAPytlGdVZjWXdC4aerbU09ouyLsazCnuajfKF09fM7DOeAUAp5YrsAAA+IkzxHxZbV69HYOlJ4a2Vy+KZmm6KH8vRzxcTpV/MW3Vi7vVAIDTdHoiAQAA76AUXe0lnYuGD7XeqjzWfKV6dc5Rm8hBcsQz5VJaOW3ljk2eHgBwehmwAAB4N1PL05vLy73NXa1Xam813i4vnoAN3o5I/6pvzo4/TjdEy1MCAE4/AxYAAD9fKc4tn1M/tzQ7nm7s6DyjPZjOmwCfdSMifzPV8+/23rnzsCcBAIweAxYAAO9ZqsYVtUuGGu2jpU2NgdpluZWmjM/PND8S7bSi7/aBHznqADD6DFgAALxf1dLk9rKOy4YONN+obmruKS+JnMrj5HPbnlJa3buq/88cZgAojpIEAAB8QL2VGY1lnZcN7yhNaW8Z45/LoZTjzt4jHQt6V+0wXgFAwbgCCwCAk1PK82oXDEeup831HR1n56E0Zww9+naKeKDeyrefdcfAGw4mABSTAQsAgBGRanlxx/yhwdaR8mONnbUroxU9hX68ERui1FrZu3LXFkcPAIrNgAUAwEjqKk9pLS8vGnytub/ybPO16jWRIxXsMb6ac/5y35qBdQ4XAIwNBiwAAEZeirMqs5pnVc5qbmv013LraPnSAjyq45Hj60eONr927trdQw4SAIwdBiwAAE6dUsyvXljP1cHSE8PbaxfkZpoxCo8iR4rvplL79t4VO19xUABg7DFgAQBwqqXoai/pWDR0vHWw/Fhzd+3juR0dp+nP/mHkvKJv9cBfOQwAMHaVJAAA4DTpKU9rLe+8bPC1yozmk6f0T0qxL6X8+d4j/Vf1rTFeAcBY5wosAABOq5ziw5W5jQ+Xz2o+0xyoTmodL18wgh++HpH/Xbte+fKZX3zpqNoAMD4YsAAAGBWpmi+vzqs3y8dKjzd21i7JjdR3Mh8vRzxcSaUVU1dt36kuAIwvBiwAAEb1fLQ0qX1tx8KhQ803qpuaeyrXRH7f56gvRClWTV/Z/xdyAsA4PWGQAACAAphamdFYVj2zsXN4d/VA+0Dlyvfwew5EpH/ZO2fHH6cboiUhAIxfBiwAAAojp/hI7dzGR/Ls5ubGjo6Z7aH0oXf4ZY2I9J+q7fSlKbdvf0s1ABj/DFgAABROquXFtflDjfbR0qb6QMflf/9f8iMRaWXf6h3bVAKAicOABQBAUVVLk9vLOi878Xr7WPn1lNu/1rtm55/LAgATjwELAICCSzNLk3Kpd7XxCgAmqpIEAAAAABSZAQsAAACAQjNgAQAAAFBoBiwAAAAACs2ABQAAAEChGbAAAAAAKDQDFgAAAACFZsACAAAAoNAMWAAAAAAUmgELAAAAgEIzYAEAAABQaAYsAAAAAArNgAUAAABAoRmwAAAAACg0AxYAAAAAhWbAAgAAAKDQDFgAAAAAFJoBCwAAAIBCM2ABAAAAUGgGLAAAAAAKzYAFAAAAQKEZsAAAAAAoNAMWAAAAAIVmwAIAAACg0AxYAAAAABSaAQsAAACAQjNgAQAAAFBoBiwAAAAACs2ABQAAAEChGbAAAAAAKDQDFgAAAACFZsACAAAAoNAMWAAAAAAUmgELAAAAgEIzYAEAAABQaAYsAAAAAArNgAUAAABAoRmwAAAAACg0AxYAAAAAhWbAAgAAAKDQDFgAAAAAFJoBCwAAAIBCM2ABAAAAUGgGLAAAAAAKzYAFAAAAQKEZsAAAAAAoNAMWAAAAAIVmwAIAAACg0AxYAAAAABSaAQsAAACAQjNgAQAAAFBoBiwAAAAACs2ABQAAAEChGbAAAAAAKDQDFgAAAACFZsACAAAAoNAMWAAAAAAUmgELAAAAgEIzYAEAAABQaAYsAAAAAArNgAUAAABAoRmwAAAAACg0AxYAAAAAhWbAAgAAAKDQDFgAAAAAFJoBCwAAAIBCM2ABAAAAUGgGLAAAAAAKzYAFAAAAQKEZsAAAAAAoNAMWAAAAAIVmwAIAAACg0AxYAAAAABSaAQsAAACAQjNgAQAAAFBoBiwAAAAACs2ABQAAAEChGbAAAAAAKDQDFgAAAACFZsACAAAAoNAMWAAAAAAUmgELAAAAgEIzYAEAAABQaAYsAAAAAArNgAUAAABAoRmwAAAAACg0AxYAAAAAhWbAAgAAAKDQDFgAAAAAFJoBCwAAAIBCM2ABAAAAUGgGLAAAAAAKzYAFAAAAQKEZsAAAAAAoNAMWAAAAAIVmwAIAAACg0AxYAAAAABSaAQsAAACAQjNgAQAAAFBoBiwAAAAACs2ABQAAAEChGbAAAAAAKDQDFgAAAACFZsACAAAAoNAMWAAAAAAUmgELAAAAgEIzYAEAAABQaAYsAAAAAArNgAUAAABAoRmwAAAAACg0AxYAAAAAhWbAAgAAAKDQDFgAAAAAFJoBCwAAAIBCM2ABAAAAUGgGLAAAAAAKzYAFAAAAQKEZsAAAAAAoNAMWAAAAAIVmwAIAAACg0AxYAAAAABSaAQsAAACAQjNgAQAAAFBoBiwAAAAACs2ABQAAAEChGbAAAAAAKDQDFgAAAACFZsACAAAAoNAMWAAAAAAUmgELAAAAgEIzYAEAAABQaAYsAAAAAArNgAUAAABAoRmwAAAAACg0AxYAAAAAhWbAAgAAAKDQDFgAAAAAFJoBCwAAAIBCM2ABAAAAUGgGLAAAAAAKzYAFAAAAQKEZsAAAAAAoNAMWAAAAAIVmwAIAAACg0AxYAAAAABSaAQsAAACAQjNgAQAAAFBoBiwAAAAACs2ABQAAAEChGbAAAAAAKDQDFgAAAACFZsACAAAAoNAMWAAAAAAUmgELAAAAgEIzYAEAAABQaAYsAAAAAArNgAUAAABAoRmwAAAAACg0AxYAAAAAhWbAAgAAAKDQDFgAAAAAFJoBCwAAAIBCM2ABAAAAUGgGLAAAAAAKzYAFAAAAQKEZsAAAAAAoNAMWAAAAAIVmwAIAAACg0AxYAAAAABSaAQsAAACAQjNgAQAAAFBoBiwAAAAACs2ABQAAAEChGbAAAAAAKDQDFgAAAACFZsACAAAAoNAMWAAAAAAUmgELAAAAgEIzYAEAAABQaAYsAAAAAArNgAUAAABAoRmwAAAAACg0AxYAAAAAhWbAAgAAAKDQDFgAAAAAFJoBCwAAAIBCM2ABAAAAUGgGLAAAAAAKzYAFAAAAQKEZsAAAAAAoNAMWAAAAAIVmwAIAAACg0AxYAAAAABSaAQsAAACAQjNgAQAAAFBoBiwAAAAACs2ABTDCcs7HI+K4EgAjKLXfEAEAJi4DFsAIm/0nz7/aalUuzCnui4i2IgAn5a2ItLJ39sA/kwIAJq4kAcCps++WS6/M7XRPRFyjBkXUsWjw6VSJK5SggBoR+ZtRSb/Td1v/ETkAYGIzYAGcYjki7b1pwT9OKb4eER9ShCIxYFHQr5yP5FS6bfqqHS9oAQBEGLAATpvXblnY08pxR+T8xYjoVIQiMGBRLPmllPPq3jU7/1wLAODHGbAATrO9v37p3Fwu/V6KfIsajDYDFgU5Iz2Y2nHXtKMd30hrt9UFAQB++nQBgFGx56b5n0yp9I2IWKQGo8WAxShrRqRv1Sr5y5Nv639TDgDgZzFgAYyivDZKe/sX3pxy/sOImKEIp5sBi1H0aCq1VvWu3LVFCgDg5zFgARTArn9y2dRas3Vn5FgVETVFOF0MWIzCyWd/zvHbfWv6H1IDAHgf5xAAFMWeWxddWGq1/yhH/JoanA4GLE6j45Hj60eONr927trdQ3IAAO+HAQuggPbetOC6SHFPRFyiBqeSAYvTIKeI9c1m8wszvrD7NTkAgA+iJAFA8cx+cOsj+3tql6WUVqaIw4oAY1JOmyPFkt7V/bcarwCAk+EKLICC23PrvL7Uqv1uRP6tiCgrwkhyBRanyN6c82/3rR64P6XIcgAAJ8uABTBWXg3++qLLo9y+OyKWqcFIMWAxwgZzintzvfx7Z37xpaNyAAAjxYAFMMbsvXHhZ6OU742Ic9TgZBmwGCk54uFKq3zb1Dte2qUGADDS3AMLYIyZ/e0t32vXJ10SOe6MCFc4AKMqRzxTKqXl01f3f9Z4BQCcKq7AAhjDXr110ezUyn+QIt/sazofhCuwOAlvR6R/1Ttnxx+nG6IlBwBwKnmxAzAO7P+N+YvbUbonIq5Wg/fDgMUH0IjI30z1/Lu9d+70U1IBgNPCgAUwTuSItPfmhbeknO+KiLMU4b0wYPE+v9I8EpFW9q3u36YFAHA6GbAAxpnXblnY08pxR+T8xYjoVIR3Y8DiPdqeUlrdu2rHn0kBAIwGAxbAOPXqzfPPL0fp93OO69XgZzFg8XMcSjm+Nu1oxzfS2m11OQCA0WLAAhjn9tyy8FOldr47RyxQg59kwOJnaKeIB+qtfPtZdwy8IQcAMNoMWAATQP7EJyr7Z739T3Mp/nXkOFMR/icDFu9wcrgx5dLKaWu2P6cGAFCgcxQAJoqXb1owrZLS2oj8zyOioggGLH7MqznnL09fM7BOCgCgaAxYABPQ3psXXpRz/kaK+BU1JjYDFhFxInL84ZGjza+du3b3kBwAQBEZsAAmsL03LvxsKudv5BznqTExGbAmtBwpvptK7dt7V+x8RQ4AoMhKEgBMXLO/veV7+7prF6eUVkbEEUVgwvhh5Ly0b1X/DcYrAGAscAUWABERse/Gj07PpcbvROTfioiyIhODK7Am3JnfvhT5q9MOD/yHtDbaggAAY+c0BgB+zL6bF16Ro31P5LRUjfHPgDVh1CPyv2s3Kl8+84svHZUDABhrDFgAvKO9Ny78bJTi30bkD6sxfhmwxr8c8XAllVZMXbV9pxoAwFjlHlgAvKPZ397yvdRTvSRy3BkRxxSBMeeFKMUvT1/d/1njFQAw1rkCC4Cfa89vLJwTEb+fIt/s347xxRVY49KBiPQve+fs+ON0Q7TkAADGAy9CAHjPXr1l4VXldr4nR1ylxvhgwBpXGhHpP1Xb6UtTbt/+lhwAwHhiwALgfclro7S3f+HNKef/MyJmKjK2GbDGzd/MR1IrVvXeMfC8FgDAeGTAAuADeeP6+ZMaHeXbo53vjBQdioxNBqwxb0fk+FLfmv6HpAAAxjMDFgAn5dWbLrugXGr9Xs5xvRpjjwFrzDoWOf5NbzX+IN3WPywHADDeGbAAGBF7fmPhpyPy3SniUjXGDgPWmNNOEQ80Sq07Zq7c9bocAMBEYcACYMTkT3yisn/W2/80p/x7EWm6IsVnwBpDf78iHiuntHLaqh3PqgEATDQGLABG3KvXz+8t1cpfici/FRFlRYrLgDUm7Mk5f6lv9cD9KUWWAwCYiAxYAJwy+2659OLcTn8UEb+sRjEZsArtROT4wxNp6K65q/cMygEATGQGLABOub03LvxsLuW7U8RH1CgWA1Yh5Ujx3VKrdce023e9LAcAQERJAgBOtdnf3vK9w/X2xSmllRFxRBF4ZynFU6ndXta3qv8G4xUAwI+dJ0kAwOn0yq9fPqtUaX4l5fhn4Rspo84VWEWR96cUa6cdHvgPaW209QAA+IcMWACMin23XHplbpfujshL1Bg9BqxR14jI34xK+p2+2/pdnQgA8DMYsAAYNTki7b1pwT9OKb4eER9S5PQzYI3q8//hSjNWTv1C/4AaAADvzls3ABg1KSLPeXDrQ6mndnGk9NWIGFKFCeDFlPKvTl/d/1njFQDAe37tAADFsPfXL52by6XfS5FvUeP0cAXWaXUgIv3L3iOz/6+0dmNTDgCA986ABUDhvHrzpZ8o5XR3RCxS49QyYJ0WzYj0rVolf3nybf1vygEA8P4ZsAAopLw2Snv7F96ccv7DiJihyKlhwDrlp1rfT9Fa1bt651YtAABO4qxKAgCKbNc/uWxqrdm6M3KsioiaIiPLgHXKTrD6c47f7lvT/5AaAAAjcn4FAMW359ZFF6ZW/jcR+TNqjBwD1og7Hjm+3luNP0i39Q/LAQAwMgxYAIwpe29acF2kuDsi5qtx8gxYIyaniPXNZvMLM76w+zU5AABGVkkCAMaS2Q9ufWR/T+3ylNLKFHFYEQrgB5Hjmt7V/bcarwAATg1XYAEwZu25dV5fatV+NyL/VkSUFXn/XIF1UvbmnH+7b/XA/SlFlgMA4NQxYAEw5u399UWXR7l9d0QsU+P9MWB9IIM5xb3tWse/nvFb247JAQBw6hmwABg39t648LNRyvdExLlqvDcGrPcnRzxcTpV/MW3Vi7vVAAA4fdwDC4BxY/a3t3yvXZ80P3LcGRFHFWGkpIinU5SWTV/d/1njFQDAqJyPAcD488qvXz6rVG59LUW+2b93P5srsH6utyPSv+qds+OP0w3RkgMAYHQ4oQdgXNv/G/MXt6N0T0RcrcZPM2D9TI2I/M1Uz7/be+dOP+0SAGCUGbAAGPdyRNp788JbUs53RcRZivw9A9Y7PmMeiXZa0Xd7/4+0AAAoBgMWABPGa7cs7GnluCNy/mJEdCpiwPqH8ksp59W9a3b+uRYAAMViwAJgwtn765fOzeXS76XIt0z0FgasiEhxMLXjrmlHO76R1m6r+xsCAFDEUzYAmKD23DT/k6lUujtyLJyoDSb4gNVOEQ9UK7Fm8m39b/obAQBQXAYsACa0vDZKe/sX3pwifz1ynDnRPv+JOmCliA1Raq3sXblri78FAABj4vwNAHj5pgXTKqX4YuRYFRG1ifJ5T8AB65Wc8+9MXzOwzrMeAGDsMGABwI/Ze/PCi1LkP8o5fnUifL4TaMA6Hjm+fuRo82vnrt095JkOADC2GLAA4B3svWnBdZHinoi4ZDx/nhNgwMopYn2z2fzCjC/sfs0zGwBgbCpJAAA/bfaDWx/Z31O7LKW0MkUcVmQMymlzpFjSu7r/VuMVAMDY5gosAPg59tw6ry+1ar8bkX8rIsrj6XMbl1dgpdiX2/n/6Fs9cH9KkT2DAQDGwykeAPCe7Lt54RU557sj4trx8jmNswFrMKe4N9fLv3fmF1866hkLADB+GLAA4H3ae+PCz0Yp3xsR54z1z2W8DFg54uFKq3zb1Dte2uUZCgAw/rgHFgC8T7O/veV7qac2P3LcGRHHFBk9OeKZUiktn766/7PGKwCA8csVWABwEl69ddHs1Mp/kCLfPBb/XR3DV2C9HZH+Ve+cHX+cboiWZyIAwPhmwAKAEfDqTYs+VkrteyLi42PpcY/BAasRkb+Z6vl3e+/c6adDAgBMEAYsABgheW2U9vYvvDnlfFdEnDUWHvPYGrDyIxFpZd/q/m2ebQAAE4sBCwBG2Gu3LOxp5bgj2vnOSNFR5Mc6Rgas7Sml1b2rdvyZZxcAwMRkwAKAU+TVm+efX47S7+cc1xf1MRZ8wDqUcnxt2tGOb6S12+qeUQAAE5cBCwBOsT2/sfDTpcjfyBELivbYCjpgtVPEA/VWvv2sOwbe8AwCAMCABQCnQf7EJyr7Z739T3PKvxeRphflcRVtwEoRG1MurZy2ZvtznjUAAPzYeSIAcLq8ev383lKt/JWI/M8jojLaj6dAA9arOecvT18zsM6zBACAn2TAAoBRsO/GBfNyKb4REb88mo+jAAPWicjxh0eONr927trdQ54ZAAC8EwMWAIyivTcu/Gwu5btTxEdG488fxQErR4rvplL79t4VO1/xTAAA4N2UJACA0TP721u+d7jevjiltDIijkyQT/uHkfPSvlX9NxivAAB4L1yBBQAFsfvmi8+uRGVtyvHP4jR9k+m0XoGVYl+K/NVphwf+Q1obbUccAID3fioJABTKvpsWfDSndE9EXnKq/6zTNGDVI/K/i0r6nb7b+o84wgAAvF8GLAAooByR9t604B+nlP4wIn/4VP05p3rAyhEPV1JpxdRV23c6qgAAfFDugQUABZQi8pwHtz6UeqqXREpfjYjBMfYpvBCl+OXpq/s/a7wCAGAEzo8BgKLb8xsL50TE76fIN4/kv9+n4AqsAxHpX/bO2fHH6YZoOXIAAIwEAxYAjCH7b1ywvF1Kd0fky0bi443ggNWMSN+qttOXpty+/S1HCgCAkWTAAoAxJq+N0t7+hTennP/PiJh5Mh9rZAas/EhqxareOwaed3QAADgVDFgAMEbt+ieXTa01W3dGO1ZGio4P8jFOcsDaETm+1Lem/yFHAwCAU8mABQBj3Ks3XXZBKbX/KCJ/5v3+3g84YB2LHP+mtxp/kG7rH3YEAAA41QxYADBO7L1pwXWR4u6ImP9ef8/7HLDaKeKBRql1x8yVu15XHACA06UkAQCMD7Mf3PrI/p7a5SmllRFxaIQ//N/kUrqmd3X/rcYrAABON1dgAcA49Or183tLtfJXIvJvRUT5Z/2693AF1p6c85f6Vg/cn1JkZQEAGA0GLAAYx/bdcunFuR3fiEi/9E7//V0GrBOR4w9PpKG75q7eM6gkAACjyYAFABPA3hsXfjZK+Z6IOPfH//93GLBypPhuqdW6Y9rtu15WDgCAInAPLACYAGZ/e8v3DtXb8/7u/lhH3+nXpBRPpXZ7Wd+q/huMVwAAFIkrsABggnnl1y+fVao0v5Jy/LOORYPPpko+O6VYO232wH9MN0RLIQAAisaABQAT1J4bF1zdcVH9quiK/3jmF186qggAAEX1/wePI4TOJsEG8QAAACV0RVh0ZGF0ZTpjcmVhdGUAMjAyNC0wNy0yMlQwNzozMToxNSswMDowMNxe70MAAAAldEVYdGRhdGU6bW9kaWZ5ADIwMjQtMDctMjJUMDc6MzE6MTUrMDA6MDCtA1f/AAAAAElFTkSuQmCC;" vertex="1" parent="WIyWlLk6GJQsqaUBKTNV-1">
          <mxGeometry x="543.38" y="346.25" width="46.62" height="50" as="geometry" />
        </mxCell>
        <mxCell id="hjRuKn60iCRDdDcoewle-8" value="BiLSTM" style="text;html=1;align=center;verticalAlign=middle;whiteSpace=wrap;rounded=0;fontSize=14;" vertex="1" parent="WIyWlLk6GJQsqaUBKTNV-1">
          <mxGeometry x="573" y="302.25" width="60" height="30" as="geometry" />
        </mxCell>
        <mxCell id="hjRuKn60iCRDdDcoewle-10" style="edgeStyle=orthogonalEdgeStyle;rounded=0;orthogonalLoop=1;jettySize=auto;html=1;entryX=0.5;entryY=1;entryDx=0;entryDy=0;fontSize=14;strokeWidth=4;" edge="1" parent="WIyWlLk6GJQsqaUBKTNV-1" source="hjRuKn60iCRDdDcoewle-9" target="gDYA3ZEtiFdCUqIHOIhs-44">
          <mxGeometry relative="1" as="geometry" />
        </mxCell>
        <mxCell id="hjRuKn60iCRDdDcoewle-9" value="SVM" style="text;html=1;align=center;verticalAlign=middle;whiteSpace=wrap;rounded=0;fontSize=14;" vertex="1" parent="WIyWlLk6GJQsqaUBKTNV-1">
          <mxGeometry x="480" y="366.25" width="60" height="30" as="geometry" />
        </mxCell>
        <mxCell id="hjRuKn60iCRDdDcoewle-12" style="edgeStyle=orthogonalEdgeStyle;rounded=0;orthogonalLoop=1;jettySize=auto;html=1;entryX=1;entryY=0.75;entryDx=0;entryDy=0;strokeWidth=4;" edge="1" parent="WIyWlLk6GJQsqaUBKTNV-1" source="hjRuKn60iCRDdDcoewle-11" target="gDYA3ZEtiFdCUqIHOIhs-44">
          <mxGeometry relative="1" as="geometry" />
        </mxCell>
        <mxCell id="hjRuKn60iCRDdDcoewle-11" value="" style="shape=image;verticalLabelPosition=bottom;labelBackgroundColor=default;verticalAlign=top;aspect=fixed;imageAspect=0;image=data:image/png,iVBORw0KGgoAAAANSUhEUgAAAIcAAACHCAIAAACzhd1dAAAJkUlEQVR4nOydTW8cx9HHq6rnZV+4S0mk6bUp6fEjBRYCBEhgOIccDPgQIzAQ5JRrvlk+QRAgOeUSIIccAgMCEjiHwDACR4EUSVYoiiKtfZvpqmB6lgwDTc8u5d6d5rB/B8ImWzOz89/u6fp3dU0kIhDwDGr6AgIVBFV8JKjiI0EVHwmq+EhQxUeCKj4SVPGRoIqPRI2cVYu8nGcCgPY2/TgSkXGulx5tEEcR0TzPDydjlrpjroNBmvaThNDlaZtR5cV8/tsHj7UAVX0WFomIPhrtZlp/9uxQi6DlM4tAquiT/b29Tvrw6OiX9z+b5hnhhgYAFkHAn9x7/6P37vaTxOGRm1ElZ3k6mWoWVXUHNXBCapbzROdPJlMtoCwdgIE7SmVaRGCa5V89fz7Osog2qQocjm+ysNsjN6NK8UBDBAJV2QkECZEIlMayQXWz05bFHxEQQRFFRLFS6774Em2MXdM1HY+azahy9iGq77Ysfshpa5so+L9+NxYt0TbcOQfXZreHOZiPBFV8JKjiI0EVHwmq+EhQxUeamRmLCctFikCs+q+ns+KiGViDND49VMtoKoos7rYWwaobKgZm8x/mf22qiNG2daI0pEpK6u6wr1kqTT0WiYkGkUoJ7gx6bPfBWKSjqBepDTuS66YZVYZJ/OnNUY1RgQDdSInA271u/aEQoB9FQRUrOctULzfeU6UiwmvLTFYByJijpfZJ6ce0axhzpgqLHM3n9//9Ihe2LTawFEPW964P93u9qNLEP0fO/PCb8RcvT9hi+JsDQkz4w93r20ns4DN4g8u+cpJlnx8ezblGleL+jrrpqNeNlvmsWuTZZPqX50e1qkhXqe9uD4ZBFRu08NTBpspivourGt9oWiLaD7gYuFr2WHH9tC+tdLsqgBcQpWwMdQfETTr3myPE9j4SVPGRoIqPBFV8JKjiI47nYHLup+2vFzrahQ6oWbQw8obmZMx8bnbuEpeqsAADaxHgapNXi5AJ/Vb8IKXVX7S2TH41C1NpLBcKnQVMG2Jtp3OpSky4m6ZzEVsoblTBjrKmd50HAbuR2u2kDNXWcqlKx7hqhPjOYPiLDz7MmZdZOc4QE3/d29lNI9dhn8MOmDEfZ3kZKtoOigL9OErV8lsnAFOtx5kWWzLYaVg6jKOYSDPP8rzu3M7B4lQJqUg5Xkpwqcrq5CJH86wYmapvYXFrtwrx2rZwsiINZX9P57/6xyMtllUvEIX48eit97e34k0lDXtFQzslQA5nc23u/ut/ZZEIKWvj0u+KNJb9rQhRQFV1Bc2sWmg5XoCms78bOb33XMVR23+CKj4SVPGRoIqPBFV8pLGZsXNYZKZ1zux2YtdR0eYj2eayv02qcXX2t4hcfM/hVOd/Pnj2ZDx2NeFmEQL60Wg06vVX8lPd0VxfETQf25KTLxc2GSdaf3548Nfnz2lhsX9bNEtEeHd7uNftXQlVuoq+v7PNFh9MzO9vdN6k4EN9ptKF0GbDQCMeQzOqDOL449Fb9W1Stdo6zCl4LhvNiSrlTv7KvRzrxnH29yTXgmJfXQHTURRhMXxZ10Lw9a30VwuX2d+Hs9mfvj7Mhcla4EMQ8MPda/04+uPTAy1SWQqEQRThD25cv9XvLk0SbyUu+8qrPP/i6HguQlS9mmUeJHBn2EfEvx0dF6q8XscFgc1j9v+3tvb7natpYLrO/jYDMVkmp4s8Y5Qy15igOtl+UaHqKsqxYB3Z39bkBzFKnOV027L3GcVeuuVKEBwXHwmq+EhQxUeCKj4SVPGR9WR/WwxfkSKMlHNlPqwt3V7WZcNp9rfdnC8xVTtxkawtooWhaunCVNlcOUX8lNOjFv/MSXHOBivEuFQlJbXf72Zszf5mKcKUfhSnim5tdXOByoxVLn6Pb1BxYlGux15h5EIYJ4Ia0cWZKoS410l/euudpS17UaQQf3b73doq09iLFCFmlk0X54mo+BrERLe3hrmpZrv6NuUaTAonDpJk81ZcM9nfq6BFXszmTyfTmjUOs2cF/m+r14siEfkmz+ZaO5HkjEEcxxtPQvd33T5j/vvLkz88OWB7WQUW7ij18/du3t4qOtYwTqAVNSr8VaXsCmaCYB3qWKQswN0yvFaFsJgOMJKt8pE2NWPaZ2SGKNJHgio+ElTxkaCKjwRVfCSo4iOXXpXWzYrB93ildH+FRVty9rSILgLJjV/ZmvFXFQRUSN1I2dKRywTtrlIrFLq4ZPjrTrLIcZYfzmb1zQjw7W6n067y345VqVny+u8pzRe//rxlASMQ4BWWJTe8jWEDuBzBprl+Nl3y1RaBnU4cEz2dzGqe1YKwk8R9sxLj8AovCy6zv7+ezn7z4HHGbBtNzFokfLK/dyNNf/3gkWaptB1ZQBH+eH/v3vYgCap8SwRkovO5vbh9+TJVbdb2x5k271CtaJmLRELa0+fdJnCpCgKoYuKEldVZwIxfVKYaY10dF2FWIc844BtBFR8JqvhIUMVHgio+ElTxEbfxShGLaHu5D20MGTbFQjQLQ3VLvcgzdnhplwynqki5YRUt9XCLEHIRhSAQgXB15VxXZQwuL87cSTE7u/95Mq5JmzMVOGC/100VfXX8ypamLSbM3O91t5P4asrj0jMW8+K6pc2U6QlLWyrEXGSF7G/sKGqZienv+krG/K9Xky9fntSk7otJyP9g59q1NGmTLP6uRWqRJ+PJ/YMXDFJZggTN5KJD6juD/nYStymx1V9VyipQ5asMrXecw5sJN05ZVYTDmwkDPhBU8ZGgio8EVXwkqOIjQRUfCar4iNfxinkBJbBIblsaEIgEQvb35kCAVNEwiZdmf9vSzy4v/rqTLDDJ8+MsW+KnCO6kSaJaNRQ3o4oYS7iuyDSAIhKRnBnRWnG6bBlT27ZKNDOCTXP95fGJ/f3CQIi3+t1c8+PJtP5bQ4B3Bv1efOECST7TjCrHWfa7h09zrs4z1iKJok/3RzOtf//4mSlGbUtclkUdl6hV7zJs7P0rZucca6mu2qYZyoHLNLP2llDHxSWL+tJEUVX2t3nvNpZFvopeghjquASaJ6jiI0EVHwmq+EhQxUeCKj7SbLwiWOX3ahYFbIpWi6kJYrUANAuTt07em9OYZxwh5lW3uwhlCIkW72wzkYpUqoK1SUmXmmbcyZnmR6+sL0E1pXJhr5NqgYNpXbGEsqjuu6ZiyHqveLM05hmXTsnr5z77ZdkJbM3Ot2xZ6rfX6ytXmTAH85Ggio8EVXwkqOIjQRUfCar4SFDFR4IqPvKfAAAA//8xpitfwio83AAAAABJRU5ErkJggg==;" vertex="1" parent="WIyWlLk6GJQsqaUBKTNV-1">
          <mxGeometry x="660" y="232.75" width="54.5" height="54.5" as="geometry" />
        </mxCell>
        <mxCell id="hjRuKn60iCRDdDcoewle-13" value="Tensorflow" style="text;html=1;align=center;verticalAlign=middle;whiteSpace=wrap;rounded=0;fontSize=14;" vertex="1" parent="WIyWlLk6GJQsqaUBKTNV-1">
          <mxGeometry x="543.38" y="403.25" width="60" height="30" as="geometry" />
        </mxCell>
        <mxCell id="hjRuKn60iCRDdDcoewle-14" value="ULMFiT" style="text;html=1;align=center;verticalAlign=middle;whiteSpace=wrap;rounded=0;fontSize=14;" vertex="1" parent="WIyWlLk6GJQsqaUBKTNV-1">
          <mxGeometry x="600" y="229" width="60" height="30" as="geometry" />
        </mxCell>
        <mxCell id="hjRuKn60iCRDdDcoewle-15" value="fast.ai" style="text;html=1;align=center;verticalAlign=middle;whiteSpace=wrap;rounded=0;fontSize=14;" vertex="1" parent="WIyWlLk6GJQsqaUBKTNV-1">
          <mxGeometry x="657.25" y="287.25" width="60" height="30" as="geometry" />
        </mxCell>
      </root>
    </mxGraphModel>
  </diagram>
</mxfile>
